STARTFONT 2.1
COMMENT 18x18 Japanese kanji font
COMMENT
COMMENT This font was created by modifying jiskan16.bdf which is
COMMENT from Japanese Industrial Standard, JIS X 9051-1984
COMMENT named "16-dots Matrix Character Patterns for Display Devices"
FONT -Misc-Fixed-Medium-R-Normal--18-180-72-72-C-180-JISX0208.1983-0
SIZE 18 72 72
FONTBOUNDINGBOX 18 18 0 -2
STARTPROPERTIES 19
FONT_ASCENT 16
FONT_DESCENT 2
DEFAULT_CHAR 8481
COPYRIGHT "from JIS X 9051-1984, by permission to use"
FONTNAME_REGISTRY ""
FOUNDRY "JIS"
FAMILY_NAME "Fixed"
WEIGHT_NAME "Medium"
SLANT "R"
SETWIDTH_NAME "Normal"
ADD_STYLE_NAME ""
PIXEL_SIZE 18
POINT_SIZE 180
RESOLUTION_X 72
RESOLUTION_Y 72
SPACING "C"
AVERAGE_WIDTH 180
CHARSET_REGISTRY "JISX0208.1983"
CHARSET_ENCODING "0"
ENDPROPERTIES
CHARS 6877
STARTCHAR 2121
ENCODING 8481
SWIDTH 1000 0
DWIDTH 18 0
BBX 18 18 0 -2
BITMAP
000000
000000
000000
000000
000000
000000
000000
000000
000000
000000
000000
000000
000000
000000
000000
000000
000000
000000
ENDCHAR
STARTCHAR 2122
ENCODING 8482
SWIDTH 1000 0
DWIDTH 18 0
BBX 18 18 0 -2
BITMAP
000000
000000
000000
000000
000000
000000
000000
000000
000000
000000
000000
000000
000000
000000
300000
180000
080000
000000
ENDCHAR
STARTCHAR 2123
ENCODING 8483
SWIDTH 1000 0
DWIDTH 18 0
BBX 18 18 0 -2
BITMAP
000000
000000
000000
000000
000000
000000
000000
000000
000000
000000
000000
000000
000000
300000
480000
480000
300000
000000
ENDCHAR
STARTCHAR 2124
ENCODING 8484
SWIDTH 1000 0
DWIDTH 18 0
BBX 18 18 0 -2
BITMAP
000000
000000
000000
000000
000000
000000
000000
000000
000000
000000
000000
000000
000000
300000
300000
100000
200000
000000
ENDCHAR
STARTCHAR 2125
ENCODING 8485
SWIDTH 1000 0
DWIDTH 18 0
BBX 18 18 0 -2
BITMAP
000000
000000
000000
000000
000000
000000
000000
000000
000000
000000
000000
000000
000000
300000
300000
000000
000000
000000
ENDCHAR
STARTCHAR 2126
ENCODING 8486
SWIDTH 1000 0
DWIDTH 18 0
BBX 18 18 0 -2
BITMAP
000000
000000
000000
000000
000000
000000
000000
000000
00c000
00c000
000000
000000
000000
000000
000000
000000
000000
000000
ENDCHAR
STARTCHAR 2127
ENCODING 8487
SWIDTH 1000 0
DWIDTH 18 0
BBX 18 18 0 -2
BITMAP
000000
000000
000000
000000
000000
000000
000000
00c000
00c000
000000
000000
000000
000000
00c000
00c000
000000
000000
000000
ENDCHAR
STARTCHAR 2128
ENCODING 8488
SWIDTH 1000 0
DWIDTH 18 0
BBX 18 18 0 -2
BITMAP
000000
000000
000000
000000
000000
000000
000000
00c000
00c000
000000
000000
000000
000000
00c000
00c000
004000
008000
000000
ENDCHAR
STARTCHAR 2129
ENCODING 8489
SWIDTH 1000 0
DWIDTH 18 0
BBX 18 18 0 -2
BITMAP
000000
000000
03f000
040800
080400
080400
040400
001800
006000
008000
008000
000000
000000
00c000
00c000
000000
000000
000000
ENDCHAR
STARTCHAR 212a
ENCODING 8490
SWIDTH 1000 0
DWIDTH 18 0
BBX 18 18 0 -2
BITMAP
000000
000000
00c000
00c000
00c000
00c000
00c000
008000
008000
008000
008000
000000
000000
00c000
00c000
000000
000000
000000
ENDCHAR
STARTCHAR 212b
ENCODING 8491
SWIDTH 1000 0
DWIDTH 18 0
BBX 18 18 0 -2
BITMAP
000000
280000
280000
000000
000000
000000
000000
000000
000000
000000
000000
000000
000000
000000
000000
000000
000000
000000
ENDCHAR
STARTCHAR 212c
ENCODING 8492
SWIDTH 1000 0
DWIDTH 18 0
BBX 18 18 0 -2
BITMAP
000000
000000
000000
300000
480000
480000
300000
000000
000000
000000
000000
000000
000000
000000
000000
000000
000000
000000
ENDCHAR
STARTCHAR 212d
ENCODING 8493
SWIDTH 1000 0
DWIDTH 18 0
BBX 18 18 0 -2
BITMAP
000000
006000
018000
000000
000000
000000
000000
000000
000000
000000
000000
000000
000000
000000
000000
000000
000000
000000
ENDCHAR
STARTCHAR 212e
ENCODING 8494
SWIDTH 1000 0
DWIDTH 18 0
BBX 18 18 0 -2
BITMAP
000000
018000
006000
000000
000000
000000
000000
000000
000000
000000
000000
000000
000000
000000
000000
000000
000000
000000
ENDCHAR
STARTCHAR 212f
ENCODING 8495
SWIDTH 1000 0
DWIDTH 18 0
BBX 18 18 0 -2
BITMAP
000000
033000
033000
000000
000000
000000
000000
000000
000000
000000
000000
000000
000000
000000
000000
000000
000000
000000
ENDCHAR
STARTCHAR 2130
ENCODING 8496
SWIDTH 1000 0
DWIDTH 18 0
BBX 18 18 0 -2
BITMAP
000000
00c000
033000
000000
000000
000000
000000
000000
000000
000000
000000
000000
000000
000000
000000
000000
000000
000000
ENDCHAR
STARTCHAR 2131
ENCODING 8497
SWIDTH 1000 0
DWIDTH 18 0
BBX 18 18 0 -2
BITMAP
000000
7fff80
000000
000000
000000
000000
000000
000000
000000
000000
000000
000000
000000
000000
000000
000000
000000
000000
ENDCHAR
STARTCHAR 2132
ENCODING 8498
SWIDTH 1000 0
DWIDTH 18 0
BBX 18 18 0 -2
BITMAP
000000
000000
000000
000000
000000
000000
000000
000000
000000
000000
000000
000000
000000
000000
000000
000000
7fff80
000000
ENDCHAR
STARTCHAR 2133
ENCODING 8499
SWIDTH 1000 0
DWIDTH 18 0
BBX 18 18 0 -2
BITMAP
000000
000000
000000
000000
000000
030000
018000
00c000
006000
003000
001000
001800
000800
000000
000000
000000
000000
000000
ENDCHAR
STARTCHAR 2134
ENCODING 8500
SWIDTH 1000 0
DWIDTH 18 0
BBX 18 18 0 -2
BITMAP
000000
000000
000000
000000
002800
062800
030000
018000
00c000
006000
002000
003000
001000
000000
000000
000000
000000
000000
ENDCHAR
STARTCHAR 2135
ENCODING 8501
SWIDTH 1000 0
DWIDTH 18 0
BBX 18 18 0 -2
BITMAP
000000
000000
000000
000000
040000
060000
030000
018000
00e000
003000
001800
003000
00e000
018000
000000
000000
000000
000000
ENDCHAR
STARTCHAR 2136
ENCODING 8502
SWIDTH 1000 0
DWIDTH 18 0
BBX 18 18 0 -2
BITMAP
000000
000000
000000
000000
041400
061400
030000
018000
00e000
003000
001800
003000
00e000
018000
000000
000000
000000
000000
ENDCHAR
STARTCHAR 2137
ENCODING 8503
SWIDTH 1000 0
DWIDTH 18 0
BBX 18 18 0 -2
BITMAP
000000
000000
000000
000000
021000
021000
021000
021000
021000
021000
021000
042000
042000
084000
000000
000000
000000
000000
ENDCHAR
STARTCHAR 2138
ENCODING 8504
SWIDTH 1000 0
DWIDTH 18 0
BBX 18 18 0 -2
BITMAP
000000
008000
01c000
036000
063000
0c1800
180e00
700380
000000
1ffe00
008000
008000
008000
008000
008000
7fff80
000000
000000
ENDCHAR
STARTCHAR 2139
ENCODING 8505
SWIDTH 1000 0
DWIDTH 18 0
BBX 18 18 0 -2
BITMAP
000000
000000
010000
010000
010000
03fc00
020400
060c00
040800
0c1800
19b000
00e000
003000
001800
000800
000000
000000
000000
ENDCHAR
STARTCHAR 213a
ENCODING 8506
SWIDTH 1000 0
DWIDTH 18 0
BBX 18 18 0 -2
BITMAP
000000
000000
000300
000600
000c00
039800
04f000
086000
08f000
199800
130000
160000
140000
1c0000
180000
300000
000000
000000
ENDCHAR
STARTCHAR 213b
ENCODING 8507
SWIDTH 1000 0
DWIDTH 18 0
BBX 18 18 0 -2
BITMAP
000000
000000
000000
03f000
0e1c00
180600
100200
300300
200100
200100
300300
100200
180600
0e1c00
03f000
000000
000000
000000
ENDCHAR
STARTCHAR 213c
ENCODING 8508
SWIDTH 1000 0
DWIDTH 18 0
BBX 18 18 0 -2
BITMAP
000000
000000
000000
000000
000000
000000
000000
200000
1fff00
000000
000000
000000
000000
000000
000000
000000
000000
000000
ENDCHAR
STARTCHAR 213d
ENCODING 8509
SWIDTH 1000 0
DWIDTH 18 0
BBX 18 18 0 -2
BITMAP
000000
000000
000000
000000
000000
000000
000000
000000
7fff80
000000
000000
000000
000000
000000
000000
000000
000000
000000
ENDCHAR
STARTCHAR 213e
ENCODING 8510
SWIDTH 1000 0
DWIDTH 18 0
BBX 18 18 0 -2
BITMAP
000000
000000
000000
000000
000000
000000
000000
000000
03f000
000000
000000
000000
000000
000000
000000
000000
000000
000000
ENDCHAR
STARTCHAR 213f
ENCODING 8511
SWIDTH 1000 0
DWIDTH 18 0
BBX 18 18 0 -2
BITMAP
000000
000080
000100
000200
000400
000800
001000
002000
004000
008000
010000
020000
040000
080000
100000
200000
400000
000000
ENDCHAR
STARTCHAR 2140
ENCODING 8512
SWIDTH 1000 0
DWIDTH 18 0
BBX 18 18 0 -2
BITMAP
000000
400000
200000
100000
080000
040000
020000
010000
008000
004000
002000
001000
000800
000400
000200
000100
000080
000000
ENDCHAR
STARTCHAR 2141
ENCODING 8513
SWIDTH 1000 0
DWIDTH 18 0
BBX 18 18 0 -2
BITMAP
000000
000000
000000
000000
000000
000000
000000
1e0000
218080
406100
001e00
000000
000000
000000
000000
000000
000000
000000
ENDCHAR
STARTCHAR 2142
ENCODING 8514
SWIDTH 1000 0
DWIDTH 18 0
BBX 18 18 0 -2
BITMAP
000000
022000
022000
022000
022000
022000
022000
022000
022000
022000
022000
022000
022000
022000
022000
022000
022000
000000
ENDCHAR
STARTCHAR 2143
ENCODING 8515
SWIDTH 1000 0
DWIDTH 18 0
BBX 18 18 0 -2
BITMAP
000000
008000
008000
008000
008000
008000
008000
008000
008000
008000
008000
008000
008000
008000
008000
008000
008000
000000
ENDCHAR
STARTCHAR 2144
ENCODING 8516
SWIDTH 1000 0
DWIDTH 18 0
BBX 18 18 0 -2
BITMAP
000000
000000
000000
000000
000000
000000
000000
000000
30c300
30c300
000000
000000
000000
000000
000000
000000
000000
000000
ENDCHAR
STARTCHAR 2145
ENCODING 8517
SWIDTH 1000 0
DWIDTH 18 0
BBX 18 18 0 -2
BITMAP
000000
000000
000000
000000
000000
000000
000000
000000
0c0c00
0c0c00
000000
000000
000000
000000
000000
000000
000000
000000
ENDCHAR
STARTCHAR 2146
ENCODING 8518
SWIDTH 1000 0
DWIDTH 18 0
BBX 18 18 0 -2
BITMAP
000000
000400
000800
000c00
000c00
000000
000000
000000
000000
000000
000000
000000
000000
000000
000000
000000
000000
000000
ENDCHAR
STARTCHAR 2147
ENCODING 8519
SWIDTH 1000 0
DWIDTH 18 0
BBX 18 18 0 -2
BITMAP
000000
0c0000
0c0000
040000
080000
000000
000000
000000
000000
000000
000000
000000
000000
000000
000000
000000
000000
000000
ENDCHAR
STARTCHAR 2148
ENCODING 8520
SWIDTH 1000 0
DWIDTH 18 0
BBX 18 18 0 -2
BITMAP
000000
001200
002400
003600
003600
000000
000000
000000
000000
000000
000000
000000
000000
000000
000000
000000
000000
000000
ENDCHAR
STARTCHAR 2149
ENCODING 8521
SWIDTH 1000 0
DWIDTH 18 0
BBX 18 18 0 -2
BITMAP
000000
1b0000
1b0000
090000
120000
000000
000000
000000
000000
000000
000000
000000
000000
000000
000000
000000
000000
000000
ENDCHAR
STARTCHAR 214a
ENCODING 8522
SWIDTH 1000 0
DWIDTH 18 0
BBX 18 18 0 -2
BITMAP
000000
000400
000800
001800
001000
003000
002000
002000
002000
002000
002000
002000
003000
001000
001800
000800
000400
000000
ENDCHAR
STARTCHAR 214b
ENCODING 8523
SWIDTH 1000 0
DWIDTH 18 0
BBX 18 18 0 -2
BITMAP
000000
080000
040000
060000
020000
030000
010000
010000
010000
010000
010000
010000
030000
020000
060000
040000
080000
000000
ENDCHAR
STARTCHAR 214c
ENCODING 8524
SWIDTH 1000 0
DWIDTH 18 0
BBX 18 18 0 -2
BITMAP
000000
000400
001800
006000
004000
004000
004000
004000
004000
004000
004000
004000
004000
004000
006000
001800
000400
000000
ENDCHAR
STARTCHAR 214d
ENCODING 8525
SWIDTH 1000 0
DWIDTH 18 0
BBX 18 18 0 -2
BITMAP
000000
080000
060000
018000
008000
008000
008000
008000
008000
008000
008000
008000
008000
008000
018000
060000
080000
000000
ENDCHAR
STARTCHAR 214e
ENCODING 8526
SWIDTH 1000 0
DWIDTH 18 0
BBX 18 18 0 -2
BITMAP
000000
007c00
004000
004000
004000
004000
004000
004000
004000
004000
004000
004000
004000
004000
004000
004000
007c00
000000
ENDCHAR
STARTCHAR 214f
ENCODING 8527
SWIDTH 1000 0
DWIDTH 18 0
BBX 18 18 0 -2
BITMAP
000000
0f8000
008000
008000
008000
008000
008000
008000
008000
008000
008000
008000
008000
008000
008000
008000
0f8000
000000
ENDCHAR
STARTCHAR 2150
ENCODING 8528
SWIDTH 1000 0
DWIDTH 18 0
BBX 18 18 0 -2
BITMAP
000000
000400
000800
001000
001000
001000
001000
001000
002000
001000
001000
001000
001000
001000
001000
000800
000400
000000
ENDCHAR
STARTCHAR 2151
ENCODING 8529
SWIDTH 1000 0
DWIDTH 18 0
BBX 18 18 0 -2
BITMAP
000000
080000
040000
020000
020000
020000
020000
020000
010000
020000
020000
020000
020000
020000
020000
040000
080000
000000
ENDCHAR
STARTCHAR 2152
ENCODING 8530
SWIDTH 1000 0
DWIDTH 18 0
BBX 18 18 0 -2
BITMAP
000000
000400
000800
000800
001000
002000
002000
004000
008000
008000
004000
002000
002000
001000
000800
000800
000400
000000
ENDCHAR
STARTCHAR 2153
ENCODING 8531
SWIDTH 1000 0
DWIDTH 18 0
BBX 18 18 0 -2
BITMAP
000000
080000
040000
040000
020000
010000
010000
008000
004000
004000
008000
010000
010000
020000
040000
040000
080000
000000
ENDCHAR
STARTCHAR 2154
ENCODING 8532
SWIDTH 1000 0
DWIDTH 18 0
BBX 18 18 0 -2
BITMAP
000000
000900
001200
001200
002400
004800
004800
009000
012000
012000
009000
004800
004800
002400
001200
001200
000900
000000
ENDCHAR
STARTCHAR 2155
ENCODING 8533
SWIDTH 1000 0
DWIDTH 18 0
BBX 18 18 0 -2
BITMAP
000000
240000
120000
120000
090000
048000
048000
024000
012000
012000
024000
048000
048000
090000
120000
120000
240000
000000
ENDCHAR
STARTCHAR 2156
ENCODING 8534
SWIDTH 1000 0
DWIDTH 18 0
BBX 18 18 0 -2
BITMAP
000000
007c00
004000
004000
004000
004000
004000
004000
004000
004000
004000
004000
000000
000000
000000
000000
000000
000000
ENDCHAR
STARTCHAR 2157
ENCODING 8535
SWIDTH 1000 0
DWIDTH 18 0
BBX 18 18 0 -2
BITMAP
000000
000000
000000
000000
000000
000000
008000
008000
008000
008000
008000
008000
008000
008000
008000
008000
0f8000
000000
ENDCHAR
STARTCHAR 2158
ENCODING 8536
SWIDTH 1000 0
DWIDTH 18 0
BBX 18 18 0 -2
BITMAP
000000
00fc00
008400
00bc00
00a000
00a000
00a000
00a000
00a000
00a000
00a000
00e000
000000
000000
000000
000000
000000
000000
ENDCHAR
STARTCHAR 2159
ENCODING 8537
SWIDTH 1000 0
DWIDTH 18 0
BBX 18 18 0 -2
BITMAP
000000
000000
000000
000000
000000
000000
01c000
014000
014000
014000
014000
014000
014000
014000
0f4000
084000
0fc000
000000
ENDCHAR
STARTCHAR 215a
ENCODING 8538
SWIDTH 1000 0
DWIDTH 18 0
BBX 18 18 0 -2
BITMAP
000000
007c00
007800
007000
006000
006000
004000
004000
004000
004000
004000
004000
006000
006000
007000
007800
007c00
000000
ENDCHAR
STARTCHAR 215b
ENCODING 8539
SWIDTH 1000 0
DWIDTH 18 0
BBX 18 18 0 -2
BITMAP
000000
0f8000
078000
038000
018000
018000
008000
008000
008000
008000
008000
008000
018000
018000
038000
078000
0f8000
000000
ENDCHAR
STARTCHAR 215c
ENCODING 8540
SWIDTH 1000 0
DWIDTH 18 0
BBX 18 18 0 -2
BITMAP
000000
000000
000000
008000
008000
008000
008000
008000
1ffe00
008000
008000
008000
008000
008000
008000
000000
000000
000000
ENDCHAR
STARTCHAR 215d
ENCODING 8541
SWIDTH 1000 0
DWIDTH 18 0
BBX 18 18 0 -2
BITMAP
000000
000000
000000
000000
000000
000000
000000
000000
1ffe00
000000
000000
000000
000000
000000
000000
000000
000000
000000
ENDCHAR
STARTCHAR 215e
ENCODING 8542
SWIDTH 1000 0
DWIDTH 18 0
BBX 18 18 0 -2
BITMAP
000000
000000
000000
008000
008000
008000
008000
1ffe00
008000
008000
008000
008000
000000
000000
1ffe00
000000
000000
000000
ENDCHAR
STARTCHAR 215f
ENCODING 8543
SWIDTH 1000 0
DWIDTH 18 0
BBX 18 18 0 -2
BITMAP
000000
000000
000000
000000
080400
040800
021000
012000
00c000
00c000
012000
021000
040800
080400
000000
000000
000000
000000
ENDCHAR
STARTCHAR 2160
ENCODING 8544
SWIDTH 1000 0
DWIDTH 18 0
BBX 18 18 0 -2
BITMAP
000000
000000
000000
000000
00c000
00c000
000000
000000
1ffe00
000000
000000
00c000
00c000
000000
000000
000000
000000
000000
ENDCHAR
STARTCHAR 2161
ENCODING 8545
SWIDTH 1000 0
DWIDTH 18 0
BBX 18 18 0 -2
BITMAP
000000
000000
000000
000000
000000
000000
1ffe00
000000
000000
000000
1ffe00
000000
000000
000000
000000
000000
000000
000000
ENDCHAR
STARTCHAR 2162
ENCODING 8546
SWIDTH 1000 0
DWIDTH 18 0
BBX 18 18 0 -2
BITMAP
000000
000000
000000
002000
002000
004000
1ffe00
004000
008000
008000
1ffe00
008000
010000
010000
000000
000000
000000
000000
ENDCHAR
STARTCHAR 2163
ENCODING 8547
SWIDTH 1000 0
DWIDTH 18 0
BBX 18 18 0 -2
BITMAP
000000
000000
000300
000c00
003000
00c000
030000
0c0000
300000
0c0000
020000
018000
006000
001000
000c00
000300
000000
000000
ENDCHAR
STARTCHAR 2164
ENCODING 8548
SWIDTH 1000 0
DWIDTH 18 0
BBX 18 18 0 -2
BITMAP
000000
000000
300000
0c0000
030000
00c000
003000
000c00
000300
000c00
001000
006000
018000
020000
0c0000
300000
000000
000000
ENDCHAR
STARTCHAR 2165
ENCODING 8549
SWIDTH 1000 0
DWIDTH 18 0
BBX 18 18 0 -2
BITMAP
000000
000000
000000
000e00
007000
038000
1c0000
038000
007000
000e00
000000
1ffe00
000000
000000
1ffe00
000000
000000
000000
ENDCHAR
STARTCHAR 2166
ENCODING 8550
SWIDTH 1000 0
DWIDTH 18 0
BBX 18 18 0 -2
BITMAP
000000
000000
000000
1c0000
038000
007000
000e00
007000
038000
1c0000
000000
1ffe00
000000
000000
1ffe00
000000
000000
000000
ENDCHAR
STARTCHAR 2167
ENCODING 8551
SWIDTH 1000 0
DWIDTH 18 0
BBX 18 18 0 -2
BITMAP
000000
000000
000000
000000
000000
0e1c00
112200
20c100
20c100
20c100
20c100
112200
0e1c00
000000
000000
000000
000000
000000
ENDCHAR
STARTCHAR 2168
ENCODING 8552
SWIDTH 1000 0
DWIDTH 18 0
BBX 18 18 0 -2
BITMAP
000000
000000
000000
000000
00c000
00c000
000000
000000
000000
000000
000000
000000
180600
180600
000000
000000
000000
000000
ENDCHAR
STARTCHAR 2169
ENCODING 8553
SWIDTH 1000 0
DWIDTH 18 0
BBX 18 18 0 -2
BITMAP
000000
000000
007f00
000300
000500
000900
001100
002100
0f4100
108000
204000
204000
204000
204000
108000
0f0000
000000
000000
ENDCHAR
STARTCHAR 216a
ENCODING 8554
SWIDTH 1000 0
DWIDTH 18 0
BBX 18 18 0 -2
BITMAP
000000
000000
01e000
021000
040800
040800
040800
040800
021000
01e000
008000
0ffc00
008000
008000
008000
008000
008000
000000
ENDCHAR
STARTCHAR 216b
ENCODING 8555
SWIDTH 1000 0
DWIDTH 18 0
BBX 18 18 0 -2
BITMAP
000000
000000
180000
240000
240000
180000
000000
000000
000000
000000
000000
000000
000000
000000
000000
000000
000000
000000
ENDCHAR
STARTCHAR 216c
ENCODING 8556
SWIDTH 1000 0
DWIDTH 18 0
BBX 18 18 0 -2
BITMAP
000000
000000
040000
0c0000
180000
100000
000000
000000
000000
000000
000000
000000
000000
000000
000000
000000
000000
000000
ENDCHAR
STARTCHAR 216d
ENCODING 8557
SWIDTH 1000 0
DWIDTH 18 0
BBX 18 18 0 -2
BITMAP
000000
000000
088000
198000
330000
220000
000000
000000
000000
000000
000000
000000
000000
000000
000000
000000
000000
000000
ENDCHAR
STARTCHAR 216e
ENCODING 8558
SWIDTH 1000 0
DWIDTH 18 0
BBX 18 18 0 -2
BITMAP
000000
000000
307900
498500
4b0300
320100
060100
040000
040000
040000
060000
020100
030300
018600
007800
000000
000000
000000
ENDCHAR
STARTCHAR 216f
ENCODING 8559
SWIDTH 1000 0
DWIDTH 18 0
BBX 18 18 0 -2
BITMAP
000000
000000
3e1f00
080400
080400
040800
3fff00
021000
022000
014000
3fff00
008000
008000
008000
008000
03e000
000000
000000
ENDCHAR
STARTCHAR 2170
ENCODING 8560
SWIDTH 1000 0
DWIDTH 18 0
BBX 18 18 0 -2
BITMAP
000000
000000
008000
03f000
049800
088c00
088000
048000
038000
00f000
008800
008400
088400
0c8800
07f000
008000
000000
000000
ENDCHAR
STARTCHAR 2171
ENCODING 8561
SWIDTH 1000 0
DWIDTH 18 0
BBX 18 18 0 -2
BITMAP
000000
000000
000000
000000
000000
000000
001000
01e000
023000
044800
044000
048000
048000
030800
01f000
020000
000000
000000
ENDCHAR
STARTCHAR 2172
ENCODING 8562
SWIDTH 1000 0
DWIDTH 18 0
BBX 18 18 0 -2
BITMAP
000000
000000
00f800
010400
020200
020000
020000
020000
020000
3ff800
010000
010000
1d0000
230100
22c200
1c3c00
000000
000000
ENDCHAR
STARTCHAR 2173
ENCODING 8563
SWIDTH 1000 0
DWIDTH 18 0
BBX 18 18 0 -2
BITMAP
000000
000000
1c0100
220200
220400
220800
221000
222000
1c4000
008e00
011100
021100
041100
081100
101100
200e00
000000
000000
ENDCHAR
STARTCHAR 2174
ENCODING 8564
SWIDTH 1000 0
DWIDTH 18 0
BBX 18 18 0 -2
BITMAP
000000
010800
010800
010800
010800
0ffe00
0ffe00
021000
021000
021000
021000
1ffc00
1ffc00
042000
042000
042000
042000
000000
ENDCHAR
STARTCHAR 2175
ENCODING 8565
SWIDTH 1000 0
DWIDTH 18 0
BBX 18 18 0 -2
BITMAP
000000
000000
078000
0c4000
084000
08c000
0d8000
073e00
060800
0f1800
199000
30f000
206000
20f100
119b00
0f0e00
000000
000000
ENDCHAR
STARTCHAR 2176
ENCODING 8566
SWIDTH 1000 0
DWIDTH 18 0
BBX 18 18 0 -2
BITMAP
000000
000000
000000
000000
000000
008000
0c9800
06b000
03e000
008000
03e000
06b000
0c9800
008000
000000
000000
000000
000000
ENDCHAR
STARTCHAR 2177
ENCODING 8567
SWIDTH 1000 0
DWIDTH 18 0
BBX 18 18 0 -2
BITMAP
000000
000000
000000
01e000
061800
080400
08d400
113200
122200
122200
126400
09b800
080200
060c00
01f000
000000
000000
000000
ENDCHAR
STARTCHAR 2178
ENCODING 8568
SWIDTH 1000 0
DWIDTH 18 0
BBX 18 18 0 -2
BITMAP
000000
000000
03e000
063800
061800
070000
03c000
067000
041800
060800
039800
00f000
003800
061800
071800
01f000
000000
000000
ENDCHAR
STARTCHAR 2179
ENCODING 8569
SWIDTH 1000 0
DWIDTH 18 0
BBX 18 18 0 -2
BITMAP
000000
000000
008000
014000
014000
022000
022000
3e3e00
100400
080800
041000
041000
088800
094800
163400
180c00
000000
000000
ENDCHAR
STARTCHAR 217a
ENCODING 8570
SWIDTH 1000 0
DWIDTH 18 0
BBX 18 18 0 -2
BITMAP
000000
000000
008000
008000
01c000
01c000
03e000
3ffe00
1ffc00
0ff800
07f000
07f000
0f7800
0e3800
1c1c00
100400
000000
000000
ENDCHAR
STARTCHAR 217b
ENCODING 8571
SWIDTH 1000 0
DWIDTH 18 0
BBX 18 18 0 -2
BITMAP
000000
000000
01e000
061800
080400
100200
100200
200100
200100
200100
200100
100200
100200
080400
061800
01e000
000000
000000
ENDCHAR
STARTCHAR 217c
ENCODING 8572
SWIDTH 1000 0
DWIDTH 18 0
BBX 18 18 0 -2
BITMAP
000000
000000
01e000
07f800
0ffc00
1ffe00
1ffe00
3fff00
3fff00
3fff00
3fff00
1ffe00
1ffe00
0ffc00
07f800
01e000
000000
000000
ENDCHAR
STARTCHAR 217d
ENCODING 8573
SWIDTH 1000 0
DWIDTH 18 0
BBX 18 18 0 -2
BITMAP
000000
000000
01e000
061800
080400
11e200
121200
240900
240900
240900
240900
121200
11e200
080400
061800
01e000
000000
000000
ENDCHAR
STARTCHAR 217e
ENCODING 8574
SWIDTH 1000 0
DWIDTH 18 0
BBX 18 18 0 -2
BITMAP
000000
00c000
012000
021000
040800
080400
100200
200100
400080
400080
200100
100200
080400
040800
021000
012000
00c000
000000
ENDCHAR
STARTCHAR 2221
ENCODING 8737
SWIDTH 1000 0
DWIDTH 18 0
BBX 18 18 0 -2
BITMAP
000000
00c000
01e000
03f000
07f800
0ffc00
1ffe00
3fff00
7fff80
7fff80
3fff00
1ffe00
0ffc00
07f800
03f000
01e000
00c000
000000
ENDCHAR
STARTCHAR 2222
ENCODING 8738
SWIDTH 1000 0
DWIDTH 18 0
BBX 18 18 0 -2
BITMAP
000000
000000
3fff00
200100
200100
200100
200100
200100
200100
200100
200100
200100
200100
200100
200100
3fff00
000000
000000
ENDCHAR
STARTCHAR 2223
ENCODING 8739
SWIDTH 1000 0
DWIDTH 18 0
BBX 18 18 0 -2
BITMAP
000000
000000
3fff00
3fff00
3fff00
3fff00
3fff00
3fff00
3fff00
3fff00
3fff00
3fff00
3fff00
3fff00
3fff00
3fff00
000000
000000
ENDCHAR
STARTCHAR 2224
ENCODING 8740
SWIDTH 1000 0
DWIDTH 18 0
BBX 18 18 0 -2
BITMAP
000000
000000
000000
008000
014000
014000
022000
022000
041000
040800
080800
080400
100400
100200
3fff00
000000
000000
000000
ENDCHAR
STARTCHAR 2225
ENCODING 8741
SWIDTH 1000 0
DWIDTH 18 0
BBX 18 18 0 -2
BITMAP
000000
000000
000000
008000
01c000
01c000
03e000
03f000
07f000
07f800
0ff800
0ffc00
1ffe00
1ffe00
3fff00
000000
000000
000000
ENDCHAR
STARTCHAR 2226
ENCODING 8742
SWIDTH 1000 0
DWIDTH 18 0
BBX 18 18 0 -2
BITMAP
000000
000000
000000
3fff00
100200
100400
080400
080800
040800
041000
022000
022000
014000
014000
008000
000000
000000
000000
ENDCHAR
STARTCHAR 2227
ENCODING 8743
SWIDTH 1000 0
DWIDTH 18 0
BBX 18 18 0 -2
BITMAP
000000
000000
000000
3fff00
1ffe00
1ffe00
0ffc00
0ff800
07f800
07f000
03f000
03e000
01c000
01c000
008000
000000
000000
000000
ENDCHAR
STARTCHAR 2228
ENCODING 8744
SWIDTH 1000 0
DWIDTH 18 0
BBX 18 18 0 -2
BITMAP
000000
000000
000000
10c200
08c400
040800
021000
012000
18c600
18c600
012000
021000
040800
08c400
10c200
000000
000000
000000
ENDCHAR
STARTCHAR 2229
ENCODING 8745
SWIDTH 1000 0
DWIDTH 18 0
BBX 18 18 0 -2
BITMAP
000000
000000
3fff00
3fff00
000000
000000
3fff00
3fff00
00c000
00c000
00c000
00c000
00c000
00c000
00c000
00c000
000000
000000
ENDCHAR
STARTCHAR 222a
ENCODING 8746
SWIDTH 1000 0
DWIDTH 18 0
BBX 18 18 0 -2
BITMAP
000000
000000
000000
000000
000000
000000
000400
000200
7fff80
000200
000400
000000
000000
000000
000000
000000
000000
000000
ENDCHAR
STARTCHAR 222b
ENCODING 8747
SWIDTH 1000 0
DWIDTH 18 0
BBX 18 18 0 -2
BITMAP
000000
000000
000000
000000
000000
000000
080000
100000
7fff80
100000
080000
000000
000000
000000
000000
000000
000000
000000
ENDCHAR
STARTCHAR 222c
ENCODING 8748
SWIDTH 1000 0
DWIDTH 18 0
BBX 18 18 0 -2
BITMAP
000000
008000
008000
01c000
02a000
008000
008000
008000
008000
008000
008000
008000
008000
008000
008000
008000
008000
000000
ENDCHAR
STARTCHAR 222d
ENCODING 8749
SWIDTH 1000 0
DWIDTH 18 0
BBX 18 18 0 -2
BITMAP
000000
008000
008000
008000
008000
008000
008000
008000
008000
008000
008000
008000
008000
02a000
01c000
008000
008000
000000
ENDCHAR
STARTCHAR 222e
ENCODING 8750
SWIDTH 1000 0
DWIDTH 18 0
BBX 18 18 0 -2
BITMAP
000000
000000
000000
3fff00
3fff00
3fff00
3fff00
000000
000000
000000
3fff00
3fff00
3fff00
3fff00
000000
000000
000000
000000
ENDCHAR
STARTCHAR 223a
ENCODING 8762
SWIDTH 1000 0
DWIDTH 18 0
BBX 18 18 0 -2
BITMAP
000000
000000
000000
000000
03fc00
040000
080000
080000
0ffc00
080000
080000
040000
03fc00
000000
000000
000000
000000
000000
ENDCHAR
STARTCHAR 223b
ENCODING 8763
SWIDTH 1000 0
DWIDTH 18 0
BBX 18 18 0 -2
BITMAP
000000
000000
000000
000000
0ff000
000800
000400
000400
0ffc00
000400
000400
000800
0ff000
000000
000000
000000
000000
000000
ENDCHAR
STARTCHAR 223c
ENCODING 8764
SWIDTH 1000 0
DWIDTH 18 0
BBX 18 18 0 -2
BITMAP
000000
000000
000000
07fe00
080000
100000
100000
100000
100000
080000
07fe00
000000
000000
1ffe00
000000
000000
000000
000000
ENDCHAR
STARTCHAR 223d
ENCODING 8765
SWIDTH 1000 0
DWIDTH 18 0
BBX 18 18 0 -2
BITMAP
000000
000000
000000
1ff800
000400
000200
000200
000200
000200
000400
1ff800
000000
000000
1ffe00
000000
000000
000000
000000
ENDCHAR
STARTCHAR 223e
ENCODING 8766
SWIDTH 1000 0
DWIDTH 18 0
BBX 18 18 0 -2
BITMAP
000000
000000
000000
000000
03fe00
040000
080000
100000
100000
100000
100000
080000
040000
03fe00
000000
000000
000000
000000
ENDCHAR
STARTCHAR 223f
ENCODING 8767
SWIDTH 1000 0
DWIDTH 18 0
BBX 18 18 0 -2
BITMAP
000000
000000
000000
000000
1ff000
000800
000400
000200
000200
000200
000200
000400
000800
1ff000
000000
000000
000000
000000
ENDCHAR
STARTCHAR 2240
ENCODING 8768
SWIDTH 1000 0
DWIDTH 18 0
BBX 18 18 0 -2
BITMAP
000000
000000
000000
080400
080400
080400
080400
080400
080400
080400
080400
080400
040800
021000
01e000
000000
000000
000000
ENDCHAR
STARTCHAR 2241
ENCODING 8769
SWIDTH 1000 0
DWIDTH 18 0
BBX 18 18 0 -2
BITMAP
000000
000000
000000
01e000
021000
040800
080400
080400
080400
080400
080400
080400
080400
080400
080400
000000
000000
000000
ENDCHAR
STARTCHAR 224a
ENCODING 8778
SWIDTH 1000 0
DWIDTH 18 0
BBX 18 18 0 -2
BITMAP
000000
000000
000000
008000
008000
014000
014000
022000
022000
041000
041000
080800
080800
100400
100400
000000
000000
000000
ENDCHAR
STARTCHAR 224b
ENCODING 8779
SWIDTH 1000 0
DWIDTH 18 0
BBX 18 18 0 -2
BITMAP
000000
000000
000000
100400
100400
080800
080800
041000
041000
022000
022000
014000
014000
008000
008000
000000
000000
000000
ENDCHAR
STARTCHAR 224c
ENCODING 8780
SWIDTH 1000 0
DWIDTH 18 0
BBX 18 18 0 -2
BITMAP
000000
000000
000000
000000
000000
000000
000000
1ffe00
000200
000200
000200
000200
000000
000000
000000
000000
000000
000000
ENDCHAR
STARTCHAR 224d
ENCODING 8781
SWIDTH 1000 0
DWIDTH 18 0
BBX 18 18 0 -2
BITMAP
000000
000000
000000
000000
000800
000400
7ffe00
000100
000080
000100
7ffe00
000400
000800
000000
000000
000000
000000
000000
ENDCHAR
STARTCHAR 224e
ENCODING 8782
SWIDTH 1000 0
DWIDTH 18 0
BBX 18 18 0 -2
BITMAP
000000
000000
000000
000000
040800
080400
1ffe00
200100
400080
200100
1ffe00
080400
040800
000000
000000
000000
000000
000000
ENDCHAR
STARTCHAR 224f
ENCODING 8783
SWIDTH 1000 0
DWIDTH 18 0
BBX 18 18 0 -2
BITMAP
000000
000000
200200
200200
100400
100400
0ff800
080800
041000
041000
022000
022000
014000
014000
008000
008000
000000
000000
ENDCHAR
STARTCHAR 2250
ENCODING 8784
SWIDTH 1000 0
DWIDTH 18 0
BBX 18 18 0 -2
BITMAP
000000
000000
000000
0ff800
000800
000800
000800
000800
0ff800
000800
000800
000800
000800
0ff800
000000
000000
000000
000000
ENDCHAR
STARTCHAR 225c
ENCODING 8796
SWIDTH 1000 0
DWIDTH 18 0
BBX 18 18 0 -2
BITMAP
000000
000000
000000
000400
000800
001000
002000
004000
008000
010000
020000
040000
080000
1ffe00
000000
000000
000000
000000
ENDCHAR
STARTCHAR 225d
ENCODING 8797
SWIDTH 1000 0
DWIDTH 18 0
BBX 18 18 0 -2
BITMAP
000000
000000
000000
008000
008000
008000
008000
008000
008000
008000
008000
008000
008000
1ffe00
000000
000000
000000
000000
ENDCHAR
STARTCHAR 225e
ENCODING 8798
SWIDTH 1000 0
DWIDTH 18 0
BBX 18 18 0 -2
BITMAP
000000
03f000
1c0e00
600180
000000
000000
000000
000000
000000
000000
000000
000000
000000
000000
000000
000000
000000
000000
ENDCHAR
STARTCHAR 225f
ENCODING 8799
SWIDTH 1000 0
DWIDTH 18 0
BBX 18 18 0 -2
BITMAP
000000
000000
00f000
019800
020800
000800
000800
01d800
023000
041000
0c3000
082000
086000
0cc000
078000
000000
000000
000000
ENDCHAR
STARTCHAR 2260
ENCODING 8800
SWIDTH 1000 0
DWIDTH 18 0
BBX 18 18 0 -2
BITMAP
000000
000000
3fff00
180200
180600
0c0400
0c0c00
060800
061800
031000
033000
01a000
01e000
00c000
00c000
000000
000000
000000
ENDCHAR
STARTCHAR 2261
ENCODING 8801
SWIDTH 1000 0
DWIDTH 18 0
BBX 18 18 0 -2
BITMAP
000000
000000
000000
000000
1ffe00
000000
000000
000000
1ffe00
000000
000000
000000
1ffe00
000000
000000
000000
000000
000000
ENDCHAR
STARTCHAR 2262
ENCODING 8802
SWIDTH 1000 0
DWIDTH 18 0
BBX 18 18 0 -2
BITMAP
000000
000000
000000
0c0000
0c0000
000000
1ffe00
000000
000000
000000
1ffe00
000000
000c00
000c00
000000
000000
000000
000000
ENDCHAR
STARTCHAR 2263
ENCODING 8803
SWIDTH 1000 0
DWIDTH 18 0
BBX 18 18 0 -2
BITMAP
000000
000000
002100
004200
018c00
021000
0c6000
108000
210000
108000
084000
042000
031800
008400
004200
002100
000000
000000
ENDCHAR
STARTCHAR 2264
ENCODING 8804
SWIDTH 1000 0
DWIDTH 18 0
BBX 18 18 0 -2
BITMAP
000000
000000
210000
108000
0c6000
021000
018c00
004200
002100
004200
008400
010800
063000
084000
108000
210000
000000
000000
ENDCHAR
STARTCHAR 2265
ENCODING 8805
SWIDTH 1000 0
DWIDTH 18 0
BBX 18 18 0 -2
BITMAP
000000
007f80
004000
004000
008000
008000
008000
008000
010000
010000
010000
110000
3a0000
5a0000
0e0000
0c0000
040000
000000
ENDCHAR
STARTCHAR 2266
ENCODING 8806
SWIDTH 1000 0
DWIDTH 18 0
BBX 18 18 0 -2
BITMAP
000000
000000
000000
000000
000000
0e1c00
102200
204100
204100
208100
208100
110200
0e1c00
000000
000000
000000
000000
000000
ENDCHAR
STARTCHAR 2267
ENCODING 8807
SWIDTH 1000 0
DWIDTH 18 0
BBX 18 18 0 -2
BITMAP
000000
000000
000000
000000
000000
0e1c00
112200
20c000
20c000
20c000
20c000
112200
0e1c00
000000
000000
000000
000000
000000
ENDCHAR
STARTCHAR 2268
ENCODING 8808
SWIDTH 1000 0
DWIDTH 18 0
BBX 18 18 0 -2
BITMAP
000000
000000
000000
000000
180600
180600
000000
000000
000000
000000
000000
000000
00c000
00c000
000000
000000
000000
000000
ENDCHAR
STARTCHAR 2269
ENCODING 8809
SWIDTH 1000 0
DWIDTH 18 0
BBX 18 18 0 -2
BITMAP
000000
00e000
012000
010000
010000
018000
018000
008000
00c000
00c000
004000
006000
006000
002000
002000
012000
01c000
000000
ENDCHAR
STARTCHAR 226a
ENCODING 8810
SWIDTH 1000 0
DWIDTH 18 0
BBX 18 18 0 -2
BITMAP
000000
071c00
092400
082000
082000
0c3000
0c3000
041000
061800
061800
020800
030c00
030c00
010400
010400
092400
0e3800
000000
ENDCHAR
STARTCHAR 2272
ENCODING 8818
SWIDTH 1000 0
DWIDTH 18 0
BBX 18 18 0 -2
BITMAP
000000
00c000
012000
012000
00c000
000000
00c000
00c000
012000
012000
021000
07f800
040800
080400
3e1f00
000000
000000
000000
ENDCHAR
STARTCHAR 2273
ENCODING 8819
SWIDTH 1000 0
DWIDTH 18 0
BBX 18 18 0 -2
BITMAP
000000
000000
182000
242000
244000
248000
248000
250000
1a0000
02c600
052900
092900
092900
112900
212900
20c600
000000
000000
ENDCHAR
STARTCHAR 2274
ENCODING 8820
SWIDTH 1000 0
DWIDTH 18 0
BBX 18 18 0 -2
BITMAP
000000
001000
021000
021000
021e00
03fe00
1ff000
1e1000
021000
021000
021e00
03fe00
1ff000
1e1000
021000
021000
020000
000000
ENDCHAR
STARTCHAR 2275
ENCODING 8821
SWIDTH 1000 0
DWIDTH 18 0
BBX 18 18 0 -2
BITMAP
000000
020000
020000
020000
020000
020000
020000
02f000
031800
021800
021800
021800
023000
026000
028000
030000
020000
000000
ENDCHAR
STARTCHAR 2276
ENCODING 8822
SWIDTH 1000 0
DWIDTH 18 0
BBX 18 18 0 -2
BITMAP
000000
004000
004000
006000
007000
005800
004c00
004600
004200
004200
004400
004800
004000
07c000
0fc000
0f8000
070000
000000
ENDCHAR
STARTCHAR 2277
ENCODING 8823
SWIDTH 1000 0
DWIDTH 18 0
BBX 18 18 0 -2
BITMAP
000000
008000
01c000
049000
0ff800
049000
008000
03e000
01c000
01c000
01c000
01c000
01c000
008000
008000
008000
008000
000000
ENDCHAR
STARTCHAR 2278
ENCODING 8824
SWIDTH 1000 0
DWIDTH 18 0
BBX 18 18 0 -2
BITMAP
000000
008000
01c000
049000
0ff800
049000
01c000
01c000
008000
008000
01c000
01c000
049000
0ff800
049000
01c000
008000
000000
ENDCHAR
STARTCHAR 2279
ENCODING 8825
SWIDTH 1000 0
DWIDTH 18 0
BBX 18 18 0 -2
BITMAP
000000
000000
03f000
079000
0f9000
0f9000
0f9000
079000
039000
009000
009000
009000
009000
009000
009000
009000
009000
000000
ENDCHAR
STARTCHAR 227e
ENCODING 8830
SWIDTH 1000 0
DWIDTH 18 0
BBX 18 18 0 -2
BITMAP
000000
01e000
061800
080400
100200
200100
200100
400080
400080
400080
400080
200100
200100
100200
080400
061800
01e000
000000
ENDCHAR
STARTCHAR 2330
ENCODING 9008
SWIDTH 1000 0
DWIDTH 18 0
BBX 18 18 0 -2
BITMAP
000000
000000
01e000
021000
040800
040800
0c0c00
080400
080400
080400
080400
0c0c00
040800
040800
021000
01e000
000000
000000
ENDCHAR
STARTCHAR 2331
ENCODING 9009
SWIDTH 1000 0
DWIDTH 18 0
BBX 18 18 0 -2
BITMAP
000000
000000
008000
018000
028000
048000
008000
008000
008000
008000
008000
008000
008000
008000
008000
03e000
000000
000000
ENDCHAR
STARTCHAR 2332
ENCODING 9010
SWIDTH 1000 0
DWIDTH 18 0
BBX 18 18 0 -2
BITMAP
000000
000000
03f000
060800
0c0400
080400
000400
000c00
001800
003000
006000
00c000
018000
030000
060000
0ffc00
000000
000000
ENDCHAR
STARTCHAR 2333
ENCODING 9011
SWIDTH 1000 0
DWIDTH 18 0
BBX 18 18 0 -2
BITMAP
000000
000000
01f000
070800
0c0400
000400
000400
000800
03f000
000800
000400
000400
000400
000c00
003800
0fe000
000000
000000
ENDCHAR
STARTCHAR 2334
ENCODING 9012
SWIDTH 1000 0
DWIDTH 18 0
BBX 18 18 0 -2
BITMAP
000000
000000
003000
007000
00d000
019000
031000
061000
0c1000
181000
101000
1ffe00
001000
001000
001000
007c00
000000
000000
ENDCHAR
STARTCHAR 2335
ENCODING 9013
SWIDTH 1000 0
DWIDTH 18 0
BBX 18 18 0 -2
BITMAP
000000
000000
0ffc00
080000
080000
080000
080000
0bf000
0c0800
080400
000400
000400
000c00
001800
007000
0fc000
000000
000000
ENDCHAR
STARTCHAR 2336
ENCODING 9014
SWIDTH 1000 0
DWIDTH 18 0
BBX 18 18 0 -2
BITMAP
000000
000000
007800
01c000
030000
060000
040000
0de000
0a1800
0c0c00
080400
080400
0c0400
040c00
061800
01e000
000000
000000
ENDCHAR
STARTCHAR 2337
ENCODING 9015
SWIDTH 1000 0
DWIDTH 18 0
BBX 18 18 0 -2
BITMAP
000000
000000
0ffe00
080400
080c00
080800
001800
001000
003000
002000
006000
004000
004000
00c000
008000
008000
000000
000000
ENDCHAR
STARTCHAR 2338
ENCODING 9016
SWIDTH 1000 0
DWIDTH 18 0
BBX 18 18 0 -2
BITMAP
000000
000000
01e000
061800
0c0c00
080400
080400
040800
03f000
040800
080400
080400
080400
0c0c00
061800
01e000
000000
000000
ENDCHAR
STARTCHAR 2339
ENCODING 9017
SWIDTH 1000 0
DWIDTH 18 0
BBX 18 18 0 -2
BITMAP
000000
000000
01e000
061800
0c0800
080c00
080400
080400
0c0c00
061400
01ec00
000800
001800
003000
00e000
078000
000000
000000
ENDCHAR
STARTCHAR 2341
ENCODING 9025
SWIDTH 1000 0
DWIDTH 18 0
BBX 18 18 0 -2
BITMAP
000000
000000
008000
01c000
014000
036000
022000
063000
041000
07f000
0c1800
080800
180c00
100400
7c1f00
000000
000000
000000
ENDCHAR
STARTCHAR 2342
ENCODING 9026
SWIDTH 1000 0
DWIDTH 18 0
BBX 18 18 0 -2
BITMAP
000000
000000
1ff000
040800
040400
040400
040400
040800
07f000
040c00
040200
040200
040200
040400
1ff800
000000
000000
000000
ENDCHAR
STARTCHAR 2343
ENCODING 9027
SWIDTH 1000 0
DWIDTH 18 0
BBX 18 18 0 -2
BITMAP
000000
000000
01e400
061400
0c0c00
080400
180400
100000
100000
100000
180000
080400
0c0c00
061800
01e000
000000
000000
000000
ENDCHAR
STARTCHAR 2344
ENCODING 9028
SWIDTH 1000 0
DWIDTH 18 0
BBX 18 18 0 -2
BITMAP
000000
000000
1fe000
041800
040c00
040400
040600
040200
040200
040200
040600
040400
040c00
041800
1fe000
000000
000000
000000
ENDCHAR
STARTCHAR 2345
ENCODING 9029
SWIDTH 1000 0
DWIDTH 18 0
BBX 18 18 0 -2
BITMAP
000000
000000
1ffc00
040400
040200
040000
042000
042000
07e000
042000
042000
040000
040200
040400
1ffc00
000000
000000
000000
ENDCHAR
STARTCHAR 2346
ENCODING 9030
SWIDTH 1000 0
DWIDTH 18 0
BBX 18 18 0 -2
BITMAP
000000
000000
0ffe00
020200
020200
020000
021000
021000
03f000
021000
021000
020000
020000
020000
0f8000
000000
000000
000000
ENDCHAR
STARTCHAR 2347
ENCODING 9031
SWIDTH 1000 0
DWIDTH 18 0
BBX 18 18 0 -2
BITMAP
000000
000000
01e400
061c00
0c0400
080400
180000
100000
100000
101f00
180400
080400
0c0c00
061400
01e400
000000
000000
000000
ENDCHAR
STARTCHAR 2348
ENCODING 9032
SWIDTH 1000 0
DWIDTH 18 0
BBX 18 18 0 -2
BITMAP
000000
000000
3e1f00
080400
080400
080400
080400
080400
0ffc00
080400
080400
080400
080400
080400
3e1f00
000000
000000
000000
ENDCHAR
STARTCHAR 2349
ENCODING 9033
SWIDTH 1000 0
DWIDTH 18 0
BBX 18 18 0 -2
BITMAP
000000
000000
03e000
008000
008000
008000
008000
008000
008000
008000
008000
008000
008000
008000
03e000
000000
000000
000000
ENDCHAR
STARTCHAR 234a
ENCODING 9034
SWIDTH 1000 0
DWIDTH 18 0
BBX 18 18 0 -2
BITMAP
000000
000000
007c00
001000
001000
001000
001000
001000
001000
001000
001000
001000
081000
0c2000
07c000
000000
000000
000000
ENDCHAR
STARTCHAR 234b
ENCODING 9035
SWIDTH 1000 0
DWIDTH 18 0
BBX 18 18 0 -2
BITMAP
000000
000000
1f3e00
041800
043000
046000
04c000
058000
078000
04c000
046000
043000
041800
040c00
1f1f00
000000
000000
000000
ENDCHAR
STARTCHAR 234c
ENCODING 9036
SWIDTH 1000 0
DWIDTH 18 0
BBX 18 18 0 -2
BITMAP
000000
000000
0f8000
020000
020000
020000
020000
020000
020000
020000
020000
020200
020200
020200
0ffe00
000000
000000
000000
ENDCHAR
STARTCHAR 234d
ENCODING 9037
SWIDTH 1000 0
DWIDTH 18 0
BBX 18 18 0 -2
BITMAP
000000
000000
780f00
180c00
1c1c00
141400
141400
163400
122400
122400
136400
114400
11c400
108400
788f00
000000
000000
000000
ENDCHAR
STARTCHAR 234e
ENCODING 9038
SWIDTH 1000 0
DWIDTH 18 0
BBX 18 18 0 -2
BITMAP
000000
000000
3c1f00
0e0400
0a0400
0b0400
098400
088400
08c400
086400
082400
083400
081c00
080c00
3c0400
000000
000000
000000
ENDCHAR
STARTCHAR 234f
ENCODING 9039
SWIDTH 1000 0
DWIDTH 18 0
BBX 18 18 0 -2
BITMAP
000000
000000
01e000
061800
0c0c00
080400
180600
100200
100200
100200
180600
080400
0c0c00
061800
01e000
000000
000000
000000
ENDCHAR
STARTCHAR 2350
ENCODING 9040
SWIDTH 1000 0
DWIDTH 18 0
BBX 18 18 0 -2
BITMAP
000000
000000
0ff800
020400
020200
020200
020200
020400
03f800
020000
020000
020000
020000
020000
0f8000
000000
000000
000000
ENDCHAR
STARTCHAR 2351
ENCODING 9041
SWIDTH 1000 0
DWIDTH 18 0
BBX 18 18 0 -2
BITMAP
000000
000000
01e000
061800
0c0c00
080400
180600
100200
100200
100200
180600
08c400
0d2c00
061800
01e900
000600
000000
000000
ENDCHAR
STARTCHAR 2352
ENCODING 9042
SWIDTH 1000 0
DWIDTH 18 0
BBX 18 18 0 -2
BITMAP
000000
000000
1ff000
040800
040400
040400
040400
040800
07f000
041000
041800
040800
040c00
040400
1f1f00
000000
000000
000000
ENDCHAR
STARTCHAR 2353
ENCODING 9043
SWIDTH 1000 0
DWIDTH 18 0
BBX 18 18 0 -2
BITMAP
000000
000000
03e400
041400
080c00
080400
080400
060000
01e000
001800
080400
080400
0c0400
0a0800
09f000
000000
000000
000000
ENDCHAR
STARTCHAR 2354
ENCODING 9044
SWIDTH 1000 0
DWIDTH 18 0
BBX 18 18 0 -2
BITMAP
000000
000000
3ffe00
208200
208200
008000
008000
008000
008000
008000
008000
008000
008000
008000
03e000
000000
000000
000000
ENDCHAR
STARTCHAR 2355
ENCODING 9045
SWIDTH 1000 0
DWIDTH 18 0
BBX 18 18 0 -2
BITMAP
000000
000000
3e1f00
080400
080400
080400
080400
080400
080400
080400
080400
080400
0c0c00
061800
01e000
000000
000000
000000
ENDCHAR
STARTCHAR 2356
ENCODING 9046
SWIDTH 1000 0
DWIDTH 18 0
BBX 18 18 0 -2
BITMAP
000000
000000
3e1f00
080400
0c0c00
040800
041800
061000
021000
023000
032000
016000
014000
01c000
008000
000000
000000
000000
ENDCHAR
STARTCHAR 2357
ENCODING 9047
SWIDTH 1000 0
DWIDTH 18 0
BBX 18 18 0 -2
BITMAP
000000
000000
7ccf80
10c200
10c200
11e200
192600
092400
0b3400
0a1400
0a1400
0e1c00
061800
040800
040800
000000
000000
000000
ENDCHAR
STARTCHAR 2358
ENCODING 9048
SWIDTH 1000 0
DWIDTH 18 0
BBX 18 18 0 -2
BITMAP
000000
000000
3e3e00
080800
0c1800
063000
036000
01c000
008000
01c000
036000
063000
0c1800
080800
3c3e00
000000
000000
000000
ENDCHAR
STARTCHAR 2359
ENCODING 9049
SWIDTH 1000 0
DWIDTH 18 0
BBX 18 18 0 -2
BITMAP
000000
000000
3e3e00
080800
0c1800
041000
063000
022000
036000
01c000
008000
008000
008000
008000
03e000
000000
000000
000000
ENDCHAR
STARTCHAR 235a
ENCODING 9050
SWIDTH 1000 0
DWIDTH 18 0
BBX 18 18 0 -2
BITMAP
000000
000000
0ffc00
081800
083000
002000
006000
00c000
008000
018000
030000
020000
060400
0c0400
1ffc00
000000
000000
000000
ENDCHAR
STARTCHAR 2361
ENCODING 9057
SWIDTH 1000 0
DWIDTH 18 0
BBX 18 18 0 -2
BITMAP
000000
000000
000000
000000
000000
000000
000000
03e000
041000
001000
03f000
041000
041000
043400
03cc00
000000
000000
000000
ENDCHAR
STARTCHAR 2362
ENCODING 9058
SWIDTH 1000 0
DWIDTH 18 0
BBX 18 18 0 -2
BITMAP
000000
000000
0e0000
020000
020000
020000
020000
02f000
030800
020400
020400
020400
020400
030800
02f000
000000
000000
000000
ENDCHAR
STARTCHAR 2363
ENCODING 9059
SWIDTH 1000 0
DWIDTH 18 0
BBX 18 18 0 -2
BITMAP
000000
000000
000000
000000
000000
000000
000000
01f000
020800
040000
040000
040000
040000
020800
01f000
000000
000000
000000
ENDCHAR
STARTCHAR 2364
ENCODING 9060
SWIDTH 1000 0
DWIDTH 18 0
BBX 18 18 0 -2
BITMAP
000000
000000
007000
001000
001000
001000
001000
03d000
043000
081000
081000
081000
081000
043000
03dc00
000000
000000
000000
ENDCHAR
STARTCHAR 2365
ENCODING 9061
SWIDTH 1000 0
DWIDTH 18 0
BBX 18 18 0 -2
BITMAP
000000
000000
000000
000000
000000
000000
000000
01e000
021000
040800
07f800
040000
040000
020800
01f000
000000
000000
000000
ENDCHAR
STARTCHAR 2366
ENCODING 9062
SWIDTH 1000 0
DWIDTH 18 0
BBX 18 18 0 -2
BITMAP
000000
000000
003800
004400
008000
008000
008000
07f000
008000
008000
008000
008000
008000
008000
03e000
000000
000000
000000
ENDCHAR
STARTCHAR 2367
ENCODING 9063
SWIDTH 1000 0
DWIDTH 18 0
BBX 18 18 0 -2
BITMAP
000000
000000
000000
000000
000000
000000
000000
03ec00
041000
041000
041000
03e000
040000
07f800
080400
080400
07f800
000000
ENDCHAR
STARTCHAR 2368
ENCODING 9064
SWIDTH 1000 0
DWIDTH 18 0
BBX 18 18 0 -2
BITMAP
000000
000000
0e0000
020000
020000
020000
020000
02f000
031800
020800
020800
020800
020800
020800
0f1e00
000000
000000
000000
ENDCHAR
STARTCHAR 2369
ENCODING 9065
SWIDTH 1000 0
DWIDTH 18 0
BBX 18 18 0 -2
BITMAP
000000
000000
000000
00c000
00c000
000000
000000
01c000
004000
004000
004000
004000
004000
004000
01f000
000000
000000
000000
ENDCHAR
STARTCHAR 236a
ENCODING 9066
SWIDTH 1000 0
DWIDTH 18 0
BBX 18 18 0 -2
BITMAP
000000
000000
000000
006000
006000
000000
000000
00e000
002000
002000
002000
002000
002000
002000
002000
084000
078000
000000
ENDCHAR
STARTCHAR 236b
ENCODING 9067
SWIDTH 1000 0
DWIDTH 18 0
BBX 18 18 0 -2
BITMAP
000000
000000
1c0000
040000
040000
040000
040000
047c00
043000
04c000
070000
048000
046000
041800
1f3e00
000000
000000
000000
ENDCHAR
STARTCHAR 236c
ENCODING 9068
SWIDTH 1000 0
DWIDTH 18 0
BBX 18 18 0 -2
BITMAP
000000
000000
038000
008000
008000
008000
008000
008000
008000
008000
008000
008000
008000
008000
03e000
000000
000000
000000
ENDCHAR
STARTCHAR 236d
ENCODING 9069
SWIDTH 1000 0
DWIDTH 18 0
BBX 18 18 0 -2
BITMAP
000000
000000
000000
000000
000000
000000
000000
1b9c00
0c6200
084200
084200
084200
084200
084200
1ce700
000000
000000
000000
ENDCHAR
STARTCHAR 236e
ENCODING 9070
SWIDTH 1000 0
DWIDTH 18 0
BBX 18 18 0 -2
BITMAP
000000
000000
000000
000000
000000
000000
000000
0ef000
031800
020800
020800
020800
020800
020800
0f1e00
000000
000000
000000
ENDCHAR
STARTCHAR 236f
ENCODING 9071
SWIDTH 1000 0
DWIDTH 18 0
BBX 18 18 0 -2
BITMAP
000000
000000
000000
000000
000000
000000
000000
01e000
021000
040800
040800
040800
040800
021000
01e000
000000
000000
000000
ENDCHAR
STARTCHAR 2370
ENCODING 9072
SWIDTH 1000 0
DWIDTH 18 0
BBX 18 18 0 -2
BITMAP
000000
000000
000000
000000
000000
000000
000000
0ef000
030800
020400
020400
020400
030800
02f000
020000
020000
0f8000
000000
ENDCHAR
STARTCHAR 2371
ENCODING 9073
SWIDTH 1000 0
DWIDTH 18 0
BBX 18 18 0 -2
BITMAP
000000
000000
000000
000000
000000
000000
000000
03d000
043000
081000
081000
081000
043000
03d000
001000
001000
007c00
000000
ENDCHAR
STARTCHAR 2372
ENCODING 9074
SWIDTH 1000 0
DWIDTH 18 0
BBX 18 18 0 -2
BITMAP
000000
000000
000000
000000
000000
000000
000000
073800
014800
018000
010000
010000
010000
010000
07c000
000000
000000
000000
ENDCHAR
STARTCHAR 2373
ENCODING 9075
SWIDTH 1000 0
DWIDTH 18 0
BBX 18 18 0 -2
BITMAP
000000
000000
000000
000000
000000
000000
000000
03e800
041800
040800
03c000
003000
040800
060800
05f000
000000
000000
000000
ENDCHAR
STARTCHAR 2374
ENCODING 9076
SWIDTH 1000 0
DWIDTH 18 0
BBX 18 18 0 -2
BITMAP
000000
000000
000000
010000
010000
010000
010000
0ff000
010000
010000
010000
010000
010000
008800
007000
000000
000000
000000
ENDCHAR
STARTCHAR 2375
ENCODING 9077
SWIDTH 1000 0
DWIDTH 18 0
BBX 18 18 0 -2
BITMAP
000000
000000
000000
000000
000000
000000
000000
0e3800
020800
020800
020800
020800
020800
031800
01ee00
000000
000000
000000
ENDCHAR
STARTCHAR 2376
ENCODING 9078
SWIDTH 1000 0
DWIDTH 18 0
BBX 18 18 0 -2
BITMAP
000000
000000
000000
000000
000000
000000
000000
1e3c00
041000
063000
022000
036000
014000
01c000
008000
000000
000000
000000
ENDCHAR
STARTCHAR 2377
ENCODING 9079
SWIDTH 1000 0
DWIDTH 18 0
BBX 18 18 0 -2
BITMAP
000000
000000
000000
000000
000000
000000
000000
3ccf00
08c400
0dec00
052800
052800
073800
021000
021000
000000
000000
000000
ENDCHAR
STARTCHAR 2378
ENCODING 9080
SWIDTH 1000 0
DWIDTH 18 0
BBX 18 18 0 -2
BITMAP
000000
000000
000000
000000
000000
000000
000000
0f3c00
021000
012000
00c000
012000
021000
040800
1f3e00
000000
000000
000000
ENDCHAR
STARTCHAR 2379
ENCODING 9081
SWIDTH 1000 0
DWIDTH 18 0
BBX 18 18 0 -2
BITMAP
000000
000000
000000
000000
000000
000000
000000
0f1e00
020800
031800
011000
01b000
00a000
006000
00c000
098000
070000
000000
ENDCHAR
STARTCHAR 237a
ENCODING 9082
SWIDTH 1000 0
DWIDTH 18 0
BBX 18 18 0 -2
BITMAP
000000
000000
000000
000000
000000
000000
000000
07f800
041000
042000
004000
008000
010800
020800
07f800
000000
000000
000000
ENDCHAR
STARTCHAR 2421
ENCODING 9249
SWIDTH 1000 0
DWIDTH 18 0
BBX 18 18 0 -2
BITMAP
000000
000000
000000
000000
000000
020000
022000
0fc000
020000
07a000
0a6000
129000
111000
129000
0c2000
00c000
000000
000000
ENDCHAR
STARTCHAR 2422
ENCODING 9250
SWIDTH 1000 0
DWIDTH 18 0
BBX 18 18 0 -2
BITMAP
000000
000000
010000
008400
08b800
07c000
010000
017800
03a600
052100
092100
08c100
10c100
130200
0c0c00
007000
000000
000000
ENDCHAR
STARTCHAR 2423
ENCODING 9251
SWIDTH 1000 0
DWIDTH 18 0
BBX 18 18 0 -2
BITMAP
000000
000000
000000
000000
000000
000000
100000
102000
101000
101000
100800
100800
103800
0a0800
0c0000
040000
000000
000000
ENDCHAR
STARTCHAR 2424
ENCODING 9252
SWIDTH 1000 0
DWIDTH 18 0
BBX 18 18 0 -2
BITMAP
000000
000000
000000
100000
080800
080400
100200
100200
100100
100100
110d00
120300
0a0100
0c0000
060000
000000
000000
000000
ENDCHAR
STARTCHAR 2425
ENCODING 9253
SWIDTH 1000 0
DWIDTH 18 0
BBX 18 18 0 -2
BITMAP
000000
000000
000000
000000
020000
01c000
008000
000000
03e000
0c1000
001000
001000
001000
002000
00c000
030000
000000
000000
ENDCHAR
STARTCHAR 2426
ENCODING 9254
SWIDTH 1000 0
DWIDTH 18 0
BBX 18 18 0 -2
BITMAP
000000
010000
00f000
002000
000000
00f000
0b0800
040400
000400
000400
000400
000800
000800
001000
006000
018000
000000
000000
ENDCHAR
STARTCHAR 2427
ENCODING 9255
SWIDTH 1000 0
DWIDTH 18 0
BBX 18 18 0 -2
BITMAP
000000
000000
000000
000000
020000
01c000
008000
000000
0fe000
004000
008000
010000
038000
044000
084000
103800
000000
000000
ENDCHAR
STARTCHAR 2428
ENCODING 9256
SWIDTH 1000 0
DWIDTH 18 0
BBX 18 18 0 -2
BITMAP
000000
010000
00f000
002000
000000
08f800
071000
002000
004000
008000
00e000
011000
021000
041000
081000
100f00
000000
000000
ENDCHAR
STARTCHAR 2429
ENCODING 9257
SWIDTH 1000 0
DWIDTH 18 0
BBX 18 18 0 -2
BITMAP
000000
000000
000000
000000
000000
020000
022000
139000
0e0800
020000
02f000
030800
060800
0a0800
121000
0e6000
000000
000000
ENDCHAR
STARTCHAR 242a
ENCODING 9258
SWIDTH 1000 0
DWIDTH 18 0
BBX 18 18 0 -2
BITMAP
000000
000000
040000
020000
020c00
024200
138100
0e0000
023800
02c400
030200
060200
0a0200
128c00
0e7000
020000
000000
000000
ENDCHAR
STARTCHAR 242b
ENCODING 9259
SWIDTH 1000 0
DWIDTH 18 0
BBX 18 18 0 -2
BITMAP
000000
000000
020000
010000
020000
02c800
272400
1a2200
022200
022100
042700
042100
082000
0a4000
114000
218000
000000
000000
ENDCHAR
STARTCHAR 242c
ENCODING 9260
SWIDTH 1000 0
DWIDTH 18 0
BBX 18 18 0 -2
BITMAP
000000
000080
020440
010200
020000
02c800
272400
1a2200
022200
022100
042700
042100
082000
0a4000
114000
218000
000000
000000
ENDCHAR
STARTCHAR 242d
ENCODING 9261
SWIDTH 1000 0
DWIDTH 18 0
BBX 18 18 0 -2
BITMAP
000000
000000
008000
004400
045800
03e000
002200
081c00
07f000
000800
000800
03fc00
040400
040000
020000
01f000
000000
000000
ENDCHAR
STARTCHAR 242e
ENCODING 9262
SWIDTH 1000 0
DWIDTH 18 0
BBX 18 18 0 -2
BITMAP
000000
000080
010040
008900
08b080
07c000
004400
103800
0fe000
001000
001000
07f800
080800
080000
040000
03e000
000000
000000
ENDCHAR
STARTCHAR 242f
ENCODING 9263
SWIDTH 1000 0
DWIDTH 18 0
BBX 18 18 0 -2
BITMAP
000000
000000
000800
000800
001000
002000
00c000
030000
040000
040000
030000
00c000
002000
001000
000800
000400
000400
000000
ENDCHAR
STARTCHAR 2430
ENCODING 9264
SWIDTH 1000 0
DWIDTH 18 0
BBX 18 18 0 -2
BITMAP
000000
000000
000800
000800
001100
002080
00c400
030200
040000
040000
030000
00c000
002000
001000
000800
000400
000400
000000
ENDCHAR
STARTCHAR 2431
ENCODING 9265
SWIDTH 1000 0
DWIDTH 18 0
BBX 18 18 0 -2
BITMAP
000000
000000
001000
100800
080800
080900
090e00
10f800
100800
100800
100800
140800
140800
181000
086000
018000
000000
000000
ENDCHAR
STARTCHAR 2432
ENCODING 9266
SWIDTH 1000 0
DWIDTH 18 0
BBX 18 18 0 -2
BITMAP
000000
000080
002040
201200
101100
101000
121e00
21f000
201000
201000
201000
281000
281000
302000
10c000
030000
000000
000000
ENDCHAR
STARTCHAR 2433
ENCODING 9267
SWIDTH 1000 0
DWIDTH 18 0
BBX 18 18 0 -2
BITMAP
000000
000000
000000
020c00
01f000
002000
004000
000000
000000
000000
040000
080000
080000
060200
01fc00
000000
000000
000000
ENDCHAR
STARTCHAR 2434
ENCODING 9268
SWIDTH 1000 0
DWIDTH 18 0
BBX 18 18 0 -2
BITMAP
000000
000000
000000
020c00
01f000
002200
004100
000800
000400
000000
040000
080000
080000
060200
01fc00
000000
000000
000000
ENDCHAR
STARTCHAR 2435
ENCODING 9269
SWIDTH 1000 0
DWIDTH 18 0
BBX 18 18 0 -2
BITMAP
000000
000000
018000
004000
004200
083c00
07e000
002000
001000
001000
07f800
080800
080000
080000
060000
01f000
000000
000000
ENDCHAR
STARTCHAR 2436
ENCODING 9270
SWIDTH 1000 0
DWIDTH 18 0
BBX 18 18 0 -2
BITMAP
000000
000900
018480
004000
004200
083c00
07e000
002000
001000
001000
07f800
080800
080000
080000
060000
01f000
000000
000000
ENDCHAR
STARTCHAR 2437
ENCODING 9271
SWIDTH 1000 0
DWIDTH 18 0
BBX 18 18 0 -2
BITMAP
000000
000000
080000
040000
060000
040000
040000
040000
040000
040000
040200
040200
040400
040800
023000
01c000
000000
000000
ENDCHAR
STARTCHAR 2438
ENCODING 9272
SWIDTH 1000 0
DWIDTH 18 0
BBX 18 18 0 -2
BITMAP
000000
000000
080000
040800
060400
042000
041000
040000
040000
040000
040200
040200
040400
040800
023000
01c000
000000
000000
ENDCHAR
STARTCHAR 2439
ENCODING 9273
SWIDTH 1000 0
DWIDTH 18 0
BBX 18 18 0 -2
BITMAP
000000
000000
004000
002000
203f00
1fe000
002000
002000
03e000
042000
042000
03e000
002000
004000
018000
060000
000000
000000
ENDCHAR
STARTCHAR 243a
ENCODING 9274
SWIDTH 1000 0
DWIDTH 18 0
BBX 18 18 0 -2
BITMAP
000000
000900
004480
002000
103f00
0fe000
002000
002000
01e000
022000
022000
01e000
002000
004000
018000
060000
000000
000000
ENDCHAR
STARTCHAR 243b
ENCODING 9275
SWIDTH 1000 0
DWIDTH 18 0
BBX 18 18 0 -2
BITMAP
000000
000000
001000
040800
020800
020800
020f00
13f800
0e0800
020800
020800
022800
021000
020000
020000
01fc00
000000
000000
ENDCHAR
STARTCHAR 243c
ENCODING 9276
SWIDTH 1000 0
DWIDTH 18 0
BBX 18 18 0 -2
BITMAP
000000
000100
002080
081400
041200
041000
041e00
27f000
1c1000
041000
041000
045000
042000
040000
040000
03f800
000000
000000
ENDCHAR
STARTCHAR 243d
ENCODING 9277
SWIDTH 1000 0
DWIDTH 18 0
BBX 18 18 0 -2
BITMAP
000000
000000
04f800
031000
002000
00c000
010000
021f00
0cf000
1f6000
008000
010000
010000
010000
008000
007800
000000
000000
ENDCHAR
STARTCHAR 243e
ENCODING 9278
SWIDTH 1000 0
DWIDTH 18 0
BBX 18 18 0 -2
BITMAP
000000
000080
04f840
031100
002080
00c000
010000
021f00
0cf000
1f6000
008000
010000
010000
010000
008000
007800
000000
000000
ENDCHAR
STARTCHAR 243f
ENCODING 9279
SWIDTH 1000 0
DWIDTH 18 0
BBX 18 18 0 -2
BITMAP
000000
000000
020000
020000
024000
238000
1e0000
043c00
044600
040800
080000
080000
088000
108000
104000
203e00
000000
000000
ENDCHAR
STARTCHAR 2440
ENCODING 9280
SWIDTH 1000 0
DWIDTH 18 0
BBX 18 18 0 -2
BITMAP
000000
000100
020080
020400
024200
238000
1e0000
043c00
044600
040800
080000
080000
088000
108000
104000
203e00
000000
000000
ENDCHAR
STARTCHAR 2441
ENCODING 9281
SWIDTH 1000 0
DWIDTH 18 0
BBX 18 18 0 -2
BITMAP
000000
000000
010000
010000
011000
11e000
0f0000
010000
023c00
02c200
070200
040200
000200
000400
001800
01e000
000000
000000
ENDCHAR
STARTCHAR 2442
ENCODING 9282
SWIDTH 1000 0
DWIDTH 18 0
BBX 18 18 0 -2
BITMAP
000000
000100
010080
010400
011200
11e000
0f0000
010000
023c00
02c200
070200
040200
000200
000400
001800
01e000
000000
000000
ENDCHAR
STARTCHAR 2443
ENCODING 9283
SWIDTH 1000 0
DWIDTH 18 0
BBX 18 18 0 -2
BITMAP
000000
000000
000000
000000
000000
000000
000000
01e000
061000
180800
000800
000800
001000
006000
038000
000000
000000
000000
ENDCHAR
STARTCHAR 2444
ENCODING 9284
SWIDTH 1000 0
DWIDTH 18 0
BBX 18 18 0 -2
BITMAP
000000
000000
000000
000000
00f000
030c00
2c0200
100100
000100
000100
000100
000200
000c00
003000
01c000
000000
000000
000000
ENDCHAR
STARTCHAR 2445
ENCODING 9285
SWIDTH 1000 0
DWIDTH 18 0
BBX 18 18 0 -2
BITMAP
000000
000100
000880
000400
00f000
030c00
2c0200
100100
000100
000100
000100
000200
000c00
003000
01c000
000000
000000
000000
ENDCHAR
STARTCHAR 2446
ENCODING 9286
SWIDTH 1000 0
DWIDTH 18 0
BBX 18 18 0 -2
BITMAP
000000
000000
000000
003f00
11cc00
0e1000
002000
004000
004000
008000
008000
008000
008000
004000
003e00
000000
000000
000000
ENDCHAR
STARTCHAR 2447
ENCODING 9287
SWIDTH 1000 0
DWIDTH 18 0
BBX 18 18 0 -2
BITMAP
000000
000000
000000
003f00
11cc00
0e1100
002080
004400
004200
008000
008000
008000
008000
004000
003e00
000000
000000
000000
ENDCHAR
STARTCHAR 2448
ENCODING 9288
SWIDTH 1000 0
DWIDTH 18 0
BBX 18 18 0 -2
BITMAP
000000
000000
020000
010000
010000
010000
010400
013800
00c000
030000
040000
080000
080000
080000
060200
01fc00
000000
000000
ENDCHAR
STARTCHAR 2449
ENCODING 9289
SWIDTH 1000 0
DWIDTH 18 0
BBX 18 18 0 -2
BITMAP
000000
000200
021100
010800
010000
010000
010400
013800
00c000
030000
040000
080000
080000
080000
060200
01fc00
000000
000000
ENDCHAR
STARTCHAR 244a
ENCODING 9290
SWIDTH 1000 0
DWIDTH 18 0
BBX 18 18 0 -2
BITMAP
000000
000000
020000
024000
238000
1e1e00
040300
040400
081000
081000
100800
100800
20f800
010e00
010900
00f000
000000
000000
ENDCHAR
STARTCHAR 244b
ENCODING 9291
SWIDTH 1000 0
DWIDTH 18 0
BBX 18 18 0 -2
BITMAP
000000
000000
000000
100000
089e00
086400
080800
080000
100000
100000
108000
108000
148000
144000
183e00
080000
000000
000000
ENDCHAR
STARTCHAR 244c
ENCODING 9292
SWIDTH 1000 0
DWIDTH 18 0
BBX 18 18 0 -2
BITMAP
000000
000000
008000
004000
108000
08f800
098400
0a8200
0c8200
088200
150200
150200
123e00
154200
084500
003800
000000
000000
ENDCHAR
STARTCHAR 244d
ENCODING 9293
SWIDTH 1000 0
DWIDTH 18 0
BBX 18 18 0 -2
BITMAP
000000
000000
080000
040000
041c00
066200
2c8200
150200
060200
040200
040200
0c3e00
144200
244500
0c3800
040000
000000
000000
ENDCHAR
STARTCHAR 244e
ENCODING 9294
SWIDTH 1000 0
DWIDTH 18 0
BBX 18 18 0 -2
BITMAP
000000
000000
000000
00f000
034c00
044200
084100
084100
108100
108100
108100
110200
090200
060c00
007000
000000
000000
000000
ENDCHAR
STARTCHAR 244f
ENCODING 9295
SWIDTH 1000 0
DWIDTH 18 0
BBX 18 18 0 -2
BITMAP
000000
000000
001000
100800
080900
090e00
08f800
080800
100800
100800
100400
100400
147c00
148600
188500
087800
000000
000000
ENDCHAR
STARTCHAR 2450
ENCODING 9296
SWIDTH 1000 0
DWIDTH 18 0
BBX 18 18 0 -2
BITMAP
000000
000480
002240
201000
101200
121c00
11f000
101000
201000
201000
200800
200800
28f800
290c00
310a00
10f000
000000
000000
ENDCHAR
STARTCHAR 2451
ENCODING 9297
SWIDTH 1000 0
DWIDTH 18 0
BBX 18 18 0 -2
BITMAP
000000
000180
002240
201240
101380
121c00
11f000
101000
201000
201000
200800
200800
28f800
290c00
310a00
10f000
000000
000000
ENDCHAR
STARTCHAR 2452
ENCODING 9298
SWIDTH 1000 0
DWIDTH 18 0
BBX 18 18 0 -2
BITMAP
000000
000000
000000
011000
221000
1c1800
041800
081400
081300
101000
101000
101000
102000
102000
084000
078000
000000
000000
ENDCHAR
STARTCHAR 2453
ENCODING 9299
SWIDTH 1000 0
DWIDTH 18 0
BBX 18 18 0 -2
BITMAP
000000
000080
000040
011200
221100
1c1800
041800
081400
081300
101000
101000
101000
102000
102000
084000
078000
000000
000000
ENDCHAR
STARTCHAR 2454
ENCODING 9300
SWIDTH 1000 0
DWIDTH 18 0
BBX 18 18 0 -2
BITMAP
000000
000180
000240
011240
221180
1c1800
041800
081400
081300
101000
101000
101000
102000
102000
084000
078000
000000
000000
ENDCHAR
STARTCHAR 2455
ENCODING 9301
SWIDTH 1000 0
DWIDTH 18 0
BBX 18 18 0 -2
BITMAP
000000
000000
020000
01e000
004000
008000
010000
010000
008000
007000
01cc00
062200
282100
302100
022000
01c000
000000
000000
ENDCHAR
STARTCHAR 2456
ENCODING 9302
SWIDTH 1000 0
DWIDTH 18 0
BBX 18 18 0 -2
BITMAP
000000
000000
020100
01e080
004400
008200
010000
010000
008000
007000
01cc00
062200
282100
302100
022000
01c000
000000
000000
ENDCHAR
STARTCHAR 2457
ENCODING 9303
SWIDTH 1000 0
DWIDTH 18 0
BBX 18 18 0 -2
BITMAP
000000
000000
020300
01e480
004480
008300
010000
010000
008000
007000
01cc00
062200
282100
302100
022000
01c000
000000
000000
ENDCHAR
STARTCHAR 2458
ENCODING 9304
SWIDTH 1000 0
DWIDTH 18 0
BBX 18 18 0 -2
BITMAP
000000
000000
000000
000000
000000
018000
024000
042000
082000
301000
000800
000800
000400
000300
000000
000000
000000
000000
ENDCHAR
STARTCHAR 2459
ENCODING 9305
SWIDTH 1000 0
DWIDTH 18 0
BBX 18 18 0 -2
BITMAP
000000
000000
000200
000100
000800
018400
024000
042000
082000
301000
000800
000800
000400
000300
000000
000000
000000
000000
ENDCHAR
STARTCHAR 245a
ENCODING 9306
SWIDTH 1000 0
DWIDTH 18 0
BBX 18 18 0 -2
BITMAP
000000
000000
000000
000600
000900
018900
024600
042000
282000
101000
000800
000800
000400
000300
000000
000000
000000
000000
ENDCHAR
STARTCHAR 245b
ENCODING 9307
SWIDTH 1000 0
DWIDTH 18 0
BBX 18 18 0 -2
BITMAP
000000
000000
000000
108600
087800
080800
080900
090e00
10f800
100800
100400
100400
147c00
148600
188500
087800
000000
000000
ENDCHAR
STARTCHAR 245c
ENCODING 9308
SWIDTH 1000 0
DWIDTH 18 0
BBX 18 18 0 -2
BITMAP
000000
000080
000040
210d00
10f080
101000
101200
121c00
21f000
201000
200800
200800
28f800
290c00
310a00
10f000
000000
000000
ENDCHAR
STARTCHAR 245d
ENCODING 9309
SWIDTH 1000 0
DWIDTH 18 0
BBX 18 18 0 -2
BITMAP
000000
000180
000240
108240
087d80
080800
080900
090e00
10f800
100800
100400
100400
147c00
148600
188500
087800
000000
000000
ENDCHAR
STARTCHAR 245e
ENCODING 9310
SWIDTH 1000 0
DWIDTH 18 0
BBX 18 18 0 -2
BITMAP
000000
000000
002000
002000
082600
07f800
002000
002200
042c00
03f000
002000
001000
03f000
041c00
041200
03e000
000000
000000
ENDCHAR
STARTCHAR 245f
ENCODING 9311
SWIDTH 1000 0
DWIDTH 18 0
BBX 18 18 0 -2
BITMAP
000000
000000
09c000
062000
004000
004000
008800
008400
03c400
0cb400
110c00
220600
220900
240800
181000
00e000
000000
000000
ENDCHAR
STARTCHAR 2460
ENCODING 9312
SWIDTH 1000 0
DWIDTH 18 0
BBX 18 18 0 -2
BITMAP
000000
000000
080000
040000
248000
1f0c00
040200
040100
1c0000
240800
240400
180400
080400
080400
061800
01e000
000000
000000
ENDCHAR
STARTCHAR 2461
ENCODING 9313
SWIDTH 1000 0
DWIDTH 18 0
BBX 18 18 0 -2
BITMAP
000000
000000
002000
081000
042000
04f800
072400
044200
0a4100
128100
110100
118200
120200
0c0c00
007000
000000
000000
000000
ENDCHAR
STARTCHAR 2462
ENCODING 9314
SWIDTH 1000 0
DWIDTH 18 0
BBX 18 18 0 -2
BITMAP
000000
000000
010000
008000
008000
088000
07e000
010400
090200
112100
0fc100
020100
020200
020200
010400
00f800
000000
000000
ENDCHAR
STARTCHAR 2463
ENCODING 9315
SWIDTH 1000 0
DWIDTH 18 0
BBX 18 18 0 -2
BITMAP
000000
000000
000000
000000
000000
008000
084000
040000
04f000
070800
1c0800
020800
027000
010000
010000
010000
000000
000000
ENDCHAR
STARTCHAR 2464
ENCODING 9316
SWIDTH 1000 0
DWIDTH 18 0
BBX 18 18 0 -2
BITMAP
000000
000000
00c000
002000
080000
043c00
04c200
270100
1c0100
020100
024200
023c00
010000
010000
010000
010000
000000
000000
ENDCHAR
STARTCHAR 2465
ENCODING 9317
SWIDTH 1000 0
DWIDTH 18 0
BBX 18 18 0 -2
BITMAP
000000
000000
000000
000000
000000
008000
104000
11e000
125000
144800
144800
184800
125000
09e000
008000
030000
000000
000000
ENDCHAR
STARTCHAR 2466
ENCODING 9318
SWIDTH 1000 0
DWIDTH 18 0
BBX 18 18 0 -2
BITMAP
000000
000000
002000
101000
081000
087c00
099200
121100
121100
141100
151100
18d200
083c00
002000
00c000
030000
000000
000000
ENDCHAR
STARTCHAR 2467
ENCODING 9319
SWIDTH 1000 0
DWIDTH 18 0
BBX 18 18 0 -2
BITMAP
000000
000000
000000
000000
000000
010000
008000
008000
00f000
008000
008000
008000
0f8000
10f000
108800
0f0000
000000
000000
ENDCHAR
STARTCHAR 2468
ENCODING 9320
SWIDTH 1000 0
DWIDTH 18 0
BBX 18 18 0 -2
BITMAP
000000
000000
008000
004000
004000
004200
007c00
004000
004000
002000
002000
0fe000
103800
102600
0c4100
038000
000000
000000
ENDCHAR
STARTCHAR 2469
ENCODING 9321
SWIDTH 1000 0
DWIDTH 18 0
BBX 18 18 0 -2
BITMAP
000000
000000
020000
01e000
004000
000000
020000
040000
047800
058400
060200
040200
000200
000400
003800
01c000
000000
000000
ENDCHAR
STARTCHAR 246a
ENCODING 9322
SWIDTH 1000 0
DWIDTH 18 0
BBX 18 18 0 -2
BITMAP
000000
000000
040000
023000
024800
048400
048400
050400
050400
050400
060400
020800
000800
001000
006000
018000
000000
000000
ENDCHAR
STARTCHAR 246b
ENCODING 9323
SWIDTH 1000 0
DWIDTH 18 0
BBX 18 18 0 -2
BITMAP
000000
000000
000000
047800
039000
002000
004000
008000
01f800
030400
040200
080200
00e200
011200
011400
00f800
000000
000000
ENDCHAR
STARTCHAR 246c
ENCODING 9324
SWIDTH 1000 0
DWIDTH 18 0
BBX 18 18 0 -2
BITMAP
000000
000000
080000
040000
041800
066400
2c8400
150400
060400
0c0800
0c0800
140800
240880
040900
0c0600
040000
000000
000000
ENDCHAR
STARTCHAR 246d
ENCODING 9325
SWIDTH 1000 0
DWIDTH 18 0
BBX 18 18 0 -2
BITMAP
000000
000000
000000
047800
039000
002000
004000
008000
01f800
030400
040200
080200
000200
000400
001800
01e000
000000
000000
ENDCHAR
STARTCHAR 246e
ENCODING 9326
SWIDTH 1000 0
DWIDTH 18 0
BBX 18 18 0 -2
BITMAP
000000
000000
000000
000000
000000
040000
040000
066000
1d9000
060800
040800
0c0800
0c0800
141000
04e000
040000
000000
000000
ENDCHAR
STARTCHAR 246f
ENCODING 9327
SWIDTH 1000 0
DWIDTH 18 0
BBX 18 18 0 -2
BITMAP
000000
000000
080000
040000
040000
063800
2cc600
150100
060100
0c0100
0c0100
140100
240200
040c00
047000
040000
000000
000000
ENDCHAR
STARTCHAR 2470
ENCODING 9328
SWIDTH 1000 0
DWIDTH 18 0
BBX 18 18 0 -2
BITMAP
000000
000000
000000
04e000
032000
004000
004000
01fc00
068200
088100
110100
110100
127100
128a00
0c8c00
007000
000000
000000
ENDCHAR
STARTCHAR 2471
ENCODING 9329
SWIDTH 1000 0
DWIDTH 18 0
BBX 18 18 0 -2
BITMAP
000000
000000
04f000
032000
004000
008000
01f800
030400
040400
08c400
008800
017000
020000
071c00
08a200
104100
000000
000000
ENDCHAR
STARTCHAR 2472
ENCODING 9330
SWIDTH 1000 0
DWIDTH 18 0
BBX 18 18 0 -2
BITMAP
000000
000000
008000
009000
10e000
0f8000
020200
04c200
072c00
083000
10e000
012000
022000
020000
020400
01f800
000000
000000
ENDCHAR
STARTCHAR 2473
ENCODING 9331
SWIDTH 1000 0
DWIDTH 18 0
BBX 18 18 0 -2
BITMAP
000000
000000
008000
004000
008000
008000
010000
010000
020000
02c000
072000
042100
082100
082200
102200
101c00
000000
000000
ENDCHAR
STARTCHAR 2521
ENCODING 9505
SWIDTH 1000 0
DWIDTH 18 0
BBX 18 18 0 -2
BITMAP
000000
000000
000000
000000
000000
000000
3ff800
000800
001000
016000
018000
010000
010000
010000
020000
0c0000
000000
000000
ENDCHAR
STARTCHAR 2522
ENCODING 9506
SWIDTH 1000 0
DWIDTH 18 0
BBX 18 18 0 -2
BITMAP
000000
000000
000000
3fff00
000100
000100
004200
004400
005800
006000
004000
004000
008000
008000
030000
0c0000
000000
000000
ENDCHAR
STARTCHAR 2523
ENCODING 9507
SWIDTH 1000 0
DWIDTH 18 0
BBX 18 18 0 -2
BITMAP
000000
000000
000000
000000
000000
000800
000800
001000
001000
002000
00c000
034000
1c4000
004000
004000
004000
000000
000000
ENDCHAR
STARTCHAR 2524
ENCODING 9508
SWIDTH 1000 0
DWIDTH 18 0
BBX 18 18 0 -2
BITMAP
000000
000000
000200
000200
000400
000400
000800
001000
006000
03a000
1c2000
002000
002000
002000
002000
002000
000000
000000
ENDCHAR
STARTCHAR 2525
ENCODING 9509
SWIDTH 1000 0
DWIDTH 18 0
BBX 18 18 0 -2
BITMAP
000000
000000
000000
000000
000000
008000
008000
0ff800
080800
080800
080800
001000
001000
002000
00c000
030000
000000
000000
ENDCHAR
STARTCHAR 2526
ENCODING 9510
SWIDTH 1000 0
DWIDTH 18 0
BBX 18 18 0 -2
BITMAP
000000
000000
004000
004000
0ffe00
080200
080200
080200
080200
080200
000400
000400
000800
001000
006000
018000
000000
000000
ENDCHAR
STARTCHAR 2527
ENCODING 9511
SWIDTH 1000 0
DWIDTH 18 0
BBX 18 18 0 -2
BITMAP
000000
000000
000000
000000
000000
000000
000000
0fe000
010000
010000
010000
010000
010000
010000
1ff000
000000
000000
000000
ENDCHAR
STARTCHAR 2528
ENCODING 9512
SWIDTH 1000 0
DWIDTH 18 0
BBX 18 18 0 -2
BITMAP
000000
000000
000000
000000
0ffe00
004000
004000
004000
004000
004000
004000
004000
004000
004000
1fff00
000000
000000
000000
ENDCHAR
STARTCHAR 2529
ENCODING 9513
SWIDTH 1000 0
DWIDTH 18 0
BBX 18 18 0 -2
BITMAP
000000
000000
000000
000000
000000
004000
004000
1ff800
004000
00c000
014000
024000
044000
084000
104000
00c000
000000
000000
ENDCHAR
STARTCHAR 252a
ENCODING 9514
SWIDTH 1000 0
DWIDTH 18 0
BBX 18 18 0 -2
BITMAP
000000
000000
001000
001000
001000
1fff00
001000
003000
005000
005000
009000
011000
061000
181000
001000
007000
000000
000000
ENDCHAR
STARTCHAR 252b
ENCODING 9515
SWIDTH 1000 0
DWIDTH 18 0
BBX 18 18 0 -2
BITMAP
000000
000000
008000
008000
008000
1ffe00
008200
008200
008200
010200
010200
010600
020400
020400
040400
183800
000000
000000
ENDCHAR
STARTCHAR 252c
ENCODING 9516
SWIDTH 1000 0
DWIDTH 18 0
BBX 18 18 0 -2
BITMAP
000000
000080
008440
008200
008000
1ffe00
008200
008200
008200
010200
010200
010200
020400
020400
040400
183800
000000
000000
ENDCHAR
STARTCHAR 252d
ENCODING 9517
SWIDTH 1000 0
DWIDTH 18 0
BBX 18 18 0 -2
BITMAP
000000
000000
008000
008000
008000
0ffe00
004000
004000
004000
004000
1fff00
002000
002000
002000
002000
002000
000000
000000
ENDCHAR
STARTCHAR 252e
ENCODING 9518
SWIDTH 1000 0
DWIDTH 18 0
BBX 18 18 0 -2
BITMAP
000000
000100
008480
008200
008000
0ffe00
004000
004000
004000
004000
1fff00
002000
002000
002000
002000
002000
000000
000000
ENDCHAR
STARTCHAR 252f
ENCODING 9519
SWIDTH 1000 0
DWIDTH 18 0
BBX 18 18 0 -2
BITMAP
000000
000000
000000
008000
00fe00
010200
010200
020200
0c0400
000400
000800
000800
001000
002000
00c000
070000
000000
000000
ENDCHAR
STARTCHAR 2530
ENCODING 9520
SWIDTH 1000 0
DWIDTH 18 0
BBX 18 18 0 -2
BITMAP
000000
000480
000240
008000
00fe00
010200
010200
020200
0c0400
000400
000800
000800
001000
002000
00c000
070000
000000
000000
ENDCHAR
STARTCHAR 2531
ENCODING 9521
SWIDTH 1000 0
DWIDTH 18 0
BBX 18 18 0 -2
BITMAP
000000
000000
020000
020000
020000
03ff00
041000
041000
081000
101000
001000
002000
002000
004000
018000
060000
000000
000000
ENDCHAR
STARTCHAR 2532
ENCODING 9522
SWIDTH 1000 0
DWIDTH 18 0
BBX 18 18 0 -2
BITMAP
000000
000080
020440
020200
020000
03ff00
041000
041000
081000
101000
001000
002000
002000
004000
018000
060000
000000
000000
ENDCHAR
STARTCHAR 2533
ENCODING 9523
SWIDTH 1000 0
DWIDTH 18 0
BBX 18 18 0 -2
BITMAP
000000
000000
000000
000000
0ffe00
000200
000200
000200
000200
000200
000200
000200
000200
000200
0ffe00
000000
000000
000000
ENDCHAR
STARTCHAR 2534
ENCODING 9524
SWIDTH 1000 0
DWIDTH 18 0
BBX 18 18 0 -2
BITMAP
000000
000900
000480
000000
0ffe00
000200
000200
000200
000200
000200
000200
000200
000200
000200
0ffe00
000000
000000
000000
ENDCHAR
STARTCHAR 2535
ENCODING 9525
SWIDTH 1000 0
DWIDTH 18 0
BBX 18 18 0 -2
BITMAP
000000
000000
020400
020400
020400
020400
1fff00
020400
020400
020400
020400
000800
000800
001000
006000
038000
000000
000000
ENDCHAR
STARTCHAR 2536
ENCODING 9526
SWIDTH 1000 0
DWIDTH 18 0
BBX 18 18 0 -2
BITMAP
000000
000080
040840
040900
040880
040800
3ffe00
040800
040800
040800
040800
001000
001000
002000
00c000
070000
000000
000000
ENDCHAR
STARTCHAR 2537
ENCODING 9527
SWIDTH 1000 0
DWIDTH 18 0
BBX 18 18 0 -2
BITMAP
000000
000000
0e0000
018000
000000
000100
000100
0e0100
018200
000200
000200
000400
000800
003000
00c000
0f0000
000000
000000
ENDCHAR
STARTCHAR 2538
ENCODING 9528
SWIDTH 1000 0
DWIDTH 18 0
BBX 18 18 0 -2
BITMAP
000000
000100
000080
0e0400
018200
000000
000100
0e0100
018100
000200
000200
000400
000800
003000
00c000
0f0000
000000
000000
ENDCHAR
STARTCHAR 2539
ENCODING 9529
SWIDTH 1000 0
DWIDTH 18 0
BBX 18 18 0 -2
BITMAP
000000
000000
000000
0ffc00
000400
000400
000800
000800
001000
001000
002000
005000
008800
010400
060200
180100
000000
000000
ENDCHAR
STARTCHAR 253a
ENCODING 9530
SWIDTH 1000 0
DWIDTH 18 0
BBX 18 18 0 -2
BITMAP
000000
000480
000240
1ff800
000800
000800
001000
001000
002000
002000
004000
00a000
011000
020800
0c0400
300200
000000
000000
ENDCHAR
STARTCHAR 253b
ENCODING 9531
SWIDTH 1000 0
DWIDTH 18 0
BBX 18 18 0 -2
BITMAP
000000
000000
020000
020000
020000
023f00
1fc100
020200
020400
020800
021000
020000
020000
010000
00fe00
000000
000000
000000
ENDCHAR
STARTCHAR 253c
ENCODING 9532
SWIDTH 1000 0
DWIDTH 18 0
BBX 18 18 0 -2
BITMAP
000000
000100
020480
020200
020000
023f00
1fc100
020200
020400
020800
021000
020000
020000
010000
00fe00
000000
000000
000000
ENDCHAR
STARTCHAR 253d
ENCODING 9533
SWIDTH 1000 0
DWIDTH 18 0
BBX 18 18 0 -2
BITMAP
000000
000000
000000
100200
080200
040200
040200
020200
000400
000400
000800
000800
001000
002000
00c000
070000
000000
000000
ENDCHAR
STARTCHAR 253e
ENCODING 9534
SWIDTH 1000 0
DWIDTH 18 0
BBX 18 18 0 -2
BITMAP
000000
000900
000480
100000
080200
040200
040200
020200
000400
000400
000800
000800
001000
002000
00c000
070000
000000
000000
ENDCHAR
STARTCHAR 253f
ENCODING 9535
SWIDTH 1000 0
DWIDTH 18 0
BBX 18 18 0 -2
BITMAP
000000
000000
000000
008000
00fe00
010200
010200
030200
0cc400
003400
000800
000800
001000
002000
00c000
070000
000000
000000
ENDCHAR
STARTCHAR 2540
ENCODING 9536
SWIDTH 1000 0
DWIDTH 18 0
BBX 18 18 0 -2
BITMAP
000000
000480
000240
008000
00fe00
010200
010200
030200
0cc400
003400
000800
000800
001000
002000
00c000
070000
000000
000000
ENDCHAR
STARTCHAR 2541
ENCODING 9537
SWIDTH 1000 0
DWIDTH 18 0
BBX 18 18 0 -2
BITMAP
000000
000000
000400
003800
07c000
004000
004000
004000
1fff00
004000
004000
004000
008000
008000
010000
0e0000
000000
000000
ENDCHAR
STARTCHAR 2542
ENCODING 9538
SWIDTH 1000 0
DWIDTH 18 0
BBX 18 18 0 -2
BITMAP
000000
000000
000480
003840
07c200
004100
004000
004000
1fff00
004000
004000
004000
008000
008000
010000
0e0000
000000
000000
ENDCHAR
STARTCHAR 2543
ENCODING 9539
SWIDTH 1000 0
DWIDTH 18 0
BBX 18 18 0 -2
BITMAP
000000
000000
000000
000000
000000
000000
020800
120800
110800
090800
080800
001000
001000
002000
00c000
070000
000000
000000
ENDCHAR
STARTCHAR 2544
ENCODING 9540
SWIDTH 1000 0
DWIDTH 18 0
BBX 18 18 0 -2
BITMAP
000000
000000
000000
010000
108200
088200
084200
044200
040200
000200
000400
000400
000800
001000
006000
038000
000000
000000
ENDCHAR
STARTCHAR 2545
ENCODING 9541
SWIDTH 1000 0
DWIDTH 18 0
BBX 18 18 0 -2
BITMAP
000000
000100
000880
010400
108000
088200
084200
044200
040200
000200
000400
000400
000800
001000
006000
038000
000000
000000
ENDCHAR
STARTCHAR 2546
ENCODING 9542
SWIDTH 1000 0
DWIDTH 18 0
BBX 18 18 0 -2
BITMAP
000000
000000
000000
0ffe00
000000
000000
000000
1fff00
004000
004000
004000
004000
008000
008000
010000
0e0000
000000
000000
ENDCHAR
STARTCHAR 2547
ENCODING 9543
SWIDTH 1000 0
DWIDTH 18 0
BBX 18 18 0 -2
BITMAP
000000
000080
000040
1ffa00
000100
000000
000000
3ffe00
008000
008000
008000
008000
010000
010000
020000
1c0000
000000
000000
ENDCHAR
STARTCHAR 2548
ENCODING 9544
SWIDTH 1000 0
DWIDTH 18 0
BBX 18 18 0 -2
BITMAP
000000
000000
020000
020000
020000
020000
020000
030000
02c000
023000
020800
020000
020000
020000
020000
020000
000000
000000
ENDCHAR
STARTCHAR 2549
ENCODING 9545
SWIDTH 1000 0
DWIDTH 18 0
BBX 18 18 0 -2
BITMAP
000000
000000
020400
020200
021000
020800
020000
030000
02c000
023000
020800
020000
020000
020000
020000
020000
000000
000000
ENDCHAR
STARTCHAR 254a
ENCODING 9546
SWIDTH 1000 0
DWIDTH 18 0
BBX 18 18 0 -2
BITMAP
000000
000000
002000
002000
002000
002000
1fff00
002000
002000
002000
004000
004000
004000
008000
030000
0c0000
000000
000000
ENDCHAR
STARTCHAR 254b
ENCODING 9547
SWIDTH 1000 0
DWIDTH 18 0
BBX 18 18 0 -2
BITMAP
000000
000000
000000
000000
07fc00
000000
000000
000000
000000
000000
000000
000000
000000
1fff00
000000
000000
000000
000000
ENDCHAR
STARTCHAR 254c
ENCODING 9548
SWIDTH 1000 0
DWIDTH 18 0
BBX 18 18 0 -2
BITMAP
000000
000000
000000
0ffc00
000400
000400
000400
000800
060800
019000
005000
002000
005800
018400
060200
180000
000000
000000
ENDCHAR
STARTCHAR 254d
ENCODING 9549
SWIDTH 1000 0
DWIDTH 18 0
BBX 18 18 0 -2
BITMAP
000000
000000
018000
006000
000000
0ffc00
000400
000800
001000
002000
00d800
034600
1c4100
004000
004000
004000
000000
000000
ENDCHAR
STARTCHAR 254e
ENCODING 9550
SWIDTH 1000 0
DWIDTH 18 0
BBX 18 18 0 -2
BITMAP
000000
000000
000000
000400
000400
000400
000400
000800
000800
001000
001000
002000
004000
008000
030000
0c0000
000000
000000
ENDCHAR
STARTCHAR 254f
ENCODING 9551
SWIDTH 1000 0
DWIDTH 18 0
BBX 18 18 0 -2
BITMAP
000000
000000
000000
002000
021000
020800
020800
020400
040400
040200
040200
080200
080100
100100
200100
000000
000000
000000
ENDCHAR
STARTCHAR 2550
ENCODING 9552
SWIDTH 1000 0
DWIDTH 18 0
BBX 18 18 0 -2
BITMAP
000000
000080
000240
002100
021000
020800
020800
020400
040400
040200
040200
080200
080100
100100
200100
000000
000000
000000
ENDCHAR
STARTCHAR 2551
ENCODING 9553
SWIDTH 1000 0
DWIDTH 18 0
BBX 18 18 0 -2
BITMAP
000000
000180
000240
002240
021180
020800
020800
020400
040400
040200
040200
080200
080100
100100
200100
000000
000000
000000
ENDCHAR
STARTCHAR 2552
ENCODING 9554
SWIDTH 1000 0
DWIDTH 18 0
BBX 18 18 0 -2
BITMAP
000000
000000
080000
080000
080400
081800
08e000
0f0000
080000
080000
080000
080000
080000
040000
03fe00
000000
000000
000000
ENDCHAR
STARTCHAR 2553
ENCODING 9555
SWIDTH 1000 0
DWIDTH 18 0
BBX 18 18 0 -2
BITMAP
000000
000080
080040
080200
080100
080000
087800
0f8000
080000
080000
080000
080000
080000
040000
03fe00
000000
000000
000000
ENDCHAR
STARTCHAR 2554
ENCODING 9556
SWIDTH 1000 0
DWIDTH 18 0
BBX 18 18 0 -2
BITMAP
000000
000180
080240
080240
080180
081800
08e000
0f0000
080000
080000
080000
080000
080000
040000
03fe00
000000
000000
000000
ENDCHAR
STARTCHAR 2555
ENCODING 9557
SWIDTH 1000 0
DWIDTH 18 0
BBX 18 18 0 -2
BITMAP
000000
000000
000000
000000
1ffe00
000200
000200
000200
000400
000400
000800
000800
001000
006000
018000
0e0000
000000
000000
ENDCHAR
STARTCHAR 2556
ENCODING 9558
SWIDTH 1000 0
DWIDTH 18 0
BBX 18 18 0 -2
BITMAP
000000
000480
000240
000000
1ffe00
000200
000200
000200
000400
000400
000800
000800
001000
006000
018000
0e0000
000000
000000
ENDCHAR
STARTCHAR 2557
ENCODING 9559
SWIDTH 1000 0
DWIDTH 18 0
BBX 18 18 0 -2
BITMAP
000000
000180
000240
000240
1fff80
000200
000200
000200
000400
000400
000800
000800
001000
006000
018000
0e0000
000000
000000
ENDCHAR
STARTCHAR 2558
ENCODING 9560
SWIDTH 1000 0
DWIDTH 18 0
BBX 18 18 0 -2
BITMAP
000000
000000
000000
000000
000000
030000
048000
084000
102000
201000
000800
000400
000200
000100
000080
000000
000000
000000
ENDCHAR
STARTCHAR 2559
ENCODING 9561
SWIDTH 1000 0
DWIDTH 18 0
BBX 18 18 0 -2
BITMAP
000000
000000
000000
000400
000200
031000
048800
084000
102000
201000
000800
000400
000200
000100
000080
000000
000000
000000
ENDCHAR
STARTCHAR 255a
ENCODING 9562
SWIDTH 1000 0
DWIDTH 18 0
BBX 18 18 0 -2
BITMAP
000000
000000
000000
000c00
001200
031200
048c00
084000
102000
201000
000800
000400
000200
000100
000080
000000
000000
000000
ENDCHAR
STARTCHAR 255b
ENCODING 9563
SWIDTH 1000 0
DWIDTH 18 0
BBX 18 18 0 -2
BITMAP
000000
000000
004000
004000
004000
1fff00
004000
004000
004000
024800
024800
044400
084200
084200
104100
004000
000000
000000
ENDCHAR
STARTCHAR 255c
ENCODING 9564
SWIDTH 1000 0
DWIDTH 18 0
BBX 18 18 0 -2
BITMAP
000000
000100
004880
004400
004000
1fff00
004000
004000
004000
024800
024800
044400
084200
084200
104100
004000
000000
000000
ENDCHAR
STARTCHAR 255d
ENCODING 9565
SWIDTH 1000 0
DWIDTH 18 0
BBX 18 18 0 -2
BITMAP
000000
000000
004180
004240
004240
1fff80
004000
004000
004000
024800
024800
044400
084200
084200
104100
004000
000000
000000
ENDCHAR
STARTCHAR 255e
ENCODING 9566
SWIDTH 1000 0
DWIDTH 18 0
BBX 18 18 0 -2
BITMAP
000000
000000
000000
1fff00
000100
000100
000200
000200
000400
060800
01b000
004000
002000
001000
000800
000000
000000
000000
ENDCHAR
STARTCHAR 255f
ENCODING 9567
SWIDTH 1000 0
DWIDTH 18 0
BBX 18 18 0 -2
BITMAP
000000
000000
07c000
003800
000400
000000
000000
078000
007000
000800
000000
000000
0f8000
007000
000c00
000200
000000
000000
ENDCHAR
STARTCHAR 2560
ENCODING 9568
SWIDTH 1000 0
DWIDTH 18 0
BBX 18 18 0 -2
BITMAP
000000
000000
004000
004000
004000
008000
008000
008000
011000
010800
020400
020400
040600
043a00
1fc100
000100
000000
000000
ENDCHAR
STARTCHAR 2561
ENCODING 9569
SWIDTH 1000 0
DWIDTH 18 0
BBX 18 18 0 -2
BITMAP
000000
000000
000400
000400
000400
000400
030800
00c800
003000
001000
002800
004400
008200
010000
060000
000000
000000
000000
ENDCHAR
STARTCHAR 2562
ENCODING 9570
SWIDTH 1000 0
DWIDTH 18 0
BBX 18 18 0 -2
BITMAP
000000
000000
000000
1ffe00
010000
010000
010000
010000
3fff00
010000
010000
010000
010000
010000
00fe00
000000
000000
000000
ENDCHAR
STARTCHAR 2563
ENCODING 9571
SWIDTH 1000 0
DWIDTH 18 0
BBX 18 18 0 -2
BITMAP
000000
000000
000000
000000
000000
020000
020000
020000
02f800
1f0800
021000
022000
010000
010000
010000
010000
000000
000000
ENDCHAR
STARTCHAR 2564
ENCODING 9572
SWIDTH 1000 0
DWIDTH 18 0
BBX 18 18 0 -2
BITMAP
000000
000000
020000
020000
020000
021f00
03e100
3f0200
010400
010800
011000
008000
008000
008000
008000
008000
000000
000000
ENDCHAR
STARTCHAR 2565
ENCODING 9573
SWIDTH 1000 0
DWIDTH 18 0
BBX 18 18 0 -2
BITMAP
000000
000000
000000
000000
000000
000000
000000
0fc000
004000
004000
004000
004000
004000
004000
1ff800
000000
000000
000000
ENDCHAR
STARTCHAR 2566
ENCODING 9574
SWIDTH 1000 0
DWIDTH 18 0
BBX 18 18 0 -2
BITMAP
000000
000000
000000
0ff800
000800
000800
000800
000800
000800
000800
000800
000800
000800
000800
1fff00
000000
000000
000000
ENDCHAR
STARTCHAR 2567
ENCODING 9575
SWIDTH 1000 0
DWIDTH 18 0
BBX 18 18 0 -2
BITMAP
000000
000000
000000
000000
000000
000000
0ff000
001000
001000
001000
07f000
001000
001000
001000
0ff000
000000
000000
000000
ENDCHAR
STARTCHAR 2568
ENCODING 9576
SWIDTH 1000 0
DWIDTH 18 0
BBX 18 18 0 -2
BITMAP
000000
000000
000000
0ffe00
000200
000200
000200
000200
07fe00
000200
000200
000200
000200
000200
0ffe00
000000
000000
000000
ENDCHAR
STARTCHAR 2569
ENCODING 9577
SWIDTH 1000 0
DWIDTH 18 0
BBX 18 18 0 -2
BITMAP
000000
000000
000000
0ffe00
000000
000000
000000
1fff00
000100
000100
000200
000200
000400
001800
006000
038000
000000
000000
ENDCHAR
STARTCHAR 256a
ENCODING 9578
SWIDTH 1000 0
DWIDTH 18 0
BBX 18 18 0 -2
BITMAP
000000
000000
000400
040400
040400
040400
040400
040400
040400
040400
040400
000800
000800
001000
006000
038000
000000
000000
ENDCHAR
STARTCHAR 256b
ENCODING 9579
SWIDTH 1000 0
DWIDTH 18 0
BBX 18 18 0 -2
BITMAP
000000
000000
000000
001000
021000
021000
021000
021080
021080
021080
021100
041100
041200
081400
100800
200000
000000
000000
ENDCHAR
STARTCHAR 256c
ENCODING 9580
SWIDTH 1000 0
DWIDTH 18 0
BBX 18 18 0 -2
BITMAP
000000
000000
040000
040000
040000
040000
040000
040100
040100
040200
040200
040400
040800
041000
046000
078000
000000
000000
ENDCHAR
STARTCHAR 256d
ENCODING 9581
SWIDTH 1000 0
DWIDTH 18 0
BBX 18 18 0 -2
BITMAP
000000
000000
000000
000000
0ffe00
080200
080200
080200
080200
080200
080200
080200
080200
080200
0ffe00
000000
000000
000000
ENDCHAR
STARTCHAR 256e
ENCODING 9582
SWIDTH 1000 0
DWIDTH 18 0
BBX 18 18 0 -2
BITMAP
000000
000000
000000
000000
000000
000000
0ff800
080800
080800
080800
000800
001000
001000
002000
00c000
030000
000000
000000
ENDCHAR
STARTCHAR 256f
ENCODING 9583
SWIDTH 1000 0
DWIDTH 18 0
BBX 18 18 0 -2
BITMAP
000000
000000
000000
0ffe00
080200
080200
080200
080200
080200
000200
000400
000400
000800
001000
006000
038000
000000
000000
ENDCHAR
STARTCHAR 2570
ENCODING 9584
SWIDTH 1000 0
DWIDTH 18 0
BBX 18 18 0 -2
BITMAP
000000
000000
001000
001000
001000
1fff00
021000
021000
021000
021000
021000
1fff00
001000
001000
001000
001000
000000
000000
ENDCHAR
STARTCHAR 2571
ENCODING 9585
SWIDTH 1000 0
DWIDTH 18 0
BBX 18 18 0 -2
BITMAP
000000
000000
000000
000000
0ffe00
000200
000200
004400
005800
006000
004000
004000
004000
004000
1fff00
000000
000000
000000
ENDCHAR
STARTCHAR 2572
ENCODING 9586
SWIDTH 1000 0
DWIDTH 18 0
BBX 18 18 0 -2
BITMAP
000000
000000
000000
0ffe00
000200
000200
000200
07fe00
000200
000200
000400
000400
000800
001000
00e000
070000
000000
000000
ENDCHAR
STARTCHAR 2573
ENCODING 9587
SWIDTH 1000 0
DWIDTH 18 0
BBX 18 18 0 -2
BITMAP
000000
000000
000000
0c0000
030000
008000
000100
000100
000100
000200
000200
000400
000800
003000
00c000
070000
000000
000000
ENDCHAR
STARTCHAR 2574
ENCODING 9588
SWIDTH 1000 0
DWIDTH 18 0
BBX 18 18 0 -2
BITMAP
000000
000480
004240
004000
0ffe00
080200
080200
080200
080200
080200
000400
000400
000800
001000
006000
018000
000000
000000
ENDCHAR
STARTCHAR 2575
ENCODING 9589
SWIDTH 1000 0
DWIDTH 18 0
BBX 18 18 0 -2
BITMAP
000000
000000
000000
000000
000000
010000
010000
1ff000
011000
011000
011000
021000
021000
042000
082000
10c000
000000
000000
ENDCHAR
STARTCHAR 2576
ENCODING 9590
SWIDTH 1000 0
DWIDTH 18 0
BBX 18 18 0 -2
BITMAP
000000
000000
000000
000000
000000
040000
040000
07f800
084000
084000
104000
004000
008000
008000
010000
060000
000000
000000
ENDCHAR
STARTCHAR 2621
ENCODING 9761
SWIDTH 1000 0
DWIDTH 18 0
BBX 18 18 0 -2
BITMAP
000000
000000
004000
004000
00a000
00a000
011000
011000
020800
020800
07fc00
040400
080200
080200
1c0700
000000
000000
000000
ENDCHAR
STARTCHAR 2622
ENCODING 9762
SWIDTH 1000 0
DWIDTH 18 0
BBX 18 18 0 -2
BITMAP
000000
000000
0ff000
040c00
040200
040200
040200
040c00
07f000
040c00
040200
040200
040200
040c00
0ff000
000000
000000
000000
ENDCHAR
STARTCHAR 2623
ENCODING 9763
SWIDTH 1000 0
DWIDTH 18 0
BBX 18 18 0 -2
BITMAP
000000
000000
0ffe00
040200
040200
040000
040000
040000
040000
040000
040000
040000
040000
040000
0e0000
000000
000000
000000
ENDCHAR
STARTCHAR 2624
ENCODING 9764
SWIDTH 1000 0
DWIDTH 18 0
BBX 18 18 0 -2
BITMAP
000000
000000
004000
004000
00a000
00a000
011000
011000
020800
020800
040400
040400
080200
080200
1fff00
000000
000000
000000
ENDCHAR
STARTCHAR 2625
ENCODING 9765
SWIDTH 1000 0
DWIDTH 18 0
BBX 18 18 0 -2
BITMAP
000000
000000
0ffc00
040400
040400
040000
040000
041000
07f000
041000
040000
040000
040400
040400
0ffc00
000000
000000
000000
ENDCHAR
STARTCHAR 2626
ENCODING 9766
SWIDTH 1000 0
DWIDTH 18 0
BBX 18 18 0 -2
BITMAP
000000
000000
0ffe00
080400
080800
001000
001000
002000
004000
008000
010000
010000
020200
040200
0ffe00
000000
000000
000000
ENDCHAR
STARTCHAR 2627
ENCODING 9767
SWIDTH 1000 0
DWIDTH 18 0
BBX 18 18 0 -2
BITMAP
000000
000000
0e0e00
040400
040400
040400
040400
040400
07fc00
040400
040400
040400
040400
040400
0e0e00
000000
000000
000000
ENDCHAR
STARTCHAR 2628
ENCODING 9768
SWIDTH 1000 0
DWIDTH 18 0
BBX 18 18 0 -2
BITMAP
000000
000000
01f000
060c00
080200
080200
120900
120900
13f900
120900
120900
080200
080200
060c00
01f000
000000
000000
000000
ENDCHAR
STARTCHAR 2629
ENCODING 9769
SWIDTH 1000 0
DWIDTH 18 0
BBX 18 18 0 -2
BITMAP
000000
000000
00e000
004000
004000
004000
004000
004000
004000
004000
004000
004000
004000
004000
00e000
000000
000000
000000
ENDCHAR
STARTCHAR 262a
ENCODING 9770
SWIDTH 1000 0
DWIDTH 18 0
BBX 18 18 0 -2
BITMAP
000000
000000
0e0e00
040800
041000
042000
044000
048000
054000
062000
042000
041000
041000
040800
0e0e00
000000
000000
000000
ENDCHAR
STARTCHAR 262b
ENCODING 9771
SWIDTH 1000 0
DWIDTH 18 0
BBX 18 18 0 -2
BITMAP
000000
000000
004000
004000
00a000
00a000
011000
011000
020800
020800
040400
040400
080200
080200
1c0700
000000
000000
000000
ENDCHAR
STARTCHAR 262c
ENCODING 9772
SWIDTH 1000 0
DWIDTH 18 0
BBX 18 18 0 -2
BITMAP
000000
000000
380380
140500
140500
120900
120900
120900
111100
111100
111100
10a100
10a100
104100
384380
000000
000000
000000
ENDCHAR
STARTCHAR 262d
ENCODING 9773
SWIDTH 1000 0
DWIDTH 18 0
BBX 18 18 0 -2
BITMAP
000000
000000
1c0700
0a0200
090200
090200
088200
084200
084200
082200
081200
081200
080a00
080600
1c0600
000000
000000
000000
ENDCHAR
STARTCHAR 262e
ENCODING 9774
SWIDTH 1000 0
DWIDTH 18 0
BBX 18 18 0 -2
BITMAP
000000
000000
0ffe00
080200
080200
000000
000000
080200
0ffe00
080200
000000
000000
080200
080200
0ffe00
000000
000000
000000
ENDCHAR
STARTCHAR 262f
ENCODING 9775
SWIDTH 1000 0
DWIDTH 18 0
BBX 18 18 0 -2
BITMAP
000000
000000
01f000
060c00
080200
080200
100100
100100
100100
100100
100100
100100
080200
080200
060c00
01f000
000000
000000
ENDCHAR
STARTCHAR 2630
ENCODING 9776
SWIDTH 1000 0
DWIDTH 18 0
BBX 18 18 0 -2
BITMAP
000000
000000
0ffe00
040400
040400
040400
040400
040400
040400
040400
040400
040400
040400
040400
0e0e00
000000
000000
000000
ENDCHAR
STARTCHAR 2631
ENCODING 9777
SWIDTH 1000 0
DWIDTH 18 0
BBX 18 18 0 -2
BITMAP
000000
000000
0ff000
040c00
040200
040200
040200
040c00
07f000
040000
040000
040000
040000
040000
0e0000
000000
000000
000000
ENDCHAR
STARTCHAR 2632
ENCODING 9778
SWIDTH 1000 0
DWIDTH 18 0
BBX 18 18 0 -2
BITMAP
000000
000000
0ffe00
040200
020200
010000
008000
004000
002000
004000
008000
010000
020200
040200
0ffe00
000000
000000
000000
ENDCHAR
STARTCHAR 2633
ENCODING 9779
SWIDTH 1000 0
DWIDTH 18 0
BBX 18 18 0 -2
BITMAP
000000
000000
1fff00
104100
104100
004000
004000
004000
004000
004000
004000
004000
004000
004000
00e000
000000
000000
000000
ENDCHAR
STARTCHAR 2634
ENCODING 9780
SWIDTH 1000 0
DWIDTH 18 0
BBX 18 18 0 -2
BITMAP
000000
000000
0f1c00
00a200
004100
004000
004000
004000
004000
004000
004000
004000
004000
004000
00e000
000000
000000
000000
ENDCHAR
STARTCHAR 2635
ENCODING 9781
SWIDTH 1000 0
DWIDTH 18 0
BBX 18 18 0 -2
BITMAP
000000
000000
00e000
004000
07fc00
084200
104100
104100
104100
104100
104100
084200
07fc00
004000
00e000
000000
000000
000000
ENDCHAR
STARTCHAR 2636
ENCODING 9782
SWIDTH 1000 0
DWIDTH 18 0
BBX 18 18 0 -2
BITMAP
000000
000000
1c0700
040400
020800
011000
011000
00a000
004000
00a000
011000
011000
020800
040400
1c0700
000000
000000
000000
ENDCHAR
STARTCHAR 2637
ENCODING 9783
SWIDTH 1000 0
DWIDTH 18 0
BBX 18 18 0 -2
BITMAP
000000
000000
18e300
244480
044400
044400
044400
044400
044400
044400
024800
01f000
004000
004000
00e000
000000
000000
000000
ENDCHAR
STARTCHAR 2638
ENCODING 9784
SWIDTH 1000 0
DWIDTH 18 0
BBX 18 18 0 -2
BITMAP
000000
000000
01f000
060c00
080200
080200
100100
100100
100100
100100
080200
080200
060c00
111100
1f1f00
000000
000000
000000
ENDCHAR
STARTCHAR 2641
ENCODING 9793
SWIDTH 1000 0
DWIDTH 18 0
BBX 18 18 0 -2
BITMAP
000000
000000
000000
000000
000000
000000
006000
019200
020a00
040c00
040800
041800
042800
044800
038600
000000
000000
000000
ENDCHAR
STARTCHAR 2642
ENCODING 9794
SWIDTH 1000 0
DWIDTH 18 0
BBX 18 18 0 -2
BITMAP
000000
000000
007000
008800
010800
010800
010800
010800
02f000
021000
020800
020800
020800
031000
04e000
040000
040000
000000
ENDCHAR
STARTCHAR 2643
ENCODING 9795
SWIDTH 1000 0
DWIDTH 18 0
BBX 18 18 0 -2
BITMAP
000000
000000
000000
000000
000000
000000
039800
046000
004000
004000
008000
008000
008000
008000
010000
010000
010000
000000
ENDCHAR
STARTCHAR 2644
ENCODING 9796
SWIDTH 1000 0
DWIDTH 18 0
BBX 18 18 0 -2
BITMAP
000000
000000
007000
008800
004000
002000
00f000
011000
010800
020800
020800
020800
021000
021000
01e000
000000
000000
000000
ENDCHAR
STARTCHAR 2645
ENCODING 9797
SWIDTH 1000 0
DWIDTH 18 0
BBX 18 18 0 -2
BITMAP
000000
000000
000000
000000
000000
000000
00f000
010800
010000
00e000
010000
020000
020800
021000
01e000
000000
000000
000000
ENDCHAR
STARTCHAR 2646
ENCODING 9798
SWIDTH 1000 0
DWIDTH 18 0
BBX 18 18 0 -2
BITMAP
000000
000000
008000
013800
014000
008000
010000
010000
020000
020000
020000
020000
020000
01f000
000800
000800
007000
000000
ENDCHAR
STARTCHAR 2647
ENCODING 9799
SWIDTH 1000 0
DWIDTH 18 0
BBX 18 18 0 -2
BITMAP
000000
000000
000000
000000
000000
000000
073800
00c400
008400
008400
008400
010800
010800
020800
021000
001000
001000
000000
ENDCHAR
STARTCHAR 2648
ENCODING 9800
SWIDTH 1000 0
DWIDTH 18 0
BBX 18 18 0 -2
BITMAP
000000
000000
007000
008800
010800
010800
020800
020800
03f000
041000
041000
042000
042000
044000
038000
000000
000000
000000
ENDCHAR
STARTCHAR 2649
ENCODING 9801
SWIDTH 1000 0
DWIDTH 18 0
BBX 18 18 0 -2
BITMAP
000000
000000
000000
000000
000000
000000
002000
002000
004000
004000
008000
008000
010000
012000
00c000
000000
000000
000000
ENDCHAR
STARTCHAR 264a
ENCODING 9802
SWIDTH 1000 0
DWIDTH 18 0
BBX 18 18 0 -2
BITMAP
000000
000000
000000
000000
000000
000000
010c00
013000
014000
018000
014000
024000
024400
044800
043000
000000
000000
000000
ENDCHAR
STARTCHAR 264b
ENCODING 9803
SWIDTH 1000 0
DWIDTH 18 0
BBX 18 18 0 -2
BITMAP
000000
000000
00e000
001000
001000
001000
002000
002000
004000
006000
00a000
00a000
012000
022000
041c00
000000
000000
000000
ENDCHAR
STARTCHAR 264c
ENCODING 9804
SWIDTH 1000 0
DWIDTH 18 0
BBX 18 18 0 -2
BITMAP
000000
000000
000000
000000
000000
000000
008400
008400
010400
010800
010800
021000
021000
023200
05cc00
040000
080000
000000
ENDCHAR
STARTCHAR 264d
ENCODING 9805
SWIDTH 1000 0
DWIDTH 18 0
BBX 18 18 0 -2
BITMAP
000000
000000
000000
000000
000000
000000
040400
020400
020400
020400
020800
020800
021000
026000
078000
000000
000000
000000
ENDCHAR
STARTCHAR 264e
ENCODING 9806
SWIDTH 1000 0
DWIDTH 18 0
BBX 18 18 0 -2
BITMAP
000000
000000
004000
008000
00f800
010000
010000
008000
00f000
010000
020000
020000
020000
01c000
002000
002000
01c000
000000
ENDCHAR
STARTCHAR 264f
ENCODING 9807
SWIDTH 1000 0
DWIDTH 18 0
BBX 18 18 0 -2
BITMAP
000000
000000
000000
000000
000000
000000
00f000
010800
010800
020800
020800
020800
021000
021000
01e000
000000
000000
000000
ENDCHAR
STARTCHAR 2650
ENCODING 9808
SWIDTH 1000 0
DWIDTH 18 0
BBX 18 18 0 -2
BITMAP
000000
000000
000000
000000
000000
000000
03fc00
049000
009000
009000
012000
012000
022000
022000
041c00
000000
000000
000000
ENDCHAR
STARTCHAR 2651
ENCODING 9809
SWIDTH 1000 0
DWIDTH 18 0
BBX 18 18 0 -2
BITMAP
000000
000000
000000
000000
000000
000000
00f000
010800
010800
020800
020800
020800
021000
021000
05e000
040000
040000
000000
ENDCHAR
STARTCHAR 2652
ENCODING 9810
SWIDTH 1000 0
DWIDTH 18 0
BBX 18 18 0 -2
BITMAP
000000
000000
000000
000000
000000
000000
00fe00
010800
010800
020800
020800
020800
021000
021000
01e000
000000
000000
000000
ENDCHAR
STARTCHAR 2653
ENCODING 9811
SWIDTH 1000 0
DWIDTH 18 0
BBX 18 18 0 -2
BITMAP
000000
000000
000000
000000
000000
000000
03fc00
044000
008000
008000
008000
010000
010000
012000
00c000
000000
000000
000000
ENDCHAR
STARTCHAR 2654
ENCODING 9812
SWIDTH 1000 0
DWIDTH 18 0
BBX 18 18 0 -2
BITMAP
000000
000000
000000
000000
000000
000000
020800
010800
010800
010800
020800
021000
021000
022000
01c000
000000
000000
000000
ENDCHAR
STARTCHAR 2655
ENCODING 9813
SWIDTH 1000 0
DWIDTH 18 0
BBX 18 18 0 -2
BITMAP
000000
000000
001000
001000
001000
001000
00f800
012400
022200
042200
044200
044200
044400
024800
01f000
008000
008000
000000
ENDCHAR
STARTCHAR 2656
ENCODING 9814
SWIDTH 1000 0
DWIDTH 18 0
BBX 18 18 0 -2
BITMAP
000000
000000
000000
000000
000000
018000
024800
004800
005000
005000
006000
004000
004000
00c000
014000
014400
023800
000000
ENDCHAR
STARTCHAR 2657
ENCODING 9815
SWIDTH 1000 0
DWIDTH 18 0
BBX 18 18 0 -2
BITMAP
000000
000000
002000
002000
002000
002000
064800
0c4600
044400
084400
088400
088800
088800
04b000
03c000
010000
010000
000000
ENDCHAR
STARTCHAR 2658
ENCODING 9816
SWIDTH 1000 0
DWIDTH 18 0
BBX 18 18 0 -2
BITMAP
000000
000000
000000
000000
000000
000000
010400
022200
042200
044200
084200
088400
088400
088800
077000
000000
000000
000000
ENDCHAR
STARTCHAR 2721
ENCODING 10017
SWIDTH 1000 0
DWIDTH 18 0
BBX 18 18 0 -2
BITMAP
000000
000000
004000
004000
00a000
00a000
011000
011000
020800
020800
07fc00
040400
080200
080200
1c0700
000000
000000
000000
ENDCHAR
STARTCHAR 2722
ENCODING 10018
SWIDTH 1000 0
DWIDTH 18 0
BBX 18 18 0 -2
BITMAP
000000
000000
0ff800
040400
040000
040000
040000
040000
07f000
040c00
040200
040200
040200
040c00
0ff000
000000
000000
000000
ENDCHAR
STARTCHAR 2723
ENCODING 10019
SWIDTH 1000 0
DWIDTH 18 0
BBX 18 18 0 -2
BITMAP
000000
000000
0ff000
040c00
040200
040200
040200
040c00
07f000
040c00
040200
040200
040200
040c00
0ff000
000000
000000
000000
ENDCHAR
STARTCHAR 2724
ENCODING 10020
SWIDTH 1000 0
DWIDTH 18 0
BBX 18 18 0 -2
BITMAP
000000
000000
0ffc00
040200
040000
040000
040000
040000
040000
040000
040000
040000
040000
040000
0e0000
000000
000000
000000
ENDCHAR
STARTCHAR 2725
ENCODING 10021
SWIDTH 1000 0
DWIDTH 18 0
BBX 18 18 0 -2
BITMAP
000000
000000
03fe00
010400
010400
010400
010400
020400
020400
020400
020400
020400
040400
040400
1ffe00
100200
000000
000000
ENDCHAR
STARTCHAR 2726
ENCODING 10022
SWIDTH 1000 0
DWIDTH 18 0
BBX 18 18 0 -2
BITMAP
000000
000000
0ffc00
040400
040400
040000
040000
041000
07f000
041000
040000
040000
040400
040400
0ffc00
000000
000000
000000
ENDCHAR
STARTCHAR 2727
ENCODING 10023
SWIDTH 1000 0
DWIDTH 18 0
BBX 18 18 0 -2
BITMAP
000000
033000
000000
0ffc00
040400
040400
040000
041000
07f000
041000
040000
040000
040400
040400
0ffc00
000000
000000
000000
ENDCHAR
STARTCHAR 2728
ENCODING 10024
SWIDTH 1000 0
DWIDTH 18 0
BBX 18 18 0 -2
BITMAP
000000
000000
18e300
044400
044400
044400
044400
024800
01f000
024800
024800
044400
044400
084200
1ce700
000000
000000
000000
ENDCHAR
STARTCHAR 2729
ENCODING 10025
SWIDTH 1000 0
DWIDTH 18 0
BBX 18 18 0 -2
BITMAP
000000
000000
07f000
080c00
000200
000200
000200
000c00
01f000
000c00
000200
000200
000200
080c00
07f000
000000
000000
000000
ENDCHAR
STARTCHAR 272a
ENCODING 10026
SWIDTH 1000 0
DWIDTH 18 0
BBX 18 18 0 -2
BITMAP
000000
000000
1c0700
080200
080600
080a00
081200
082200
084200
088200
090200
0a0200
0c0200
080200
1c0700
000000
000000
000000
ENDCHAR
STARTCHAR 272b
ENCODING 10027
SWIDTH 1000 0
DWIDTH 18 0
BBX 18 18 0 -2
BITMAP
000000
011000
1ce700
080200
080600
080a00
081200
082200
084200
088200
090200
0a0200
0c0200
080200
1c0700
000000
000000
000000
ENDCHAR
STARTCHAR 272c
ENCODING 10028
SWIDTH 1000 0
DWIDTH 18 0
BBX 18 18 0 -2
BITMAP
000000
000000
0e0c00
041200
042000
042000
044000
044000
078000
044000
042000
042000
041000
040800
0e0600
000000
000000
000000
ENDCHAR
STARTCHAR 272d
ENCODING 10029
SWIDTH 1000 0
DWIDTH 18 0
BBX 18 18 0 -2
BITMAP
000000
000000
03fe00
008400
008400
008400
008400
010400
010400
010400
010400
020400
020400
120400
0c0e00
000000
000000
000000
ENDCHAR
STARTCHAR 272e
ENCODING 10030
SWIDTH 1000 0
DWIDTH 18 0
BBX 18 18 0 -2
BITMAP
000000
000000
380380
140500
140500
120900
120900
120900
111100
111100
111100
10a100
10a100
104100
384380
000000
000000
000000
ENDCHAR
STARTCHAR 272f
ENCODING 10031
SWIDTH 1000 0
DWIDTH 18 0
BBX 18 18 0 -2
BITMAP
000000
000000
0e0e00
040400
040400
040400
040400
040400
07fc00
040400
040400
040400
040400
040400
0e0e00
000000
000000
000000
ENDCHAR
STARTCHAR 2730
ENCODING 10032
SWIDTH 1000 0
DWIDTH 18 0
BBX 18 18 0 -2
BITMAP
000000
000000
01f000
060c00
080200
080200
100100
100100
100100
100100
100100
080200
080200
060c00
01f000
000000
000000
000000
ENDCHAR
STARTCHAR 2731
ENCODING 10033
SWIDTH 1000 0
DWIDTH 18 0
BBX 18 18 0 -2
BITMAP
000000
000000
0ffe00
040400
040400
040400
040400
040400
040400
040400
040400
040400
040400
040400
0e0e00
000000
000000
000000
ENDCHAR
STARTCHAR 2732
ENCODING 10034
SWIDTH 1000 0
DWIDTH 18 0
BBX 18 18 0 -2
BITMAP
000000
000000
0ff000
040c00
040200
040200
040200
040c00
07f000
040000
040000
040000
040000
040000
0e0000
000000
000000
000000
ENDCHAR
STARTCHAR 2733
ENCODING 10035
SWIDTH 1000 0
DWIDTH 18 0
BBX 18 18 0 -2
BITMAP
000000
000000
00f800
030400
040200
040200
080000
080000
080000
080000
080000
040200
040200
030400
00f800
000000
000000
000000
ENDCHAR
STARTCHAR 2734
ENCODING 10036
SWIDTH 1000 0
DWIDTH 18 0
BBX 18 18 0 -2
BITMAP
000000
000000
1fff00
104100
104100
004000
004000
004000
004000
004000
004000
004000
004000
004000
00e000
000000
000000
000000
ENDCHAR
STARTCHAR 2735
ENCODING 10037
SWIDTH 1000 0
DWIDTH 18 0
BBX 18 18 0 -2
BITMAP
000000
000000
1c0700
080200
080200
040400
040400
020800
020800
011000
011000
00a000
044000
048000
030000
000000
000000
000000
ENDCHAR
STARTCHAR 2736
ENCODING 10038
SWIDTH 1000 0
DWIDTH 18 0
BBX 18 18 0 -2
BITMAP
000000
000000
00e000
004000
07fc00
084200
104100
104100
104100
104100
104100
084200
07fc00
004000
00e000
000000
000000
000000
ENDCHAR
STARTCHAR 2737
ENCODING 10039
SWIDTH 1000 0
DWIDTH 18 0
BBX 18 18 0 -2
BITMAP
000000
000000
1c0700
040400
020800
011000
011000
00a000
004000
00a000
011000
011000
020800
040400
1c0700
000000
000000
000000
ENDCHAR
STARTCHAR 2738
ENCODING 10040
SWIDTH 1000 0
DWIDTH 18 0
BBX 18 18 0 -2
BITMAP
000000
000000
0e0e00
040400
040400
040400
040400
040400
040400
040400
040400
040400
040400
040400
0ffe00
000100
000000
000000
ENDCHAR
STARTCHAR 2739
ENCODING 10041
SWIDTH 1000 0
DWIDTH 18 0
BBX 18 18 0 -2
BITMAP
000000
000000
1c0e00
080400
080400
080400
080400
080400
080400
060c00
01f400
000400
000400
000400
000e00
000000
000000
000000
ENDCHAR
STARTCHAR 273a
ENCODING 10042
SWIDTH 1000 0
DWIDTH 18 0
BBX 18 18 0 -2
BITMAP
000000
000000
1ce700
084200
084200
084200
084200
084200
084200
084200
084200
084200
084200
084200
1fff00
000000
000000
000000
ENDCHAR
STARTCHAR 273b
ENCODING 10043
SWIDTH 1000 0
DWIDTH 18 0
BBX 18 18 0 -2
BITMAP
000000
000000
1ce700
084200
084200
084200
084200
084200
084200
084200
084200
084200
084200
084200
1fff00
000180
000000
000000
ENDCHAR
STARTCHAR 273c
ENCODING 10044
SWIDTH 1000 0
DWIDTH 18 0
BBX 18 18 0 -2
BITMAP
000000
000000
0fc000
088000
088000
008000
008000
00f800
008600
008100
008100
008100
008100
008600
01f800
000000
000000
000000
ENDCHAR
STARTCHAR 273d
ENCODING 10045
SWIDTH 1000 0
DWIDTH 18 0
BBX 18 18 0 -2
BITMAP
000000
000000
1c0700
080200
080200
080200
080200
0f8200
086200
081200
081200
081200
081200
086200
1f8700
000000
000000
000000
ENDCHAR
STARTCHAR 273e
ENCODING 10046
SWIDTH 1000 0
DWIDTH 18 0
BBX 18 18 0 -2
BITMAP
000000
000000
0e0000
040000
040000
040000
040000
07f000
040c00
040200
040200
040200
040200
040c00
0ff000
000000
000000
000000
ENDCHAR
STARTCHAR 273f
ENCODING 10047
SWIDTH 1000 0
DWIDTH 18 0
BBX 18 18 0 -2
BITMAP
000000
000000
03e000
041800
080400
000400
000200
00f200
030e00
000200
000200
000400
080400
041800
03e000
000000
000000
000000
ENDCHAR
STARTCHAR 2740
ENCODING 10048
SWIDTH 1000 0
DWIDTH 18 0
BBX 18 18 0 -2
BITMAP
000000
000000
1c7800
088400
088400
090200
090200
090200
0f0200
090200
090200
090200
088400
088400
1c7800
000000
000000
000000
ENDCHAR
STARTCHAR 2741
ENCODING 10049
SWIDTH 1000 0
DWIDTH 18 0
BBX 18 18 0 -2
BITMAP
000000
000000
01fe00
060400
080400
080400
080400
060400
01fc00
008400
008400
010400
010400
020400
0c0e00
000000
000000
000000
ENDCHAR
STARTCHAR 2751
ENCODING 10065
SWIDTH 1000 0
DWIDTH 18 0
BBX 18 18 0 -2
BITMAP
000000
000000
000000
000000
000000
000000
01e000
021000
040800
00f800
030800
040800
040800
041800
03ec00
000000
000000
000000
ENDCHAR
STARTCHAR 2752
ENCODING 10066
SWIDTH 1000 0
DWIDTH 18 0
BBX 18 18 0 -2
BITMAP
000000
000000
000400
00f800
010000
020000
02f000
030800
020400
020400
020400
020400
020400
010800
00f000
000000
000000
000000
ENDCHAR
STARTCHAR 2753
ENCODING 10067
SWIDTH 1000 0
DWIDTH 18 0
BBX 18 18 0 -2
BITMAP
000000
000000
000000
000000
000000
000000
07f000
020800
020400
020400
03f800
020400
020400
020800
07f000
000000
000000
000000
ENDCHAR
STARTCHAR 2754
ENCODING 10068
SWIDTH 1000 0
DWIDTH 18 0
BBX 18 18 0 -2
BITMAP
000000
000000
000000
000000
000000
000000
07fc00
020400
020400
020000
020000
020000
020000
020000
070000
000000
000000
000000
ENDCHAR
STARTCHAR 2755
ENCODING 10069
SWIDTH 1000 0
DWIDTH 18 0
BBX 18 18 0 -2
BITMAP
000000
000000
000000
000000
000000
000000
07fc00
010800
010800
020800
020800
020800
040800
040800
07f800
080400
000000
000000
ENDCHAR
STARTCHAR 2756
ENCODING 10070
SWIDTH 1000 0
DWIDTH 18 0
BBX 18 18 0 -2
BITMAP
000000
000000
000000
000000
000000
000000
01f000
020800
040400
040400
07f800
040000
040000
020800
01f000
000000
000000
000000
ENDCHAR
STARTCHAR 2757
ENCODING 10071
SWIDTH 1000 0
DWIDTH 18 0
BBX 18 18 0 -2
BITMAP
000000
000000
000000
000000
011000
000000
01f000
020800
040400
040400
07fc00
040000
040000
020800
01f000
000000
000000
000000
ENDCHAR
STARTCHAR 2758
ENCODING 10072
SWIDTH 1000 0
DWIDTH 18 0
BBX 18 18 0 -2
BITMAP
000000
000000
000000
000000
000000
000000
0ce600
124900
024800
015000
00e000
015000
024800
044400
1ce700
000000
000000
000000
ENDCHAR
STARTCHAR 2759
ENCODING 10073
SWIDTH 1000 0
DWIDTH 18 0
BBX 18 18 0 -2
BITMAP
000000
000000
000000
000000
000000
000000
03f000
040800
000400
000800
01f000
000800
000400
040800
03f000
000000
000000
000000
ENDCHAR
STARTCHAR 275a
ENCODING 10074
SWIDTH 1000 0
DWIDTH 18 0
BBX 18 18 0 -2
BITMAP
000000
000000
000000
000000
000000
000000
071c00
020800
021800
022800
024800
028800
030800
020800
071c00
000000
000000
000000
ENDCHAR
STARTCHAR 275b
ENCODING 10075
SWIDTH 1000 0
DWIDTH 18 0
BBX 18 18 0 -2
BITMAP
000000
000000
000000
011000
00e000
000000
071c00
020800
021800
022800
024800
028800
030800
020800
071c00
000000
000000
000000
ENDCHAR
STARTCHAR 275c
ENCODING 10076
SWIDTH 1000 0
DWIDTH 18 0
BBX 18 18 0 -2
BITMAP
000000
000000
000000
000000
000000
000000
071800
022400
022000
024000
038000
024000
022000
021000
070c00
000000
000000
000000
ENDCHAR
STARTCHAR 275d
ENCODING 10077
SWIDTH 1000 0
DWIDTH 18 0
BBX 18 18 0 -2
BITMAP
000000
000000
000000
000000
000000
000000
03fc00
010800
010800
010800
010800
010800
020800
120800
0c1c00
000000
000000
000000
ENDCHAR
STARTCHAR 275e
ENCODING 10078
SWIDTH 1000 0
DWIDTH 18 0
BBX 18 18 0 -2
BITMAP
000000
000000
000000
000000
000000
000000
0e0e00
051400
051400
051400
04a400
04a400
04a400
044400
0e4e00
000000
000000
000000
ENDCHAR
STARTCHAR 275f
ENCODING 10079
SWIDTH 1000 0
DWIDTH 18 0
BBX 18 18 0 -2
BITMAP
000000
000000
000000
000000
000000
000000
071c00
020800
020800
020800
03f800
020800
020800
020800
071c00
000000
000000
000000
ENDCHAR
STARTCHAR 2760
ENCODING 10080
SWIDTH 1000 0
DWIDTH 18 0
BBX 18 18 0 -2
BITMAP
000000
000000
000000
000000
000000
000000
01f000
020800
040400
040400
040400
040400
040400
020800
01f000
000000
000000
000000
ENDCHAR
STARTCHAR 2761
ENCODING 10081
SWIDTH 1000 0
DWIDTH 18 0
BBX 18 18 0 -2
BITMAP
000000
000000
000000
000000
000000
000000
07fc00
020800
020800
020800
020800
020800
020800
020800
071c00
000000
000000
000000
ENDCHAR
STARTCHAR 2762
ENCODING 10082
SWIDTH 1000 0
DWIDTH 18 0
BBX 18 18 0 -2
BITMAP
000000
000000
000000
000000
000000
000000
06f000
030800
020400
020400
020400
020400
030800
02f000
020000
020000
070000
000000
ENDCHAR
STARTCHAR 2763
ENCODING 10083
SWIDTH 1000 0
DWIDTH 18 0
BBX 18 18 0 -2
BITMAP
000000
000000
000000
000000
000000
000000
01f000
020800
040400
040000
040000
040000
040400
020800
01f000
000000
000000
000000
ENDCHAR
STARTCHAR 2764
ENCODING 10084
SWIDTH 1000 0
DWIDTH 18 0
BBX 18 18 0 -2
BITMAP
000000
000000
000000
000000
000000
000000
0ffe00
084200
004000
004000
004000
004000
004000
004000
00e000
000000
000000
000000
ENDCHAR
STARTCHAR 2765
ENCODING 10085
SWIDTH 1000 0
DWIDTH 18 0
BBX 18 18 0 -2
BITMAP
000000
000000
000000
000000
000000
000000
0e0e00
040400
020800
020800
011000
011000
00a000
00a000
004000
048000
030000
000000
ENDCHAR
STARTCHAR 2766
ENCODING 10086
SWIDTH 1000 0
DWIDTH 18 0
BBX 18 18 0 -2
BITMAP
000000
000000
000000
000000
000000
000000
00e000
004000
03f800
044400
044400
044400
03f800
004000
00e000
000000
000000
000000
ENDCHAR
STARTCHAR 2767
ENCODING 10087
SWIDTH 1000 0
DWIDTH 18 0
BBX 18 18 0 -2
BITMAP
000000
000000
000000
000000
000000
000000
0e0e00
020800
011000
00a000
004000
00a000
011000
020800
0e0e00
000000
000000
000000
ENDCHAR
STARTCHAR 2768
ENCODING 10088
SWIDTH 1000 0
DWIDTH 18 0
BBX 18 18 0 -2
BITMAP
000000
000000
000000
000000
000000
000000
071c00
020800
020800
020800
020800
020800
020800
020800
07f800
000400
000000
000000
ENDCHAR
STARTCHAR 2769
ENCODING 10089
SWIDTH 1000 0
DWIDTH 18 0
BBX 18 18 0 -2
BITMAP
000000
000000
000000
000000
000000
000000
0e1c00
040800
040800
040800
040800
021800
01e800
000800
001c00
000000
000000
000000
ENDCHAR
STARTCHAR 276a
ENCODING 10090
SWIDTH 1000 0
DWIDTH 18 0
BBX 18 18 0 -2
BITMAP
000000
000000
000000
000000
000000
000000
1ce700
084200
084200
084200
084200
084200
084200
084200
1fff00
000000
000000
000000
ENDCHAR
STARTCHAR 276b
ENCODING 10091
SWIDTH 1000 0
DWIDTH 18 0
BBX 18 18 0 -2
BITMAP
000000
000000
000000
000000
000000
000000
1ce700
084200
084200
084200
084200
084200
084200
084200
1ffe00
000100
000000
000000
ENDCHAR
STARTCHAR 276c
ENCODING 10092
SWIDTH 1000 0
DWIDTH 18 0
BBX 18 18 0 -2
BITMAP
000000
000000
000000
000000
000000
000000
0fc000
090000
010000
01f000
010800
010400
010400
010800
03f000
000000
000000
000000
ENDCHAR
STARTCHAR 276d
ENCODING 10093
SWIDTH 1000 0
DWIDTH 18 0
BBX 18 18 0 -2
BITMAP
000000
000000
000000
000000
000000
000000
0e0e00
040400
040400
07c400
042400
041400
041400
042400
0fce00
000000
000000
000000
ENDCHAR
STARTCHAR 276e
ENCODING 10094
SWIDTH 1000 0
DWIDTH 18 0
BBX 18 18 0 -2
BITMAP
000000
000000
000000
000000
000000
000000
070000
020000
020000
03f000
020800
020400
020400
020800
07f000
000000
000000
000000
ENDCHAR
STARTCHAR 276f
ENCODING 10095
SWIDTH 1000 0
DWIDTH 18 0
BBX 18 18 0 -2
BITMAP
000000
000000
000000
000000
000000
000000
01f000
020800
000400
006400
019c00
000400
000400
020800
01f000
000000
000000
000000
ENDCHAR
STARTCHAR 2770
ENCODING 10096
SWIDTH 1000 0
DWIDTH 18 0
BBX 18 18 0 -2
BITMAP
000000
000000
000000
000000
000000
000000
0e3800
044400
048200
048200
078200
048200
048200
044400
0e3800
000000
000000
000000
ENDCHAR
STARTCHAR 2771
ENCODING 10097
SWIDTH 1000 0
DWIDTH 18 0
BBX 18 18 0 -2
BITMAP
000000
000000
000000
000000
000000
000000
01fc00
020800
040800
040800
020800
01f800
008800
010800
061c00
000000
000000
000000
ENDCHAR
STARTCHAR 2821
ENCODING 10273
SWIDTH 1000 0
DWIDTH 18 0
BBX 18 18 0 -2
BITMAP
000000
000000
000000
000000
000000
000000
000000
000000
ffffc0
000000
000000
000000
000000
000000
000000
000000
000000
000000
ENDCHAR
STARTCHAR 2822
ENCODING 10274
SWIDTH 1000 0
DWIDTH 18 0
BBX 18 18 0 -2
BITMAP
008000
008000
008000
008000
008000
008000
008000
008000
008000
008000
008000
008000
008000
008000
008000
008000
008000
008000
ENDCHAR
STARTCHAR 2823
ENCODING 10275
SWIDTH 1000 0
DWIDTH 18 0
BBX 18 18 0 -2
BITMAP
000000
000000
000000
000000
000000
000000
000000
000000
00ffc0
008000
008000
008000
008000
008000
008000
008000
008000
008000
ENDCHAR
STARTCHAR 2824
ENCODING 10276
SWIDTH 1000 0
DWIDTH 18 0
BBX 18 18 0 -2
BITMAP
000000
000000
000000
000000
000000
000000
000000
000000
ff8000
008000
008000
008000
008000
008000
008000
008000
008000
008000
ENDCHAR
STARTCHAR 2825
ENCODING 10277
SWIDTH 1000 0
DWIDTH 18 0
BBX 18 18 0 -2
BITMAP
008000
008000
008000
008000
008000
008000
008000
008000
ff8000
000000
000000
000000
000000
000000
000000
000000
000000
000000
ENDCHAR
STARTCHAR 2826
ENCODING 10278
SWIDTH 1000 0
DWIDTH 18 0
BBX 18 18 0 -2
BITMAP
008000
008000
008000
008000
008000
008000
008000
008000
00ffc0
000000
000000
000000
000000
000000
000000
000000
000000
000000
ENDCHAR
STARTCHAR 2827
ENCODING 10279
SWIDTH 1000 0
DWIDTH 18 0
BBX 18 18 0 -2
BITMAP
008000
008000
008000
008000
008000
008000
008000
008000
00ffc0
008000
008000
008000
008000
008000
008000
008000
008000
008000
ENDCHAR
STARTCHAR 2828
ENCODING 10280
SWIDTH 1000 0
DWIDTH 18 0
BBX 18 18 0 -2
BITMAP
000000
000000
000000
000000
000000
000000
000000
000000
ffffc0
008000
008000
008000
008000
008000
008000
008000
008000
008000
ENDCHAR
STARTCHAR 2829
ENCODING 10281
SWIDTH 1000 0
DWIDTH 18 0
BBX 18 18 0 -2
BITMAP
008000
008000
008000
008000
008000
008000
008000
008000
ff8000
008000
008000
008000
008000
008000
008000
008000
008000
008000
ENDCHAR
STARTCHAR 282a
ENCODING 10282
SWIDTH 1000 0
DWIDTH 18 0
BBX 18 18 0 -2
BITMAP
008000
008000
008000
008000
008000
008000
008000
008000
ffffc0
000000
000000
000000
000000
000000
000000
000000
000000
000000
ENDCHAR
STARTCHAR 282b
ENCODING 10283
SWIDTH 1000 0
DWIDTH 18 0
BBX 18 18 0 -2
BITMAP
008000
008000
008000
008000
008000
008000
008000
008000
ffffc0
008000
008000
008000
008000
008000
008000
008000
008000
008000
ENDCHAR
STARTCHAR 282c
ENCODING 10284
SWIDTH 1000 0
DWIDTH 18 0
BBX 18 18 0 -2
BITMAP
000000
000000
000000
000000
000000
000000
000000
000000
ffffc0
ffffc0
000000
000000
000000
000000
000000
000000
000000
000000
ENDCHAR
STARTCHAR 282d
ENCODING 10285
SWIDTH 1000 0
DWIDTH 18 0
BBX 18 18 0 -2
BITMAP
00c000
00c000
00c000
00c000
00c000
00c000
00c000
00c000
00c000
00c000
00c000
00c000
00c000
00c000
00c000
00c000
00c000
00c000
ENDCHAR
STARTCHAR 282e
ENCODING 10286
SWIDTH 1000 0
DWIDTH 18 0
BBX 18 18 0 -2
BITMAP
000000
000000
000000
000000
000000
000000
000000
000000
00ffc0
00ffc0
00c000
00c000
00c000
00c000
00c000
00c000
00c000
00c000
ENDCHAR
STARTCHAR 282f
ENCODING 10287
SWIDTH 1000 0
DWIDTH 18 0
BBX 18 18 0 -2
BITMAP
000000
000000
000000
000000
000000
000000
000000
000000
ffc000
ffc000
00c000
00c000
00c000
00c000
00c000
00c000
00c000
00c000
ENDCHAR
STARTCHAR 2830
ENCODING 10288
SWIDTH 1000 0
DWIDTH 18 0
BBX 18 18 0 -2
BITMAP
00c000
00c000
00c000
00c000
00c000
00c000
00c000
00c000
ffc000
ffc000
000000
000000
000000
000000
000000
000000
000000
000000
ENDCHAR
STARTCHAR 2831
ENCODING 10289
SWIDTH 1000 0
DWIDTH 18 0
BBX 18 18 0 -2
BITMAP
00c000
00c000
00c000
00c000
00c000
00c000
00c000
00c000
00ffc0
00ffc0
000000
000000
000000
000000
000000
000000
000000
000000
ENDCHAR
STARTCHAR 2832
ENCODING 10290
SWIDTH 1000 0
DWIDTH 18 0
BBX 18 18 0 -2
BITMAP
00c000
00c000
00c000
00c000
00c000
00c000
00c000
00c000
00ffc0
00ffc0
00c000
00c000
00c000
00c000
00c000
00c000
00c000
00c000
ENDCHAR
STARTCHAR 2833
ENCODING 10291
SWIDTH 1000 0
DWIDTH 18 0
BBX 18 18 0 -2
BITMAP
000000
000000
000000
000000
000000
000000
000000
000000
ffffc0
ffffc0
00c000
00c000
00c000
00c000
00c000
00c000
00c000
00c000
ENDCHAR
STARTCHAR 2834
ENCODING 10292
SWIDTH 1000 0
DWIDTH 18 0
BBX 18 18 0 -2
BITMAP
00c000
00c000
00c000
00c000
00c000
00c000
00c000
00c000
ffc000
ffc000
00c000
00c000
00c000
00c000
00c000
00c000
00c000
00c000
ENDCHAR
STARTCHAR 2835
ENCODING 10293
SWIDTH 1000 0
DWIDTH 18 0
BBX 18 18 0 -2
BITMAP
00c000
00c000
00c000
00c000
00c000
00c000
00c000
00c000
ffffc0
ffffc0
000000
000000
000000
000000
000000
000000
000000
000000
ENDCHAR
STARTCHAR 2836
ENCODING 10294
SWIDTH 1000 0
DWIDTH 18 0
BBX 18 18 0 -2
BITMAP
00c000
00c000
00c000
00c000
00c000
00c000
00c000
00c000
ffffc0
ffffc0
00c000
00c000
00c000
00c000
00c000
00c000
00c000
00c000
ENDCHAR
STARTCHAR 2837
ENCODING 10295
SWIDTH 1000 0
DWIDTH 18 0
BBX 18 18 0 -2
BITMAP
00c000
00c000
00c000
00c000
00c000
00c000
00c000
00c000
00ffc0
00c000
00c000
00c000
00c000
00c000
00c000
00c000
00c000
00c000
ENDCHAR
STARTCHAR 2838
ENCODING 10296
SWIDTH 1000 0
DWIDTH 18 0
BBX 18 18 0 -2
BITMAP
000000
000000
000000
000000
000000
000000
000000
000000
ffffc0
ffffc0
008000
008000
008000
008000
008000
008000
008000
008000
ENDCHAR
STARTCHAR 2839
ENCODING 10297
SWIDTH 1000 0
DWIDTH 18 0
BBX 18 18 0 -2
BITMAP
00c000
00c000
00c000
00c000
00c000
00c000
00c000
00c000
ffc000
00c000
00c000
00c000
00c000
00c000
00c000
00c000
00c000
00c000
ENDCHAR
STARTCHAR 283a
ENCODING 10298
SWIDTH 1000 0
DWIDTH 18 0
BBX 18 18 0 -2
BITMAP
008000
008000
008000
008000
008000
008000
008000
008000
ffffc0
ffffc0
000000
000000
000000
000000
000000
000000
000000
000000
ENDCHAR
STARTCHAR 283b
ENCODING 10299
SWIDTH 1000 0
DWIDTH 18 0
BBX 18 18 0 -2
BITMAP
008000
008000
008000
008000
008000
008000
008000
008000
ffffc0
ffffc0
008000
008000
008000
008000
008000
008000
008000
008000
ENDCHAR
STARTCHAR 283c
ENCODING 10300
SWIDTH 1000 0
DWIDTH 18 0
BBX 18 18 0 -2
BITMAP
008000
008000
008000
008000
008000
008000
008000
008000
00ffc0
00ffc0
008000
008000
008000
008000
008000
008000
008000
008000
ENDCHAR
STARTCHAR 283d
ENCODING 10301
SWIDTH 1000 0
DWIDTH 18 0
BBX 18 18 0 -2
BITMAP
000000
000000
000000
000000
000000
000000
000000
000000
ffffc0
00c000
00c000
00c000
00c000
00c000
00c000
00c000
00c000
00c000
ENDCHAR
STARTCHAR 283e
ENCODING 10302
SWIDTH 1000 0
DWIDTH 18 0
BBX 18 18 0 -2
BITMAP
008000
008000
008000
008000
008000
008000
008000
008000
ff8000
ff8000
008000
008000
008000
008000
008000
008000
008000
008000
ENDCHAR
STARTCHAR 283f
ENCODING 10303
SWIDTH 1000 0
DWIDTH 18 0
BBX 18 18 0 -2
BITMAP
00c000
00c000
00c000
00c000
00c000
00c000
00c000
00c000
ffffc0
000000
000000
000000
000000
000000
000000
000000
000000
000000
ENDCHAR
STARTCHAR 2840
ENCODING 10304
SWIDTH 1000 0
DWIDTH 18 0
BBX 18 18 0 -2
BITMAP
00c000
00c000
00c000
00c000
00c000
00c000
00c000
00c000
ffffc0
00c000
00c000
00c000
00c000
00c000
00c000
00c000
00c000
00c000
ENDCHAR
STARTCHAR 3021
ENCODING 12321
SWIDTH 1000 0
DWIDTH 18 0
BBX 18 18 0 -2
BITMAP
000000
000000
3fff00
022000
022000
022000
1ffe00
122200
122200
122200
122200
1ffe00
022000
022000
022000
7fff80
000000
000000
ENDCHAR
STARTCHAR 3022
ENCODING 12322
SWIDTH 1000 0
DWIDTH 18 0
BBX 18 18 0 -2
BITMAP
000000
000000
07ff80
784800
484800
484800
4bff00
4a4900
4a4900
4a4900
4bff00
484800
784800
004800
004800
07ff80
000000
000000
ENDCHAR
STARTCHAR 3023
ENCODING 12323
SWIDTH 1000 0
DWIDTH 18 0
BBX 18 18 0 -2
BITMAP
000000
100800
100800
107f00
100800
7e0800
120800
12ff80
320000
220800
260800
747f00
0c0800
0a0800
1a0800
300800
60ff80
000000
ENDCHAR
STARTCHAR 3024
ENCODING 12324
SWIDTH 1000 0
DWIDTH 18 0
BBX 18 18 0 -2
BITMAP
000000
000000
3eff80
220200
260200
2cf200
289200
249200
229200
229200
229200
22f200
220200
2e0200
200200
200200
200e00
000000
ENDCHAR
STARTCHAR 3025
ENCODING 12325
SWIDTH 1000 0
DWIDTH 18 0
BBX 18 18 0 -2
BITMAP
000000
008000
008000
7fff80
000000
0ffc00
080400
080400
080400
0ffc00
032100
063300
1c1600
741800
040c00
07c600
3c0380
000000
ENDCHAR
STARTCHAR 3026
ENCODING 12326
SWIDTH 1000 0
DWIDTH 18 0
BBX 18 18 0 -2
BITMAP
000000
000e00
3ff800
110200
088400
7fff80
408080
4a4680
1a0b00
33f900
040000
07fc00
1e1800
733000
01e000
0f3c00
780780
000000
ENDCHAR
STARTCHAR 3027
ENCODING 12327
SWIDTH 1000 0
DWIDTH 18 0
BBX 18 18 0 -2
BITMAP
000000
104000
104200
10c200
7c9f00
13f180
108000
108000
11ff00
1b1000
701000
13ff80
102800
106c00
10c600
118300
330180
000000
ENDCHAR
STARTCHAR 3028
ENCODING 12328
SWIDTH 1000 0
DWIDTH 18 0
BBX 18 18 0 -2
BITMAP
000000
100800
101c00
101400
103600
7e6300
12c180
120000
323e00
260000
240000
747f00
0c4100
0a4100
1a4100
304100
607f00
000000
ENDCHAR
STARTCHAR 3029
ENCODING 12329
SWIDTH 1000 0
DWIDTH 18 0
BBX 18 18 0 -2
BITMAP
000000
004000
307e00
188200
0b4400
003800
00ee00
038380
781000
08fe00
081000
08fe00
081000
09ff00
181000
340000
63ff80
000000
ENDCHAR
STARTCHAR 302a
ENCODING 12330
SWIDTH 1000 0
DWIDTH 18 0
BBX 18 18 0 -2
BITMAP
000000
021000
021000
7fff80
021000
000000
3f2200
021480
240900
1ffe00
708380
008000
3fff00
012000
033000
0e1c00
380700
000000
ENDCHAR
STARTCHAR 302b
ENCODING 12331
SWIDTH 1000 0
DWIDTH 18 0
BBX 18 18 0 -2
BITMAP
000000
021000
021000
7fff80
021000
000000
7fff80
022000
022000
3fff00
222100
262100
3c3f00
200100
200100
3fff00
000000
000000
ENDCHAR
STARTCHAR 302c
ENCODING 12332
SWIDTH 1000 0
DWIDTH 18 0
BBX 18 18 0 -2
BITMAP
000000
044000
1cf800
711000
13fe00
112200
7dfe00
112200
19fe00
342000
33ff00
322100
53ff00
122100
13ff00
102080
101f80
000000
ENDCHAR
STARTCHAR 302d
ENCODING 12333
SWIDTH 1000 0
DWIDTH 18 0
BBX 18 18 0 -2
BITMAP
000000
000000
3fff00
022000
022000
1ffe00
122200
122200
1ffe00
022000
022000
7fff80
004000
126300
122580
330c80
61f800
000000
ENDCHAR
STARTCHAR 302e
ENCODING 12334
SWIDTH 1000 0
DWIDTH 18 0
BBX 18 18 0 -2
BITMAP
000000
100000
11ff00
110100
110100
7dff00
110000
117f00
111000
112200
1d7f00
710900
110800
137f00
120800
160800
30ff80
000000
ENDCHAR
STARTCHAR 302f
ENCODING 12335
SWIDTH 1000 0
DWIDTH 18 0
BBX 18 18 0 -2
BITMAP
000000
000000
31ff00
190100
090100
01ff00
610000
317f00
111000
012200
097f00
090900
190800
137f00
320800
260800
60ff80
000000
ENDCHAR
STARTCHAR 3030
ENCODING 12336
SWIDTH 1000 0
DWIDTH 18 0
BBX 18 18 0 -2
BITMAP
000000
100000
107e00
104200
104200
7e4200
124200
127e00
124200
124200
124200
124200
127e00
120000
320080
230180
61ff00
000000
ENDCHAR
STARTCHAR 3031
ENCODING 12337
SWIDTH 1000 0
DWIDTH 18 0
BBX 18 18 0 -2
BITMAP
000000
021000
7fff80
021000
010000
1ffc00
020400
7fff80
000000
0ffc00
080400
0ffc00
002000
1ffe00
042000
7fff80
002000
000000
ENDCHAR
STARTCHAR 3032
ENCODING 12338
SWIDTH 1000 0
DWIDTH 18 0
BBX 18 18 0 -2
BITMAP
000000
021000
021000
7fff80
021000
000000
3fff00
000000
0ffe00
080200
080200
0ffe00
080000
180000
100000
300000
600000
000000
ENDCHAR
STARTCHAR 3033
ENCODING 12339
SWIDTH 1000 0
DWIDTH 18 0
BBX 18 18 0 -2
BITMAP
000000
101000
1e3200
322300
247d00
7f0800
29ff80
291400
3f2200
29c980
291000
3f6200
000c00
2ab080
2a8300
6a0c00
407000
000000
ENDCHAR
STARTCHAR 3034
ENCODING 12340
SWIDTH 1000 0
DWIDTH 18 0
BBX 18 18 0 -2
BITMAP
000000
081000
081000
09ff00
7e0000
088200
08c600
1c4400
1bff80
1a1000
281000
281000
49ff00
081000
081000
081000
081000
000000
ENDCHAR
STARTCHAR 3035
ENCODING 12341
SWIDTH 1000 0
DWIDTH 18 0
BBX 18 18 0 -2
BITMAP
000000
000000
1fff00
100000
102000
102000
102000
102000
17ff00
102000
102000
102000
302000
202000
602000
0fff80
000000
000000
ENDCHAR
STARTCHAR 3036
ENCODING 12342
SWIDTH 1000 0
DWIDTH 18 0
BBX 18 18 0 -2
BITMAP
000000
080800
081c00
7f1400
083600
3e6300
22c180
223200
3e1a00
220200
226200
3e3200
080380
7f1e00
087200
080200
080200
000000
ENDCHAR
STARTCHAR 3037
ENCODING 12343
SWIDTH 1000 0
DWIDTH 18 0
BBX 18 18 0 -2
BITMAP
000000
100000
13fc00
108400
108c00
7c8800
108800
11de00
114200
116200
1d2600
713400
111c00
130800
121c00
123600
36e380
000000
ENDCHAR
STARTCHAR 3038
ENCODING 12344
SWIDTH 1000 0
DWIDTH 18 0
BBX 18 18 0 -2
BITMAP
000000
008000
008000
3fff00
200100
280100
080000
0fbe00
18a200
11a200
3d2200
672200
022600
062000
0c2080
183180
701f00
000000
ENDCHAR
STARTCHAR 3039
ENCODING 12345
SWIDTH 1000 0
DWIDTH 18 0
BBX 18 18 0 -2
BITMAP
000000
100000
107e00
104200
104200
7e4200
127e00
124200
324200
264200
244200
747e00
0c4200
0a4200
1a4200
304200
61ff80
000000
ENDCHAR
STARTCHAR 303a
ENCODING 12346
SWIDTH 1000 0
DWIDTH 18 0
BBX 18 18 0 -2
BITMAP
000000
080800
080800
080800
7f0800
49ff80
492000
492000
492000
7f2000
082000
082000
092000
092000
0fb000
789f00
000000
000000
ENDCHAR
STARTCHAR 303b
ENCODING 12347
SWIDTH 1000 0
DWIDTH 18 0
BBX 18 18 0 -2
BITMAP
000000
081000
1c1000
163200
332300
286100
7e4f80
22f880
3e0000
220000
3e7f00
204100
224100
224100
2f4100
394100
607f00
000000
ENDCHAR
STARTCHAR 303c
ENCODING 12348
SWIDTH 1000 0
DWIDTH 18 0
BBX 18 18 0 -2
BITMAP
000000
082000
182000
307f80
624080
36c080
0c3c80
182480
322480
7f3c80
092480
082480
2a3c80
2b0080
690180
480100
080700
000000
ENDCHAR
STARTCHAR 303d
ENCODING 12349
SWIDTH 1000 0
DWIDTH 18 0
BBX 18 18 0 -2
BITMAP
000000
081000
181000
30ff00
621000
37ff80
0c2400
186400
32c780
7f2000
093e00
086200
2ac600
2b2c00
691800
487600
09c380
000000
ENDCHAR
STARTCHAR 303e
ENCODING 12350
SWIDTH 1000 0
DWIDTH 18 0
BBX 18 18 0 -2
BITMAP
000000
100800
1f0800
310800
220800
7f8f80
248800
248800
3f8800
248800
24bf00
3fa100
002100
2aa100
2aa100
6a2100
403f00
000000
ENDCHAR
STARTCHAR 303f
ENCODING 12351
SWIDTH 1000 0
DWIDTH 18 0
BBX 18 18 0 -2
BITMAP
000000
002400
002600
002200
7fff80
002000
002000
3f2100
213300
211200
211600
3f1c00
000800
039c80
1e3680
70e380
038100
000000
ENDCHAR
STARTCHAR 3040
ENCODING 12352
SWIDTH 1000 0
DWIDTH 18 0
BBX 18 18 0 -2
BITMAP
000000
000000
7fff80
022000
3fff00
222100
222100
3fff00
088400
0c8c00
048800
7fff80
029000
069800
1c8e00
708380
008000
000000
ENDCHAR
STARTCHAR 3041
ENCODING 12353
SWIDTH 1000 0
DWIDTH 18 0
BBX 18 18 0 -2
BITMAP
000000
080800
081c00
081400
7e3600
026300
06c180
0c0000
093e00
1b0000
3e0000
6b7f00
094100
084100
084100
084100
087f00
000000
ENDCHAR
STARTCHAR 3042
ENCODING 12354
SWIDTH 1000 0
DWIDTH 18 0
BBX 18 18 0 -2
BITMAP
000000
008000
008000
3fff00
200100
210100
030000
020000
7fff80
040400
0c0c00
081800
1f3000
01e000
033800
0e0e00
380300
000000
ENDCHAR
STARTCHAR 3043
ENCODING 12355
SWIDTH 1000 0
DWIDTH 18 0
BBX 18 18 0 -2
BITMAP
000000
004000
004000
3fff80
208000
2fff00
211000
224800
27fe00
3c4580
244400
27fc00
244400
644400
47fc80
404180
003f00
000000
ENDCHAR
STARTCHAR 3044
ENCODING 12356
SWIDTH 1000 0
DWIDTH 18 0
BBX 18 18 0 -2
BITMAP
000000
102000
102000
13ff00
120100
7e4100
104000
104000
17ff80
1c8200
718600
110400
13ec00
103800
106c00
10c600
338300
000000
ENDCHAR
STARTCHAR 3045
ENCODING 12357
SWIDTH 1000 0
DWIDTH 18 0
BBX 18 18 0 -2
BITMAP
000000
001000
001000
7dff00
448200
44c600
444400
47ff80
7c0000
440000
44fe00
448200
448200
7cfe00
008200
008200
00fe00
000000
ENDCHAR
STARTCHAR 3046
ENCODING 12358
SWIDTH 1000 0
DWIDTH 18 0
BBX 18 18 0 -2
BITMAP
000000
008000
3fff00
200100
010000
7fff80
040800
0f1800
01f000
071c00
3c0600
008000
7fff80
029000
0e9c00
788780
008000
000000
ENDCHAR
STARTCHAR 3047
ENCODING 12359
SWIDTH 1000 0
DWIDTH 18 0
BBX 18 18 0 -2
BITMAP
000000
000000
3f3f00
212100
3f3f00
212100
3f3f00
208100
27f900
221100
2ffd00
200100
23f100
221100
23f100
221100
23f700
000000
ENDCHAR
STARTCHAR 3048
ENCODING 12360
SWIDTH 1000 0
DWIDTH 18 0
BBX 18 18 0 -2
BITMAP
000000
220800
220800
7f7f00
224100
225100
3e1000
081000
7f7f80
491200
493200
7f2600
087400
7f1c00
081600
083300
086100
000000
ENDCHAR
STARTCHAR 3049
ENCODING 12361
SWIDTH 1000 0
DWIDTH 18 0
BBX 18 18 0 -2
BITMAP
000000
008000
008000
008000
7fff80
02a000
06b000
0c9800
188e00
708380
000000
1ffe00
100200
100200
100200
100200
1ffe00
000000
ENDCHAR
STARTCHAR 304a
ENCODING 12362
SWIDTH 1000 0
DWIDTH 18 0
BBX 18 18 0 -2
BITMAP
000000
000000
100200
100200
100200
130200
118200
10c200
104200
100600
100400
100400
100e00
171b00
1c3100
706180
01c080
000000
ENDCHAR
STARTCHAR 304b
ENCODING 12363
SWIDTH 1000 0
DWIDTH 18 0
BBX 18 18 0 -2
BITMAP
000000
040000
05ff00
0c1100
081100
181100
13ff80
301100
501100
101100
11ff00
101000
101000
103000
102000
106000
10c000
000000
ENDCHAR
STARTCHAR 304c
ENCODING 12364
SWIDTH 1000 0
DWIDTH 18 0
BBX 18 18 0 -2
BITMAP
000000
041000
041000
0c1000
09ff00
180000
100000
308200
508200
10c600
104400
104400
104c00
100800
100800
13ff80
100000
000000
ENDCHAR
STARTCHAR 304d
ENCODING 12365
SWIDTH 1000 0
DWIDTH 18 0
BBX 18 18 0 -2
BITMAP
000000
041000
041000
0c1000
0bff80
182000
102000
307100
50d300
119600
139c00
168800
108c00
108400
10b600
10e300
138180
000000
ENDCHAR
STARTCHAR 304e
ENCODING 12366
SWIDTH 1000 0
DWIDTH 18 0
BBX 18 18 0 -2
BITMAP
000000
042000
05fe00
0c4200
084200
1bff80
100000
31fe00
510200
11fe00
100800
13ff00
108800
108800
17ff80
100800
100800
000000
ENDCHAR
STARTCHAR 304f
ENCODING 12367
SWIDTH 1000 0
DWIDTH 18 0
BBX 18 18 0 -2
BITMAP
000000
000000
3fff00
200100
221100
221100
2ffd00
221100
221100
221100
2ffd00
221100
261100
2c1100
200100
3fff00
000000
000000
ENDCHAR
STARTCHAR 3050
ENCODING 12368
SWIDTH 1000 0
DWIDTH 18 0
BBX 18 18 0 -2
BITMAP
000000
008000
008000
7fff80
008000
3ffe00
008200
1ffe00
108000
108000
1fff00
014100
036100
022700
063000
1c1c00
700780
000000
ENDCHAR
STARTCHAR 3051
ENCODING 12369
SWIDTH 1000 0
DWIDTH 18 0
BBX 18 18 0 -2
BITMAP
000000
001c00
1ff000
008000
7fff80
029000
069800
1c8e00
708380
008000
010000
7fff80
021000
043000
0fe000
01bc00
3e0700
000000
ENDCHAR
STARTCHAR 3052
ENCODING 12370
SWIDTH 1000 0
DWIDTH 18 0
BBX 18 18 0 -2
BITMAP
000000
002400
002600
002200
3fff80
202000
2fa000
202200
223200
2fd600
249400
249c00
2f0800
219c80
62b680
4c6380
40c100
000000
ENDCHAR
STARTCHAR 3053
ENCODING 12371
SWIDTH 1000 0
DWIDTH 18 0
BBX 18 18 0 -2
BITMAP
000000
000200
3f8200
208200
208200
3f8200
203f80
200200
2f8200
201200
2f9a00
220a00
2a8200
6a8200
4a8200
528200
060e00
000000
ENDCHAR
STARTCHAR 3054
ENCODING 12372
SWIDTH 1000 0
DWIDTH 18 0
BBX 18 18 0 -2
BITMAP
000000
084000
084400
08cc00
0c8800
2aff80
298800
6a8800
48ff00
088800
088800
088800
08ff00
088800
088800
088800
08ff80
000000
ENDCHAR
STARTCHAR 3055
ENCODING 12373
SWIDTH 1000 0
DWIDTH 18 0
BBX 18 18 0 -2
BITMAP
000000
008000
008000
3fff00
040800
021000
7fff80
000000
0ffc00
080400
0ffc00
080400
0ffc00
008000
124300
320980
61f880
000000
ENDCHAR
STARTCHAR 3056
ENCODING 12374
SWIDTH 1000 0
DWIDTH 18 0
BBX 18 18 0 -2
BITMAP
000000
000200
3f8200
208200
3f8200
203f80
2f8200
201200
2f8a00
220a00
6a8200
4a8200
160e00
008000
124300
320980
61f880
000000
ENDCHAR
STARTCHAR 3057
ENCODING 12375
SWIDTH 1000 0
DWIDTH 18 0
BBX 18 18 0 -2
BITMAP
000000
000000
0ffc00
080400
080400
0ffc00
080400
080400
0ffc00
040000
0fff00
191100
733100
062100
1c6300
01c200
000e00
000000
ENDCHAR
STARTCHAR 3058
ENCODING 12376
SWIDTH 1000 0
DWIDTH 18 0
BBX 18 18 0 -2
BITMAP
000000
081000
081000
09ff00
7e2800
086c00
08c600
1c0000
1bff80
1a0200
28f200
289200
489200
08f200
080200
080200
080e00
000000
ENDCHAR
STARTCHAR 3059
ENCODING 12377
SWIDTH 1000 0
DWIDTH 18 0
BBX 18 18 0 -2
BITMAP
000000
110000
190000
090000
3ffc00
020400
020800
07ff00
040100
0c0200
1fff80
300080
600880
0a4480
092580
112100
000700
000000
ENDCHAR
STARTCHAR 305a
ENCODING 12378
SWIDTH 1000 0
DWIDTH 18 0
BBX 18 18 0 -2
BITMAP
000000
000000
1ffe00
108200
108200
1ffe00
108200
108200
1ffe00
000000
7fff80
084200
086600
083400
0b9800
0e0e00
380380
000000
ENDCHAR
STARTCHAR 305b
ENCODING 12379
SWIDTH 1000 0
DWIDTH 18 0
BBX 18 18 0 -2
BITMAP
000000
000000
1ffe00
108200
108200
1ffe00
108200
108200
1ffe00
021000
3fff00
021000
021000
7fff80
040800
1c0e00
700380
000000
ENDCHAR
STARTCHAR 305c
ENCODING 12380
SWIDTH 1000 0
DWIDTH 18 0
BBX 18 18 0 -2
BITMAP
000000
031000
0e1f00
783100
086300
08d600
7f0c00
081800
087400
1c0780
1a0c80
291980
287500
480300
080600
081c00
08f000
000000
ENDCHAR
STARTCHAR 305d
ENCODING 12381
SWIDTH 1000 0
DWIDTH 18 0
BBX 18 18 0 -2
BITMAP
000000
082000
182200
306600
624400
36ff80
0d4400
184400
327f00
7f4400
094400
084400
2a7f00
2b4400
694400
484400
087f80
000000
ENDCHAR
STARTCHAR 305e
ENCODING 12382
SWIDTH 1000 0
DWIDTH 18 0
BBX 18 18 0 -2
BITMAP
000000
081000
187e00
302200
622200
36ff80
0c0000
187f00
324100
7f7f00
090400
087f00
2a2400
2a2400
6aff80
480400
080400
000000
ENDCHAR
STARTCHAR 305f
ENCODING 12383
SWIDTH 1000 0
DWIDTH 18 0
BBX 18 18 0 -2
BITMAP
000000
3fff00
208100
208100
3fff00
208100
208100
3fff00
000000
1ffe00
100200
1ffe00
100200
1ffe00
100200
100200
100e00
000000
ENDCHAR
STARTCHAR 3060
ENCODING 12384
SWIDTH 1000 0
DWIDTH 18 0
BBX 18 18 0 -2
BITMAP
000000
021000
7fff80
021000
003c00
1fe000
008000
7fff80
02a000
1c9c00
708780
020000
7fff80
040800
1f9000
00fc00
3f0700
000000
ENDCHAR
STARTCHAR 3061
ENCODING 12385
SWIDTH 1000 0
DWIDTH 18 0
BBX 18 18 0 -2
BITMAP
000000
008000
008000
008000
7fff80
014000
034100
066300
0c2600
1c3c00
741000
041800
040800
040c00
05c600
0f0300
380180
000000
ENDCHAR
STARTCHAR 3062
ENCODING 12386
SWIDTH 1000 0
DWIDTH 18 0
BBX 18 18 0 -2
BITMAP
000000
000000
3e7f00
004900
7f7f00
004900
3e4900
007f00
000000
3e7f00
004100
007f00
3e4100
227f00
224100
224100
3e4300
000000
ENDCHAR
STARTCHAR 3063
ENCODING 12387
SWIDTH 1000 0
DWIDTH 18 0
BBX 18 18 0 -2
BITMAP
000000
002000
31fe00
184200
084200
03ff80
000000
00fe00
788200
08fe00
080800
09ff00
088800
0bff80
180800
340800
63ff80
000000
ENDCHAR
STARTCHAR 3064
ENCODING 12388
SWIDTH 1000 0
DWIDTH 18 0
BBX 18 18 0 -2
BITMAP
000000
001000
30fe00
189200
08fe00
001000
03ff80
000000
78fe00
088200
08fe00
088200
08fe00
088200
18fe00
350100
63ff80
000000
ENDCHAR
STARTCHAR 3065
ENCODING 12389
SWIDTH 1000 0
DWIDTH 18 0
BBX 18 18 0 -2
BITMAP
000000
000000
3fff00
220000
220000
27fc00
2c4000
204000
2ffe00
20a000
21b000
211000
231800
260c00
200000
3fff00
000000
000000
ENDCHAR
STARTCHAR 3066
ENCODING 12390
SWIDTH 1000 0
DWIDTH 18 0
BBX 18 18 0 -2
BITMAP
000000
021000
021000
021000
021000
3fff00
021000
021000
021000
021000
7fff80
021000
021000
061000
041000
0c1000
181000
000000
ENDCHAR
STARTCHAR 3067
ENCODING 12391
SWIDTH 1000 0
DWIDTH 18 0
BBX 18 18 0 -2
BITMAP
000000
008000
008000
008000
7fff80
008000
019000
1b3000
0c6400
06cc00
019800
033000
0e6000
38d800
038c00
0e0600
380300
000000
ENDCHAR
STARTCHAR 3068
ENCODING 12392
SWIDTH 1000 0
DWIDTH 18 0
BBX 18 18 0 -2
BITMAP
000000
101400
101200
101200
13ff80
7c1000
101000
13d100
125900
124b00
124a00
13ce00
1c0400
31cc80
671680
006380
018100
000000
ENDCHAR
STARTCHAR 3069
ENCODING 12393
SWIDTH 1000 0
DWIDTH 18 0
BBX 18 18 0 -2
BITMAP
000000
008000
008000
7fff80
020000
040400
0ffe00
380300
000000
0ffc00
080400
0ffc00
080400
0ffc00
080400
080400
081c00
000000
ENDCHAR
STARTCHAR 306a
ENCODING 12394
SWIDTH 1000 0
DWIDTH 18 0
BBX 18 18 0 -2
BITMAP
000000
040000
041f00
7fd100
081300
081200
1f9600
109400
309200
5f9100
109100
109100
1f9100
109100
109700
109000
139000
000000
ENDCHAR
STARTCHAR 306b
ENCODING 12395
SWIDTH 1000 0
DWIDTH 18 0
BBX 18 18 0 -2
BITMAP
000000
009100
7d1200
135680
109100
111280
115780
3bd200
281100
69ff80
291000
298900
294a00
394400
030a80
021380
066100
000000
ENDCHAR
STARTCHAR 306c
ENCODING 12396
SWIDTH 1000 0
DWIDTH 18 0
BBX 18 18 0 -2
BITMAP
000000
000000
000000
000000
000000
000000
000000
000000
3fff00
000000
000000
000000
000000
000000
000000
000000
000000
000000
ENDCHAR
STARTCHAR 306d
ENCODING 12397
SWIDTH 1000 0
DWIDTH 18 0
BBX 18 18 0 -2
BITMAP
000000
008000
008000
7fff80
008000
008000
1ffe00
000000
7fff80
400080
481880
08f000
0f8000
080100
080300
0c0200
07fe00
000000
ENDCHAR
STARTCHAR 306e
ENCODING 12398
SWIDTH 1000 0
DWIDTH 18 0
BBX 18 18 0 -2
BITMAP
000000
010200
318600
188400
0bff00
008400
618600
310200
130300
060180
000000
0bff00
1a4900
124900
324900
224900
67ff80
000000
ENDCHAR
STARTCHAR 306f
ENCODING 12399
SWIDTH 1000 0
DWIDTH 18 0
BBX 18 18 0 -2
BITMAP
000000
004000
307e00
18c400
098800
03ff00
011100
011100
791100
09ff00
084800
08c800
088880
098880
1b0780
340000
63ff80
000000
ENDCHAR
STARTCHAR 3070
ENCODING 12400
SWIDTH 1000 0
DWIDTH 18 0
BBX 18 18 0 -2
BITMAP
000000
030300
0e1e00
78f000
080000
089100
7edb00
084a00
080000
1c9f00
1a9100
289100
289f00
489100
089100
089100
089f00
000000
ENDCHAR
STARTCHAR 3071
ENCODING 12401
SWIDTH 1000 0
DWIDTH 18 0
BBX 18 18 0 -2
BITMAP
000000
021000
021000
7fff80
021000
029000
308000
18ff00
099100
011300
033a00
082800
186c00
104400
30c600
618300
030180
000000
ENDCHAR
STARTCHAR 3072
ENCODING 12402
SWIDTH 1000 0
DWIDTH 18 0
BBX 18 18 0 -2
BITMAP
000000
021000
021000
7fff80
021000
021000
000000
1ffe00
008000
008000
7fff80
008000
008000
008000
008000
008000
038000
000000
ENDCHAR
STARTCHAR 3073
ENCODING 12403
SWIDTH 1000 0
DWIDTH 18 0
BBX 18 18 0 -2
BITMAP
000000
10f780
1e1080
321080
24f780
7e8400
2a8400
2af780
3e1080
2a9480
2a5280
3e1080
00b180
2ad280
2a9480
6a3180
406300
000000
ENDCHAR
STARTCHAR 3074
ENCODING 12404
SWIDTH 1000 0
DWIDTH 18 0
BBX 18 18 0 -2
BITMAP
000000
020000
020000
060800
040c00
0c0600
08ff00
3f9100
021000
021000
021000
021000
061000
041080
0c1080
181980
700f00
000000
ENDCHAR
STARTCHAR 3075
ENCODING 12405
SWIDTH 1000 0
DWIDTH 18 0
BBX 18 18 0 -2
BITMAP
000000
018000
070000
3c7f00
204100
204100
204100
204100
3f4100
204100
204100
204100
204100
204100
3f4f00
004000
004000
000000
ENDCHAR
STARTCHAR 3076
ENCODING 12406
SWIDTH 1000 0
DWIDTH 18 0
BBX 18 18 0 -2
BITMAP
000000
000000
01ff00
790100
491100
491100
497d00
491100
491100
493900
492900
792900
014500
010100
010100
01ff00
000000
000000
ENDCHAR
STARTCHAR 3077
ENCODING 12407
SWIDTH 1000 0
DWIDTH 18 0
BBX 18 18 0 -2
BITMAP
000000
000000
0ffc00
080400
080400
0ffc00
000000
1ffe00
100200
1ffe00
100200
1ffe00
100200
1ffe00
000000
0c0c00
380700
000000
ENDCHAR
STARTCHAR 3078
ENCODING 12408
SWIDTH 1000 0
DWIDTH 18 0
BBX 18 18 0 -2
BITMAP
000000
000000
3fff00
200100
208100
208100
2ffd00
208100
21c100
216100
233100
261900
2c0d00
200100
200100
3fff00
000000
000000
ENDCHAR
STARTCHAR 3079
ENCODING 12409
SWIDTH 1000 0
DWIDTH 18 0
BBX 18 18 0 -2
BITMAP
000000
100000
11ff00
110100
111100
7d1100
157d00
151100
351100
253900
2d2900
292900
694500
1d0100
150100
31ff00
600000
000000
ENDCHAR
STARTCHAR 307a
ENCODING 12410
SWIDTH 1000 0
DWIDTH 18 0
BBX 18 18 0 -2
BITMAP
000000
000200
7f8200
008200
008200
008200
3f8200
200200
200200
200200
3f8200
008200
008200
018200
010200
030200
1e0200
000000
ENDCHAR
STARTCHAR 307b
ENCODING 12411
SWIDTH 1000 0
DWIDTH 18 0
BBX 18 18 0 -2
BITMAP
000000
082000
1c2000
162000
333f80
282080
7e6980
224900
3e0800
220800
3e1c00
201400
221400
223600
2f2200
396300
60c180
000000
ENDCHAR
STARTCHAR 307c
ENCODING 12412
SWIDTH 1000 0
DWIDTH 18 0
BBX 18 18 0 -2
BITMAP
000000
300700
19fc00
080100
012300
61b200
309000
100e00
00f800
001000
081000
0bff80
181000
101000
301000
21ff00
600000
000000
ENDCHAR
STARTCHAR 307d
ENCODING 12413
SWIDTH 1000 0
DWIDTH 18 0
BBX 18 18 0 -2
BITMAP
000000
108200
110200
162200
134200
108200
111200
17fa00
100a00
13f200
121200
13f200
121200
13f200
321280
221280
623180
000000
ENDCHAR
STARTCHAR 307e
ENCODING 12414
SWIDTH 1000 0
DWIDTH 18 0
BBX 18 18 0 -2
BITMAP
000000
021000
7fff80
021000
000000
3c1800
242400
245a00
298180
287e00
240400
24ff00
240000
2dff80
204200
209f00
21f180
000000
ENDCHAR
STARTCHAR 3121
ENCODING 12577
SWIDTH 1000 0
DWIDTH 18 0
BBX 18 18 0 -2
BITMAP
000000
001000
3c1000
25ff00
250100
250100
28fe00
280000
240000
27ff80
244800
244800
244800
2cc800
208880
218980
230700
000000
ENDCHAR
STARTCHAR 3122
ENCODING 12578
SWIDTH 1000 0
DWIDTH 18 0
BBX 18 18 0 -2
BITMAP
000000
001000
3c3800
246c00
24c600
25bb00
2b0180
28fe00
240400
240800
24fe00
240000
27ff80
2c4000
204200
209f00
21f180
000000
ENDCHAR
STARTCHAR 3123
ENCODING 12579
SWIDTH 1000 0
DWIDTH 18 0
BBX 18 18 0 -2
BITMAP
000000
000300
3c1e00
25f100
249300
244a00
28ff00
280100
24ff00
240100
24ff00
241000
240800
2ca900
20a180
21a280
211e00
000000
ENDCHAR
STARTCHAR 3124
ENCODING 12580
SWIDTH 1000 0
DWIDTH 18 0
BBX 18 18 0 -2
BITMAP
000000
080000
087f00
7f4100
224100
367f00
140000
7f7f00
004100
3e7f00
224100
227f00
3e4100
227f00
222200
3e6300
00c180
000000
ENDCHAR
STARTCHAR 3125
ENCODING 12581
SWIDTH 1000 0
DWIDTH 18 0
BBX 18 18 0 -2
BITMAP
000000
000400
3e0400
220400
220400
23ff80
220400
220400
22c400
226400
222400
220400
3e0400
000400
000400
000400
001c00
000000
ENDCHAR
STARTCHAR 3126
ENCODING 12582
SWIDTH 1000 0
DWIDTH 18 0
BBX 18 18 0 -2
BITMAP
000000
010000
010000
010000
7fff80
020000
020000
060000
040000
0ffe00
1c0200
340200
640200
040200
040200
07fe00
000000
000000
ENDCHAR
STARTCHAR 3127
ENCODING 12583
SWIDTH 1000 0
DWIDTH 18 0
BBX 18 18 0 -2
BITMAP
000000
008000
008000
3fff00
200100
200100
2ffd00
008000
008000
008000
7fff80
008000
008000
008000
008000
008000
038000
000000
ENDCHAR
STARTCHAR 3128
ENCODING 12584
SWIDTH 1000 0
DWIDTH 18 0
BBX 18 18 0 -2
BITMAP
000000
004000
008000
0ffc00
080400
080400
080400
0ffc00
080000
0fff80
080000
0fff00
001100
149900
36cb00
224200
000e00
000000
ENDCHAR
STARTCHAR 3129
ENCODING 12585
SWIDTH 1000 0
DWIDTH 18 0
BBX 18 18 0 -2
BITMAP
000000
000000
7f7f00
010100
010100
313100
191900
090900
010100
070700
0d0d00
191900
313100
616100
010100
010100
070700
000000
ENDCHAR
STARTCHAR 312a
ENCODING 12586
SWIDTH 1000 0
DWIDTH 18 0
BBX 18 18 0 -2
BITMAP
000000
000000
31ff00
181000
081000
001000
001000
03ff80
781000
081000
081000
081000
081000
081000
187000
340000
63ff80
000000
ENDCHAR
STARTCHAR 312b
ENCODING 12587
SWIDTH 1000 0
DWIDTH 18 0
BBX 18 18 0 -2
BITMAP
000000
000000
7fff80
008000
008000
3fff00
208100
2cb100
269900
228900
208100
2cb100
269900
228900
208100
208100
200700
000000
ENDCHAR
STARTCHAR 312c
ENCODING 12588
SWIDTH 1000 0
DWIDTH 18 0
BBX 18 18 0 -2
BITMAP
000000
018000
070000
3c3f00
212100
212100
212100
212100
212100
212100
212100
212100
3f2100
622700
062000
0c2000
382000
000000
ENDCHAR
STARTCHAR 312d
ENCODING 12589
SWIDTH 1000 0
DWIDTH 18 0
BBX 18 18 0 -2
BITMAP
000000
220800
361000
147f00
7f4100
097f00
3f4100
287f00
284000
3f7f80
094000
097f80
1b0080
28aa80
48aa80
090180
080700
000000
ENDCHAR
STARTCHAR 312e
ENCODING 12590
SWIDTH 1000 0
DWIDTH 18 0
BBX 18 18 0 -2
BITMAP
000000
008000
008000
3fff00
222100
2c3d00
000000
087e00
3e4200
087e00
084200
7f7e00
084200
1c7e00
162480
306480
61c380
000000
ENDCHAR
STARTCHAR 312f
ENCODING 12591
SWIDTH 1000 0
DWIDTH 18 0
BBX 18 18 0 -2
BITMAP
000000
000000
3ff800
020800
020800
020800
020800
020800
7fff80
040800
040800
040800
040800
040800
040800
7fff80
000000
000000
ENDCHAR
STARTCHAR 3130
ENCODING 12592
SWIDTH 1000 0
DWIDTH 18 0
BBX 18 18 0 -2
BITMAP
000000
001200
003600
7f2400
087f80
08c400
194400
104400
1e7f00
324400
524400
124400
127f00
124400
124400
1e4400
007f80
000000
ENDCHAR
STARTCHAR 3131
ENCODING 12593
SWIDTH 1000 0
DWIDTH 18 0
BBX 18 18 0 -2
BITMAP
000000
018000
070000
1c3e00
100200
100200
100200
100200
100200
1f3e00
100200
100200
100200
100200
100200
1ffe00
000000
000000
ENDCHAR
STARTCHAR 3132
ENCODING 12594
SWIDTH 1000 0
DWIDTH 18 0
BBX 18 18 0 -2
BITMAP
000000
000000
31fe00
190200
090200
013e00
612200
312200
13ff00
020100
0a7900
0a4900
1a4900
124900
327900
220100
620700
000000
ENDCHAR
STARTCHAR 3133
ENCODING 12595
SWIDTH 1000 0
DWIDTH 18 0
BBX 18 18 0 -2
BITMAP
000000
002000
003f00
782000
4bff80
4a2080
4a3d00
4ae000
4a2100
4a1f00
4a0000
7a2400
06a480
04a500
0ca500
182400
01ff80
000000
ENDCHAR
STARTCHAR 3134
ENCODING 12596
SWIDTH 1000 0
DWIDTH 18 0
BBX 18 18 0 -2
BITMAP
000000
000000
00ff00
7c8100
448100
44ff00
448100
448100
448100
44ff00
448100
448100
7c8100
00ff00
004200
00c300
018180
000000
ENDCHAR
STARTCHAR 3135
ENCODING 12597
SWIDTH 1000 0
DWIDTH 18 0
BBX 18 18 0 -2
BITMAP
000000
112200
7ccf80
112200
38c700
552a80
1ffe00
122200
1ffe00
000000
3f0200
217f80
3f0200
212200
3f1200
220200
7d0e00
000000
ENDCHAR
STARTCHAR 3136
ENCODING 12598
SWIDTH 1000 0
DWIDTH 18 0
BBX 18 18 0 -2
BITMAP
000000
021000
021000
7fff80
021000
000200
3f8200
208200
3fbf80
200200
2f9200
200a00
2f8a00
220200
6a8200
524200
060e00
000000
ENDCHAR
STARTCHAR 3137
ENCODING 12599
SWIDTH 1000 0
DWIDTH 18 0
BBX 18 18 0 -2
BITMAP
000000
103e00
1e2200
323e00
242200
7f3e00
290000
297f00
3f5500
297f00
290000
3f7e00
002200
2ab600
2a9c00
6a3600
40e380
000000
ENDCHAR
STARTCHAR 3138
ENCODING 12600
SWIDTH 1000 0
DWIDTH 18 0
BBX 18 18 0 -2
BITMAP
000000
081100
081100
08ff00
081200
7e1600
121400
13ff80
121800
323000
26e300
25ae00
743800
0c2000
1a2080
323180
601f00
000000
ENDCHAR
STARTCHAR 3139
ENCODING 12601
SWIDTH 1000 0
DWIDTH 18 0
BBX 18 18 0 -2
BITMAP
000000
000000
3fff80
200000
2fbf00
289400
289400
2f9400
289400
28bf80
2f8400
280c00
290c00
691c00
4f9480
58b480
006380
000000
ENDCHAR
STARTCHAR 313a
ENCODING 12602
SWIDTH 1000 0
DWIDTH 18 0
BBX 18 18 0 -2
BITMAP
000000
001200
301100
1bff80
081000
001000
61ff00
311100
111100
01ff00
091100
091100
19ff00
111100
311100
211100
611300
000000
ENDCHAR
STARTCHAR 313b
ENCODING 12603
SWIDTH 1000 0
DWIDTH 18 0
BBX 18 18 0 -2
BITMAP
000000
000600
003c00
1fe400
100400
108400
108400
108400
108400
108400
108600
108200
109200
109200
30fb00
278900
600180
000000
ENDCHAR
STARTCHAR 313c
ENCODING 12604
SWIDTH 1000 0
DWIDTH 18 0
BBX 18 18 0 -2
BITMAP
000000
000000
3f3f00
212100
3f3f00
212100
3f3f00
200100
27f900
208100
208100
23f100
208100
208100
2ffd00
200100
200700
000000
ENDCHAR
STARTCHAR 313d
ENCODING 12605
SWIDTH 1000 0
DWIDTH 18 0
BBX 18 18 0 -2
BITMAP
000000
008200
004400
03ff80
782800
49ff00
492900
49cf00
490100
49ff00
490100
49ff00
780200
03ff80
008200
004200
000e00
000000
ENDCHAR
STARTCHAR 313e
ENCODING 12606
SWIDTH 1000 0
DWIDTH 18 0
BBX 18 18 0 -2
BITMAP
000000
000000
000000
1ffe00
000000
000000
000000
7fff80
020000
020000
020800
060c00
040400
047e00
0fc200
380300
000000
000000
ENDCHAR
STARTCHAR 313f
ENCODING 12607
SWIDTH 1000 0
DWIDTH 18 0
BBX 18 18 0 -2
BITMAP
000000
000000
33ff80
1a0080
0a1080
01ff00
001000
01ff00
791100
09ff00
091100
09ff00
081000
0bff80
181000
340000
63ff80
000000
ENDCHAR
STARTCHAR 3140
ENCODING 12608
SWIDTH 1000 0
DWIDTH 18 0
BBX 18 18 0 -2
BITMAP
000000
000000
1ffe00
008000
3fff00
208100
2e9d00
208100
0e9c00
000000
1ffe00
000000
7fff80
040400
0c0400
087e00
1fc300
000000
ENDCHAR
STARTCHAR 3141
ENCODING 12609
SWIDTH 1000 0
DWIDTH 18 0
BBX 18 18 0 -2
BITMAP
000000
021000
021000
7fff80
021000
021000
040600
0c1c00
09f000
181000
381000
6bff80
081000
081000
081000
09ff00
080000
000000
ENDCHAR
STARTCHAR 3142
ENCODING 12610
SWIDTH 1000 0
DWIDTH 18 0
BBX 18 18 0 -2
BITMAP
000000
040000
0eff80
0b2200
19a200
342200
5f3e00
112200
1f2200
112200
1f3e00
102200
112200
112380
17fe00
1c8200
300200
000000
ENDCHAR
STARTCHAR 3143
ENCODING 12611
SWIDTH 1000 0
DWIDTH 18 0
BBX 18 18 0 -2
BITMAP
000000
040000
07bf00
041100
7fd100
405100
0e1b00
208a00
4e4a00
110e00
3f8400
60c400
3f8e00
208a00
3f9b00
209100
3fb180
000000
ENDCHAR
STARTCHAR 3144
ENCODING 12612
SWIDTH 1000 0
DWIDTH 18 0
BBX 18 18 0 -2
BITMAP
000000
110200
198600
088400
7fff80
400080
4ffc80
080400
080400
0ffc00
008000
010000
1ffe00
100200
100200
100200
1ffe00
000000
ENDCHAR
STARTCHAR 3145
ENCODING 12613
SWIDTH 1000 0
DWIDTH 18 0
BBX 18 18 0 -2
BITMAP
000000
3f3f00
212100
3f3f00
212100
3f3f00
212100
3f3f00
121200
212100
010000
7fff80
020800
043000
0fe000
00fc00
3f0700
000000
ENDCHAR
STARTCHAR 3146
ENCODING 12614
SWIDTH 1000 0
DWIDTH 18 0
BBX 18 18 0 -2
BITMAP
000000
000100
3f8300
208600
3f8c00
209800
3f8100
040300
7fc600
000c00
3f9800
208080
3f8180
040300
248600
444c00
0c1800
000000
ENDCHAR
STARTCHAR 3147
ENCODING 12615
SWIDTH 1000 0
DWIDTH 18 0
BBX 18 18 0 -2
BITMAP
000000
001000
001000
7c1000
45ff00
451100
451100
451100
7d1100
451100
47ff80
442800
446c00
7c4400
00c600
018300
030180
000000
ENDCHAR
STARTCHAR 3148
ENCODING 12616
SWIDTH 1000 0
DWIDTH 18 0
BBX 18 18 0 -2
BITMAP
000000
008000
008000
3fff00
208100
208100
3fff00
208100
208100
208100
3fff00
008400
00cc00
005880
00f080
079c80
7c0780
000000
ENDCHAR
STARTCHAR 3149
ENCODING 12617
SWIDTH 1000 0
DWIDTH 18 0
BBX 18 18 0 -2
BITMAP
000000
030200
318600
188c00
080800
3fff00
200100
208100
008000
7fff80
02a000
06b000
049800
0c8c00
188600
708380
008000
000000
ENDCHAR
STARTCHAR 314a
ENCODING 12618
SWIDTH 1000 0
DWIDTH 18 0
BBX 18 18 0 -2
BITMAP
000000
038000
00e000
002000
000000
0fc000
004300
004600
3e6c00
027800
065000
045800
0c4c00
184600
304300
604180
03c000
000000
ENDCHAR
STARTCHAR 314b
ENCODING 12619
SWIDTH 1000 0
DWIDTH 18 0
BBX 18 18 0 -2
BITMAP
000000
01c000
307000
181000
080000
03e000
602100
303300
17b600
00bc00
00a800
11ac00
112400
332600
262300
6c2180
40e000
000000
ENDCHAR
STARTCHAR 314c
ENCODING 12620
SWIDTH 1000 0
DWIDTH 18 0
BBX 18 18 0 -2
BITMAP
000000
002000
302000
1bff00
0a2100
022100
63ff00
322100
122100
03ff00
082000
083200
181600
101c00
303880
20ee80
678380
000000
ENDCHAR
STARTCHAR 314d
ENCODING 12621
SWIDTH 1000 0
DWIDTH 18 0
BBX 18 18 0 -2
BITMAP
000000
004400
7c4400
13ff80
104400
104400
101000
7dff00
111100
111100
111100
13ff80
102800
1c6c00
70c600
018300
030180
000000
ENDCHAR
STARTCHAR 314e
ENCODING 12622
SWIDTH 1000 0
DWIDTH 18 0
BBX 18 18 0 -2
BITMAP
000000
000000
7ff800
080800
080800
0fef00
082100
1a4100
118100
366700
600000
1ffe00
122200
122200
122200
7fff80
000000
000000
ENDCHAR
STARTCHAR 314f
ENCODING 12623
SWIDTH 1000 0
DWIDTH 18 0
BBX 18 18 0 -2
BITMAP
000000
200000
237f80
3e0800
203f00
20a100
1fa100
003f00
072100
3c2100
043f00
7fa100
142100
173f00
359200
643300
046180
000000
ENDCHAR
STARTCHAR 3150
ENCODING 12624
SWIDTH 1000 0
DWIDTH 18 0
BBX 18 18 0 -2
BITMAP
000000
200000
237f80
3e0800
203f00
20a100
1fa100
003f00
3fa100
002100
7fff00
042100
152100
35bf00
249200
643300
0c6180
000000
ENDCHAR
STARTCHAR 3151
ENCODING 12625
SWIDTH 1000 0
DWIDTH 18 0
BBX 18 18 0 -2
BITMAP
000000
040800
040800
7fff80
040800
048800
008000
1ffe00
108200
108200
108200
7fff80
012000
033000
061800
1c0e00
700380
000000
ENDCHAR
STARTCHAR 3152
ENCODING 12626
SWIDTH 1000 0
DWIDTH 18 0
BBX 18 18 0 -2
BITMAP
000000
088000
1bf780
311000
611000
07f800
080000
1bf780
321100
73f100
102100
17f900
112100
112100
1ffd00
102100
102300
000000
ENDCHAR
STARTCHAR 3153
ENCODING 12627
SWIDTH 1000 0
DWIDTH 18 0
BBX 18 18 0 -2
BITMAP
000000
006000
3c3800
000800
7e0000
00f000
3c1000
001100
01db00
3c5e00
005400
005400
3cd600
249200
259300
271180
3c7000
000000
ENDCHAR
STARTCHAR 3154
ENCODING 12628
SWIDTH 1000 0
DWIDTH 18 0
BBX 18 18 0 -2
BITMAP
000000
084100
1c6300
162200
337f00
214100
7e4100
084100
084100
7f7f00
082400
4a2400
6a2400
286400
0f4480
78c480
018380
000000
ENDCHAR
STARTCHAR 3155
ENCODING 12629
SWIDTH 1000 0
DWIDTH 18 0
BBX 18 18 0 -2
BITMAP
000000
001000
301000
1bff80
084800
004800
60cf00
308900
119900
029500
08b300
088a00
188e00
108400
308e00
209b00
60b180
000000
ENDCHAR
STARTCHAR 3156
ENCODING 12630
SWIDTH 1000 0
DWIDTH 18 0
BBX 18 18 0 -2
BITMAP
000000
004000
004000
1fff80
500000
31f800
110800
130800
160f80
100000
37fe00
510600
118c00
30d800
207000
61dc00
0f0780
000000
ENDCHAR
STARTCHAR 3157
ENCODING 12631
SWIDTH 1000 0
DWIDTH 18 0
BBX 18 18 0 -2
BITMAP
000000
080400
0c0c00
061800
021000
7fff80
021000
061800
0c0c00
180600
700380
0ffc00
092400
092400
092400
092400
7fff80
000000
ENDCHAR
STARTCHAR 3158
ENCODING 12632
SWIDTH 1000 0
DWIDTH 18 0
BBX 18 18 0 -2
BITMAP
000000
000000
3fdf00
241100
241100
3f9100
241100
241100
3f9f00
241400
241400
3fd600
005200
555200
555300
40d100
01a180
000000
ENDCHAR
STARTCHAR 3159
ENCODING 12633
SWIDTH 1000 0
DWIDTH 18 0
BBX 18 18 0 -2
BITMAP
000000
088100
08c300
084200
08ff00
2c8100
2a8100
2a8100
688100
48ff00
082400
082400
082400
086400
084480
08c480
098380
000000
ENDCHAR
STARTCHAR 315a
ENCODING 12634
SWIDTH 1000 0
DWIDTH 18 0
BBX 18 18 0 -2
BITMAP
000000
000000
3cff00
008100
7eff00
008100
3cff00
004000
007f80
3cc080
018c80
00f880
3c8080
248480
247d80
240100
3c0700
000000
ENDCHAR
STARTCHAR 315b
ENCODING 12635
SWIDTH 1000 0
DWIDTH 18 0
BBX 18 18 0 -2
BITMAP
000000
080a00
080900
3e0800
08ff80
088800
7f8900
088900
088b00
288a00
2e8e00
28e400
298e80
281b80
383100
6e0000
43ff80
000000
ENDCHAR
STARTCHAR 315c
ENCODING 12636
SWIDTH 1000 0
DWIDTH 18 0
BBX 18 18 0 -2
BITMAP
000000
000000
3f3f00
212100
3f3f00
212100
3f3f00
221100
212100
27f900
240900
240900
27f900
212100
232500
2e1d00
200300
000000
ENDCHAR
STARTCHAR 315d
ENCODING 12637
SWIDTH 1000 0
DWIDTH 18 0
BBX 18 18 0 -2
BITMAP
000000
080000
09ff80
081000
7eff00
088100
08ff00
1c8100
1aff00
1a8100
28ff00
282000
487f00
09c300
086600
083c00
09e780
000000
ENDCHAR
STARTCHAR 315e
ENCODING 12638
SWIDTH 1000 0
DWIDTH 18 0
BBX 18 18 0 -2
BITMAP
000000
000000
3fff80
200000
2f8500
288480
2f8400
28bf80
2f8400
200400
2f8e00
288a00
2f8a00
688a00
4f9b00
489100
09b180
000000
ENDCHAR
STARTCHAR 315f
ENCODING 12639
SWIDTH 1000 0
DWIDTH 18 0
BBX 18 18 0 -2
BITMAP
000000
000000
3fff00
208100
208100
208100
208100
208100
208100
3fff00
200100
200100
200100
200100
200100
200700
000000
000000
ENDCHAR
STARTCHAR 3160
ENCODING 12640
SWIDTH 1000 0
DWIDTH 18 0
BBX 18 18 0 -2
BITMAP
000000
000000
3fff00
208100
27f900
208100
2ffd00
200100
27f900
240900
27f900
21a500
229900
2c8d00
208100
3fff00
000000
000000
ENDCHAR
STARTCHAR 3161
ENCODING 12641
SWIDTH 1000 0
DWIDTH 18 0
BBX 18 18 0 -2
BITMAP
000000
100000
13ff80
120000
127e00
124200
7e7e00
124200
127e00
121000
12ff00
122400
1e6c00
721800
02e700
020000
03ff80
000000
ENDCHAR
STARTCHAR 3162
ENCODING 12642
SWIDTH 1000 0
DWIDTH 18 0
BBX 18 18 0 -2
BITMAP
000000
010000
010000
7fff80
021000
048800
088400
1ffe00
708380
108200
1ffe00
108200
108200
1ffe00
008080
00c180
007f00
000000
ENDCHAR
STARTCHAR 3163
ENCODING 12643
SWIDTH 1000 0
DWIDTH 18 0
BBX 18 18 0 -2
BITMAP
000000
008000
008000
3fff00
200100
27f900
040800
07f800
040800
07f800
010000
7fff80
020800
041800
0ff000
019c00
1e0600
000000
ENDCHAR
STARTCHAR 3164
ENCODING 12644
SWIDTH 1000 0
DWIDTH 18 0
BBX 18 18 0 -2
BITMAP
000000
000300
7e0e00
04f800
080800
100800
3c4800
044f00
044800
244800
344800
144800
1c4800
09ff80
1c0000
370000
61ff80
000000
ENDCHAR
STARTCHAR 3165
ENCODING 12645
SWIDTH 1000 0
DWIDTH 18 0
BBX 18 18 0 -2
BITMAP
000000
080000
0fbf00
18a100
11a100
392700
6b2000
062080
0c3180
181f00
700000
00c000
126200
122300
320580
230c80
61f800
000000
ENDCHAR
STARTCHAR 3166
ENCODING 12646
SWIDTH 1000 0
DWIDTH 18 0
BBX 18 18 0 -2
BITMAP
000000
104000
104000
17ff80
108400
7ca400
112200
13ff00
152280
112200
1dfe00
712200
112200
11fe00
102080
103180
301f00
000000
ENDCHAR
STARTCHAR 3167
ENCODING 12647
SWIDTH 1000 0
DWIDTH 18 0
BBX 18 18 0 -2
BITMAP
000000
100700
13fc00
112100
7db300
109200
11ff00
104000
13ff80
1c4000
707e00
10c200
118600
136c00
103800
10ee00
338380
000000
ENDCHAR
STARTCHAR 3168
ENCODING 12648
SWIDTH 1000 0
DWIDTH 18 0
BBX 18 18 0 -2
BITMAP
000000
308400
188400
088400
018600
010200
630300
360180
100000
01fe00
090200
090200
190200
110200
310200
210200
61fe00
000000
ENDCHAR
STARTCHAR 3169
ENCODING 12649
SWIDTH 1000 0
DWIDTH 18 0
BBX 18 18 0 -2
BITMAP
000000
001000
301000
1bff80
0a0080
02fe80
601000
31ff00
111100
011100
09ff00
091100
191100
11ff00
308200
218300
630180
000000
ENDCHAR
STARTCHAR 316a
ENCODING 12650
SWIDTH 1000 0
DWIDTH 18 0
BBX 18 18 0 -2
BITMAP
000000
008000
088200
088600
19cc00
116000
033000
0e1c00
388700
008200
088600
19cc00
316000
033000
061800
1c0e00
700380
000000
ENDCHAR
STARTCHAR 316b
ENCODING 12651
SWIDTH 1000 0
DWIDTH 18 0
BBX 18 18 0 -2
BITMAP
000000
081000
081000
083f00
092100
2b6300
2ac600
280400
689f80
489080
089080
1c9080
149f80
169080
329080
209080
609f80
000000
ENDCHAR
STARTCHAR 316c
ENCODING 12652
SWIDTH 1000 0
DWIDTH 18 0
BBX 18 18 0 -2
BITMAP
000000
080000
09ff80
082800
0a2800
2aff00
2aa900
28a900
68a900
48ff00
081000
1c1000
14ff00
161000
321000
21ff80
600000
000000
ENDCHAR
STARTCHAR 316d
ENCODING 12653
SWIDTH 1000 0
DWIDTH 18 0
BBX 18 18 0 -2
BITMAP
000000
021000
021000
7fff80
021000
03f000
080480
79e500
092600
092400
092480
39e480
680780
000000
122200
333300
611180
000000
ENDCHAR
STARTCHAR 316e
ENCODING 12654
SWIDTH 1000 0
DWIDTH 18 0
BBX 18 18 0 -2
BITMAP
000000
041000
441000
29ff00
101000
13ff80
280000
49ff00
090100
190100
29ff00
484880
08cd80
0b8500
088600
18f300
738180
000000
ENDCHAR
STARTCHAR 316f
ENCODING 12655
SWIDTH 1000 0
DWIDTH 18 0
BBX 18 18 0 -2
BITMAP
000000
080000
18fe00
300200
62fe00
360200
0dff80
182000
325100
7e9a00
0a2c00
084800
2a9c00
2a2a00
6a4900
488880
083000
000000
ENDCHAR
STARTCHAR 3170
ENCODING 12656
SWIDTH 1000 0
DWIDTH 18 0
BBX 18 18 0 -2
BITMAP
000000
0a1000
3f9f00
2a9100
3fb300
2ae200
3fbf80
002480
7fe480
002480
3fbf80
20a000
3fa000
112000
1b2080
0a2080
7fdf80
000000
ENDCHAR
STARTCHAR 3171
ENCODING 12657
SWIDTH 1000 0
DWIDTH 18 0
BBX 18 18 0 -2
BITMAP
000000
021000
021000
7fff80
021000
021000
080000
0fbf00
18a100
11a100
3d2100
672100
022700
062000
0c2080
183180
701f00
000000
ENDCHAR
STARTCHAR 3172
ENCODING 12658
SWIDTH 1000 0
DWIDTH 18 0
BBX 18 18 0 -2
BITMAP
000000
021000
7fff80
021000
3fff00
208100
27f900
208100
2ffd00
200100
27f900
240900
27f900
218d00
2ef100
208d00
3fff00
000000
ENDCHAR
STARTCHAR 3173
ENCODING 12659
SWIDTH 1000 0
DWIDTH 18 0
BBX 18 18 0 -2
BITMAP
000000
001000
301000
19ff00
081000
03ff80
000000
01ff00
790100
09ff00
083180
087300
08dc00
0b9700
181180
341000
63ff80
000000
ENDCHAR
STARTCHAR 3174
ENCODING 12660
SWIDTH 1000 0
DWIDTH 18 0
BBX 18 18 0 -2
BITMAP
000000
081200
1c1200
161200
333300
212100
7e6180
084080
080000
7f3f00
082100
4a2100
6a2100
282100
0f2100
382100
603f00
000000
ENDCHAR
STARTCHAR 3175
ENCODING 12661
SWIDTH 1000 0
DWIDTH 18 0
BBX 18 18 0 -2
BITMAP
000000
083e00
1fa200
712080
0a3f80
0c8000
7ffc00
080400
0ffc00
080400
0ffc00
080000
0fff80
080000
2fff00
649100
424b00
000000
ENDCHAR
STARTCHAR 3176
ENCODING 12662
SWIDTH 1000 0
DWIDTH 18 0
BBX 18 18 0 -2
BITMAP
000000
010000
110000
13ff00
160000
11fe00
7d0200
110200
11fe00
100000
13ff00
124900
1e4900
724900
024900
024900
07ff80
000000
ENDCHAR
STARTCHAR 3177
ENCODING 12663
SWIDTH 1000 0
DWIDTH 18 0
BBX 18 18 0 -2
BITMAP
000000
080800
080800
081c00
7f9400
083600
082200
0f6300
09d980
090c00
090600
190200
113000
131800
320c00
220600
660200
000000
ENDCHAR
STARTCHAR 3178
ENCODING 12664
SWIDTH 1000 0
DWIDTH 18 0
BBX 18 18 0 -2
BITMAP
000000
300000
1bff00
084000
004000
004000
67ff80
308000
108000
008000
09ff00
080100
180100
100100
300300
200200
601e00
000000
ENDCHAR
STARTCHAR 3179
ENCODING 12665
SWIDTH 1000 0
DWIDTH 18 0
BBX 18 18 0 -2
BITMAP
000000
080000
08ff00
289100
289100
3eff00
689100
489100
08ff00
3e1000
09ff80
081080
083080
0e2080
386180
60c100
038700
000000
ENDCHAR
STARTCHAR 317a
ENCODING 12666
SWIDTH 1000 0
DWIDTH 18 0
BBX 18 18 0 -2
BITMAP
000000
000000
3e1f00
221100
221100
221100
221100
221100
221100
23f100
200100
200100
200100
200100
200100
3fff00
000000
000000
ENDCHAR
STARTCHAR 317b
ENCODING 12667
SWIDTH 1000 0
DWIDTH 18 0
BBX 18 18 0 -2
BITMAP
000000
008000
008000
008000
1ffe00
108200
108200
108200
108200
108200
7fff80
014000
036000
023000
061800
1c0e00
700380
000000
ENDCHAR
STARTCHAR 317c
ENCODING 12668
SWIDTH 1000 0
DWIDTH 18 0
BBX 18 18 0 -2
BITMAP
000000
008000
010000
1ffe00
100200
149200
12a200
17fa00
11c200
12a200
149a00
108200
110200
7fff80
033000
0e1c00
380700
000000
ENDCHAR
STARTCHAR 317d
ENCODING 12669
SWIDTH 1000 0
DWIDTH 18 0
BBX 18 18 0 -2
BITMAP
000000
046000
0c3000
181000
31ff00
641000
0c1000
181000
301000
71ff00
101000
101000
101000
101000
101000
13ff80
100000
000000
ENDCHAR
STARTCHAR 317e
ENCODING 12670
SWIDTH 1000 0
DWIDTH 18 0
BBX 18 18 0 -2
BITMAP
000000
004000
004000
1fff80
100000
106000
103000
109800
108800
128000
128200
128300
168180
348080
248200
60c600
007c00
000000
ENDCHAR
STARTCHAR 3221
ENCODING 12833
SWIDTH 1000 0
DWIDTH 18 0
BBX 18 18 0 -2
BITMAP
000000
100000
11ff00
111100
111100
7d1100
11ff00
111100
111100
111100
1d1100
71ff00
101000
101000
101000
101000
301000
000000
ENDCHAR
STARTCHAR 3222
ENCODING 12834
SWIDTH 1000 0
DWIDTH 18 0
BBX 18 18 0 -2
BITMAP
000000
000000
7dff00
441000
441000
441000
441000
7c1000
45ff00
441000
441000
441000
441000
7c1000
001000
03ff80
000000
000000
ENDCHAR
STARTCHAR 3223
ENCODING 12835
SWIDTH 1000 0
DWIDTH 18 0
BBX 18 18 0 -2
BITMAP
000000
084400
09ff00
084400
7e4400
0bff80
081000
1dff00
1b1100
191100
29ff00
291100
491100
09ff00
088200
098300
0b0180
000000
ENDCHAR
STARTCHAR 3224
ENCODING 12836
SWIDTH 1000 0
DWIDTH 18 0
BBX 18 18 0 -2
BITMAP
000000
002000
3f2000
202000
203f80
2a6080
2a4980
24c900
240800
240800
241c00
2a1400
2a1400
203600
202200
3f6300
00c180
000000
ENDCHAR
STARTCHAR 3225
ENCODING 12837
SWIDTH 1000 0
DWIDTH 18 0
BBX 18 18 0 -2
BITMAP
000000
000000
3f3e00
202200
202200
2a6200
2ac380
240000
247f00
242100
2a3300
2a1600
201c00
200800
3f1c00
003600
00e380
000000
ENDCHAR
STARTCHAR 3226
ENCODING 12838
SWIDTH 1000 0
DWIDTH 18 0
BBX 18 18 0 -2
BITMAP
000000
000000
3fff00
008000
008000
008000
008000
008000
1ffe00
008000
008000
008000
008000
008000
008000
7fff80
000000
000000
ENDCHAR
STARTCHAR 3227
ENCODING 12839
SWIDTH 1000 0
DWIDTH 18 0
BBX 18 18 0 -2
BITMAP
000000
021000
061800
1d0e00
730380
020800
07fc00
1c0600
000000
7f7f00
111100
090900
070700
1d1d00
717100
010100
070700
000000
ENDCHAR
STARTCHAR 3228
ENCODING 12840
SWIDTH 1000 0
DWIDTH 18 0
BBX 18 18 0 -2
BITMAP
000000
101000
102000
11ff00
7d0100
055500
0d1100
097d00
193900
355500
791100
152100
13ff80
102800
106c00
10c600
138380
000000
ENDCHAR
STARTCHAR 3229
ENCODING 12841
SWIDTH 1000 0
DWIDTH 18 0
BBX 18 18 0 -2
BITMAP
000000
110200
088400
7fff80
408080
4ffc80
080400
0ffc00
080400
0ffc00
080000
0fff80
080000
0fff00
249100
624900
400300
000000
ENDCHAR
STARTCHAR 322a
ENCODING 12842
SWIDTH 1000 0
DWIDTH 18 0
BBX 18 18 0 -2
BITMAP
000000
001000
7e2000
40fe00
408200
54fe00
548200
48fe00
488000
48ff80
548000
54ff00
400100
415500
7d5500
020300
000600
000000
ENDCHAR
STARTCHAR 322b
ENCODING 12843
SWIDTH 1000 0
DWIDTH 18 0
BBX 18 18 0 -2
BITMAP
000000
021000
021000
3fff00
021000
021000
7fff80
008000
0ffc00
088400
088400
0ffc00
088400
088400
0ffc00
040800
380700
000000
ENDCHAR
STARTCHAR 322c
ENCODING 12844
SWIDTH 1000 0
DWIDTH 18 0
BBX 18 18 0 -2
BITMAP
000000
000000
3fff00
240900
221100
221100
2ffd00
208100
208100
248900
248900
248900
248900
27f900
200100
200100
200700
000000
ENDCHAR
STARTCHAR 322d
ENCODING 12845
SWIDTH 1000 0
DWIDTH 18 0
BBX 18 18 0 -2
BITMAP
000000
001000
301000
181000
081000
03ff80
621080
321080
121080
021080
0a1080
0bff80
181000
101000
301000
201000
601000
000000
ENDCHAR
STARTCHAR 322e
ENCODING 12846
SWIDTH 1000 0
DWIDTH 18 0
BBX 18 18 0 -2
BITMAP
000000
021000
021000
7fff80
021000
000000
441000
281080
109180
289300
499200
193800
282800
486c00
08c600
198300
330180
000000
ENDCHAR
STARTCHAR 322f
ENCODING 12847
SWIDTH 1000 0
DWIDTH 18 0
BBX 18 18 0 -2
BITMAP
000000
082000
082000
1bff00
108400
104800
37ff80
300000
51fe00
110200
11fe00
110200
11fe00
102000
129100
128480
147c00
000000
ENDCHAR
STARTCHAR 3230
ENCODING 12848
SWIDTH 1000 0
DWIDTH 18 0
BBX 18 18 0 -2
BITMAP
000000
000000
1fff00
100100
100100
1fff00
100000
17ff00
110000
110200
123f00
17e100
102000
33fe00
202000
602000
0fff80
000000
ENDCHAR
STARTCHAR 3231
ENCODING 12849
SWIDTH 1000 0
DWIDTH 18 0
BBX 18 18 0 -2
BITMAP
000000
102000
102000
13ff00
108400
584800
57ff80
540000
51fe00
110200
11fe00
110200
11fe00
102000
129100
128480
147c00
000000
ENDCHAR
STARTCHAR 3232
ENCODING 12850
SWIDTH 1000 0
DWIDTH 18 0
BBX 18 18 0 -2
BITMAP
000000
001000
3c1000
25ff00
248200
244400
3fff80
240000
24fe00
248200
3cfe00
248200
24fe00
241000
24a900
64a280
4d1e00
000000
ENDCHAR
STARTCHAR 3233
ENCODING 12851
SWIDTH 1000 0
DWIDTH 18 0
BBX 18 18 0 -2
BITMAP
000000
080000
09ff00
080200
7e6400
081800
09ff00
1d1100
1b1100
29ff00
291100
491100
09ff00
091100
091100
091100
091300
000000
ENDCHAR
STARTCHAR 3234
ENCODING 12852
SWIDTH 1000 0
DWIDTH 18 0
BBX 18 18 0 -2
BITMAP
000000
081000
281000
281000
281000
3e1000
68ff00
481000
081000
081000
0e1000
781000
081000
081000
081000
09ff80
080000
000000
ENDCHAR
STARTCHAR 3235
ENCODING 12853
SWIDTH 1000 0
DWIDTH 18 0
BBX 18 18 0 -2
BITMAP
000000
000000
3ffc00
001800
003000
006000
00c000
018000
030000
060000
0c0000
180100
300100
200300
300200
1ffe00
000000
000000
ENDCHAR
STARTCHAR 3236
ENCODING 12854
SWIDTH 1000 0
DWIDTH 18 0
BBX 18 18 0 -2
BITMAP
000000
084000
084000
1fff80
108800
10a800
312400
33fe00
562300
1a2280
13fe00
122200
122200
13fe00
102080
103180
101f00
000000
ENDCHAR
STARTCHAR 3237
ENCODING 12855
SWIDTH 1000 0
DWIDTH 18 0
BBX 18 18 0 -2
BITMAP
000000
100000
103f00
3fa100
242100
442100
042100
7fa100
042100
242100
27a100
242100
242100
27a700
3c2000
602000
002000
000000
ENDCHAR
STARTCHAR 3238
ENCODING 12856
SWIDTH 1000 0
DWIDTH 18 0
BBX 18 18 0 -2
BITMAP
000000
000000
1ffe00
108200
108200
17fa00
112200
121200
140a00
100200
1ffe00
004000
126300
122180
320480
230c00
61f800
000000
ENDCHAR
STARTCHAR 3239
ENCODING 12857
SWIDTH 1000 0
DWIDTH 18 0
BBX 18 18 0 -2
BITMAP
000000
000000
31fe00
190200
090200
01fe00
610200
310200
11fe00
000000
0bff00
0a4900
1a4900
124900
324900
224900
67ff80
000000
ENDCHAR
STARTCHAR 323a
ENCODING 12858
SWIDTH 1000 0
DWIDTH 18 0
BBX 18 18 0 -2
BITMAP
000000
060300
1c1e00
73f100
112300
109200
7dff00
100100
19ff00
140100
35ff00
300000
501000
515900
114980
134280
123e00
000000
ENDCHAR
STARTCHAR 323b
ENCODING 12859
SWIDTH 1000 0
DWIDTH 18 0
BBX 18 18 0 -2
BITMAP
000000
008000
008000
3fff00
040800
061800
021000
7fff80
000000
0ffc00
080400
080400
0ffc00
080400
080400
080400
0ffc00
000000
ENDCHAR
STARTCHAR 323c
ENCODING 12860
SWIDTH 1000 0
DWIDTH 18 0
BBX 18 18 0 -2
BITMAP
000000
000000
7fff80
008000
008000
008000
00e000
00b000
009800
008c00
008400
008000
008000
008000
008000
008000
008000
000000
ENDCHAR
STARTCHAR 323d
ENCODING 12861
SWIDTH 1000 0
DWIDTH 18 0
BBX 18 18 0 -2
BITMAP
000000
022000
022000
062000
042100
0c2300
082e00
183800
382000
682000
082000
082000
082080
082080
082180
083100
081f00
000000
ENDCHAR
STARTCHAR 323e
ENCODING 12862
SWIDTH 1000 0
DWIDTH 18 0
BBX 18 18 0 -2
BITMAP
000000
040000
05ff00
0d0000
090000
190000
11fe00
314200
514600
116400
112c00
113800
131000
123800
166c00
10c600
118380
000000
ENDCHAR
STARTCHAR 323f
ENCODING 12863
SWIDTH 1000 0
DWIDTH 18 0
BBX 18 18 0 -2
BITMAP
000000
040000
040000
0fff80
080200
180200
11e200
312200
512200
112200
112200
112200
11e200
100200
100200
100200
100e00
000000
ENDCHAR
STARTCHAR 3240
ENCODING 12864
SWIDTH 1000 0
DWIDTH 18 0
BBX 18 18 0 -2
BITMAP
000000
090000
090000
090f00
190900
17e900
312900
312900
512900
112900
112900
112900
132900
122900
126900
164f00
14c000
000000
ENDCHAR
STARTCHAR 3241
ENCODING 12865
SWIDTH 1000 0
DWIDTH 18 0
BBX 18 18 0 -2
BITMAP
000000
040000
040000
0fff80
084800
184800
104800
33ff00
524900
124900
124900
124900
124900
124900
124900
13ff00
100000
000000
ENDCHAR
STARTCHAR 3242
ENCODING 12866
SWIDTH 1000 0
DWIDTH 18 0
BBX 18 18 0 -2
BITMAP
000000
041000
041000
0dff00
081000
181000
101000
33ff80
500000
101000
101000
11ff00
101000
101000
101000
13ff80
100000
000000
ENDCHAR
STARTCHAR 3243
ENCODING 12867
SWIDTH 1000 0
DWIDTH 18 0
BBX 18 18 0 -2
BITMAP
000000
080000
080000
081f00
081100
7f9100
089100
089100
089100
089100
089100
189100
109100
119100
311100
211f00
630000
000000
ENDCHAR
STARTCHAR 3244
ENCODING 12868
SWIDTH 1000 0
DWIDTH 18 0
BBX 18 18 0 -2
BITMAP
000000
000000
7fff80
000400
000400
0fc400
084400
084400
084400
084400
084400
0fc400
000400
000400
000400
000400
001c00
000000
ENDCHAR
STARTCHAR 3245
ENCODING 12869
SWIDTH 1000 0
DWIDTH 18 0
BBX 18 18 0 -2
BITMAP
000000
008000
008000
7fff80
008000
3fff00
000000
0ffc00
080400
0ffc00
021000
7fff80
080000
3f3f00
092100
112100
673f00
000000
ENDCHAR
STARTCHAR 3246
ENCODING 12870
SWIDTH 1000 0
DWIDTH 18 0
BBX 18 18 0 -2
BITMAP
000000
000000
7fff80
008000
0ffc00
080400
0ffc00
080400
0ffc00
080400
0ffc00
020000
07fc00
0c0800
321000
01e000
7e1f80
000000
ENDCHAR
STARTCHAR 3247
ENCODING 12871
SWIDTH 1000 0
DWIDTH 18 0
BBX 18 18 0 -2
BITMAP
000000
101000
101000
11ff00
7d0100
140000
14fe00
142000
345100
259300
282a00
784800
099c00
142a00
144b00
218980
403000
000000
ENDCHAR
STARTCHAR 3248
ENCODING 12872
SWIDTH 1000 0
DWIDTH 18 0
BBX 18 18 0 -2
BITMAP
000000
008000
008000
3fff00
200100
200100
0ffc00
010000
068300
38c600
034c00
0e6000
38f000
035800
0e4e00
78c380
038000
000000
ENDCHAR
STARTCHAR 3249
ENCODING 12873
SWIDTH 1000 0
DWIDTH 18 0
BBX 18 18 0 -2
BITMAP
000000
008000
7fff80
400080
5ffe80
008000
0ffc00
080400
0ffc00
080400
0ffc00
080400
7fff80
100200
6ffd80
020400
1c1c00
000000
ENDCHAR
STARTCHAR 324a
ENCODING 12874
SWIDTH 1000 0
DWIDTH 18 0
BBX 18 18 0 -2
BITMAP
000000
030200
0e6200
783200
081200
080200
7f0200
086200
083200
1c1200
1a0200
290380
281e00
48f200
080200
080200
080200
000000
ENDCHAR
STARTCHAR 324b
ENCODING 12875
SWIDTH 1000 0
DWIDTH 18 0
BBX 18 18 0 -2
BITMAP
000000
000000
03df00
7a4100
4a4100
4a4100
4bdf00
4a0000
7a3f00
4bd100
4a1b00
4a0a00
4a0e00
7bc400
020e00
021b00
023180
000000
ENDCHAR
STARTCHAR 324c
ENCODING 12876
SWIDTH 1000 0
DWIDTH 18 0
BBX 18 18 0 -2
BITMAP
000000
000000
1ffe00
108200
108200
1ffe00
108200
108200
1ffe00
008000
7fff80
029000
069800
0c8c00
188600
708380
008000
000000
ENDCHAR
STARTCHAR 324d
ENCODING 12877
SWIDTH 1000 0
DWIDTH 18 0
BBX 18 18 0 -2
BITMAP
000000
080000
081f00
7f9100
089100
089100
189100
109100
339f00
600000
008000
7fff80
029000
069800
1c8e00
708380
008000
000000
ENDCHAR
STARTCHAR 324e
ENCODING 12878
SWIDTH 1000 0
DWIDTH 18 0
BBX 18 18 0 -2
BITMAP
000000
002000
7fa000
022000
3a3f80
2a6080
3a4980
02c900
060800
000800
7f9c00
021400
3a1400
2a3600
3a2200
026300
06c180
000000
ENDCHAR
STARTCHAR 324f
ENCODING 12879
SWIDTH 1000 0
DWIDTH 18 0
BBX 18 18 0 -2
BITMAP
000000
300000
1bff80
080200
000200
01e200
612200
312200
112200
012200
092200
09e200
180200
100200
300200
200200
600e00
000000
ENDCHAR
STARTCHAR 3250
ENCODING 12880
SWIDTH 1000 0
DWIDTH 18 0
BBX 18 18 0 -2
BITMAP
000000
008000
008000
008100
088300
088200
088600
188c00
108800
31c000
014000
036000
023000
061800
0c0c00
180600
700380
000000
ENDCHAR
STARTCHAR 3251
ENCODING 12881
SWIDTH 1000 0
DWIDTH 18 0
BBX 18 18 0 -2
BITMAP
000000
000000
7dff80
100200
100200
10f200
109200
7c9200
109200
109200
109200
10f200
100200
1c0200
700200
000200
000e00
000000
ENDCHAR
STARTCHAR 3252
ENCODING 12882
SWIDTH 1000 0
DWIDTH 18 0
BBX 18 18 0 -2
BITMAP
000000
080000
087e00
084200
7e5e00
025200
065200
045200
0cff00
188100
3ebd00
6ba500
08a500
08a500
08bd00
088100
088300
000000
ENDCHAR
STARTCHAR 3253
ENCODING 12883
SWIDTH 1000 0
DWIDTH 18 0
BBX 18 18 0 -2
BITMAP
000000
000c00
00f800
1f8000
008000
008000
008000
7fff80
029000
069800
048800
0c8c00
188600
308300
608180
008000
008000
000000
ENDCHAR
STARTCHAR 3254
ENCODING 12884
SWIDTH 1000 0
DWIDTH 18 0
BBX 18 18 0 -2
BITMAP
000000
021000
0e1000
79ff00
090100
080000
7efe00
082000
085100
1c9300
1a2a00
284800
299c00
482e00
084b00
098980
083000
000000
ENDCHAR
STARTCHAR 3255
ENCODING 12885
SWIDTH 1000 0
DWIDTH 18 0
BBX 18 18 0 -2
BITMAP
000000
101000
101000
3fbf80
244800
420400
3fff00
208100
2ffd00
208100
208100
27f900
240900
240900
27f900
200100
3fff00
000000
ENDCHAR
STARTCHAR 3256
ENCODING 12886
SWIDTH 1000 0
DWIDTH 18 0
BBX 18 18 0 -2
BITMAP
000000
021000
021000
7fff80
021000
021000
042000
042000
082300
182e00
283800
482000
082000
082000
082080
083180
081f00
000000
ENDCHAR
STARTCHAR 3257
ENCODING 12887
SWIDTH 1000 0
DWIDTH 18 0
BBX 18 18 0 -2
BITMAP
000000
021000
021000
7fff80
021000
021000
000000
7fff80
000400
0fc400
084400
084400
084400
0fc400
000400
000400
001c00
000000
ENDCHAR
STARTCHAR 3258
ENCODING 12888
SWIDTH 1000 0
DWIDTH 18 0
BBX 18 18 0 -2
BITMAP
000000
021000
021000
7fff80
021000
021000
080000
081f00
7f9100
089100
089100
189100
109100
119100
311100
211f00
670000
000000
ENDCHAR
STARTCHAR 3259
ENCODING 12889
SWIDTH 1000 0
DWIDTH 18 0
BBX 18 18 0 -2
BITMAP
000000
021000
021000
7fff80
021000
021000
080000
0bff80
100400
11e400
312400
512400
112400
11e400
100400
100400
101c00
000000
ENDCHAR
STARTCHAR 325a
ENCODING 12890
SWIDTH 1000 0
DWIDTH 18 0
BBX 18 18 0 -2
BITMAP
000000
021000
021000
7fff80
021000
3fff00
088400
088400
7fff80
088400
088400
3fff00
008000
008000
3fff00
008000
008000
000000
ENDCHAR
STARTCHAR 325b
ENCODING 12891
SWIDTH 1000 0
DWIDTH 18 0
BBX 18 18 0 -2
BITMAP
000000
021000
021000
7fff80
021000
1ffe00
108200
1ffe00
108200
1ffe00
008000
7fff80
029000
069800
1c8e00
708380
008000
000000
ENDCHAR
STARTCHAR 325c
ENCODING 12892
SWIDTH 1000 0
DWIDTH 18 0
BBX 18 18 0 -2
BITMAP
000000
000000
11ef00
112100
112100
7d2100
55ef00
550000
551f00
55e900
7d0b00
110a00
15ee00
150400
3d0e00
651b00
013180
000000
ENDCHAR
STARTCHAR 325d
ENCODING 12893
SWIDTH 1000 0
DWIDTH 18 0
BBX 18 18 0 -2
BITMAP
000000
000000
3cff00
009100
7e9100
00ff00
3c9100
009100
00ff00
3c1000
01ff80
005400
3c5600
24d200
249300
259180
3c1000
000000
ENDCHAR
STARTCHAR 325e
ENCODING 12894
SWIDTH 1000 0
DWIDTH 18 0
BBX 18 18 0 -2
BITMAP
000000
004400
004400
7bff80
484400
49ff00
489200
489200
4bff80
489200
489200
49ff00
781000
001000
03ff80
001000
001000
000000
ENDCHAR
STARTCHAR 325f
ENCODING 12895
SWIDTH 1000 0
DWIDTH 18 0
BBX 18 18 0 -2
BITMAP
000000
022000
062300
1c3e00
742000
042100
041f00
000000
0ffc00
080400
0ffc00
080400
0ffc00
080400
0ffc00
040800
380700
000000
ENDCHAR
STARTCHAR 3260
ENCODING 12896
SWIDTH 1000 0
DWIDTH 18 0
BBX 18 18 0 -2
BITMAP
000000
010000
610000
310f00
17e900
012900
012900
012900
712900
112900
132900
122900
126900
164f00
30c000
280000
67ff80
000000
ENDCHAR
STARTCHAR 3261
ENCODING 12897
SWIDTH 1000 0
DWIDTH 18 0
BBX 18 18 0 -2
BITMAP
000000
01fe00
310200
193e00
092200
012200
012200
03ff00
720100
12fd00
128500
128500
12fd00
120100
320300
280000
67ff80
000000
ENDCHAR
STARTCHAR 3262
ENCODING 12898
SWIDTH 1000 0
DWIDTH 18 0
BBX 18 18 0 -2
BITMAP
000000
3fff00
008000
7fff80
408080
5e9e80
008000
1e9e00
000000
3f7f00
210100
3f7f00
200000
3e7f00
202200
3e1c00
20e380
000000
ENDCHAR
STARTCHAR 3263
ENCODING 12899
SWIDTH 1000 0
DWIDTH 18 0
BBX 18 18 0 -2
BITMAP
000000
080800
080800
080800
7fff80
492200
492200
492200
493600
491400
7f1c00
080800
0a1c00
0a1400
0f3600
396300
60c180
000000
ENDCHAR
STARTCHAR 3264
ENCODING 12900
SWIDTH 1000 0
DWIDTH 18 0
BBX 18 18 0 -2
BITMAP
000000
086a00
08cb00
1b8900
108800
108800
37ff80
308800
508900
108900
10eb00
178a00
108e00
108480
108e80
109b80
13b100
000000
ENDCHAR
STARTCHAR 3265
ENCODING 12901
SWIDTH 1000 0
DWIDTH 18 0
BBX 18 18 0 -2
BITMAP
000000
106a00
10cb00
138900
108800
548800
57ff80
548800
548900
548900
54eb00
578a00
548e00
7c8480
008e80
009b80
03b100
000000
ENDCHAR
STARTCHAR 3266
ENCODING 12902
SWIDTH 1000 0
DWIDTH 18 0
BBX 18 18 0 -2
BITMAP
000000
01a000
072600
3c2300
042100
042000
7fff80
042000
042100
043300
079600
7c1c00
040800
041c80
043680
046380
1dc100
000000
ENDCHAR
STARTCHAR 3267
ENCODING 12903
SWIDTH 1000 0
DWIDTH 18 0
BBX 18 18 0 -2
BITMAP
000000
000000
3fff00
040800
040800
040800
040800
040800
7fff80
004800
00c800
018800
030800
060800
1c0800
700800
003800
000000
ENDCHAR
STARTCHAR 3268
ENCODING 12904
SWIDTH 1000 0
DWIDTH 18 0
BBX 18 18 0 -2
BITMAP
000000
000000
7fff80
008000
008000
27f900
248900
248900
248900
27f900
248900
248900
248900
27f900
200100
3fff00
000000
000000
ENDCHAR
STARTCHAR 3269
ENCODING 12905
SWIDTH 1000 0
DWIDTH 18 0
BBX 18 18 0 -2
BITMAP
000000
000800
3f8800
240800
240800
240800
3f8800
208800
209c00
209400
3f9400
241400
243600
242200
242200
3fe300
004180
000000
ENDCHAR
STARTCHAR 326a
ENCODING 12906
SWIDTH 1000 0
DWIDTH 18 0
BBX 18 18 0 -2
BITMAP
000000
021000
021000
7fff80
021000
000000
3fff00
040800
040800
040800
7fff80
006800
00c800
038800
0e0800
780800
003800
000000
ENDCHAR
STARTCHAR 326b
ENCODING 12907
SWIDTH 1000 0
DWIDTH 18 0
BBX 18 18 0 -2
BITMAP
000000
102a00
104b00
11c900
7c4800
544800
55ff80
544800
544900
7c4900
106a00
11ca00
144c00
144480
3c4680
644b80
01d100
000000
ENDCHAR
STARTCHAR 326c
ENCODING 12908
SWIDTH 1000 0
DWIDTH 18 0
BBX 18 18 0 -2
BITMAP
000000
080000
083f00
7fa100
08a100
18a100
33bf00
600000
0ffc00
080400
0ffc00
080400
0ffc00
080400
0ffc00
040800
380700
000000
ENDCHAR
STARTCHAR 326d
ENCODING 12909
SWIDTH 1000 0
DWIDTH 18 0
BBX 18 18 0 -2
BITMAP
000000
001100
3f1300
121200
123f80
126400
12a400
122400
7fbf00
0a2400
0a2400
0a2400
1a3f00
122400
322400
622400
0e3f80
000000
ENDCHAR
STARTCHAR 326e
ENCODING 12910
SWIDTH 1000 0
DWIDTH 18 0
BBX 18 18 0 -2
BITMAP
000000
081500
1c2480
16e480
322400
682400
3eff80
222400
3e2480
222480
3e3500
20e500
242600
242280
2e2280
3a2580
60e880
000000
ENDCHAR
STARTCHAR 326f
ENCODING 12911
SWIDTH 1000 0
DWIDTH 18 0
BBX 18 18 0 -2
BITMAP
000000
080000
7fbf80
08a080
18a080
33bf80
600000
0ffe00
084000
0ffc00
084000
0ffc00
084000
0fff00
249100
624900
400300
000000
ENDCHAR
STARTCHAR 3270
ENCODING 12912
SWIDTH 1000 0
DWIDTH 18 0
BBX 18 18 0 -2
BITMAP
000000
008000
01c000
036000
063000
0c1800
1c0e00
740b80
040800
040800
040800
040800
040800
0c0800
080800
180800
300800
000000
ENDCHAR
STARTCHAR 3271
ENCODING 12913
SWIDTH 1000 0
DWIDTH 18 0
BBX 18 18 0 -2
BITMAP
000000
008000
01c000
036000
063800
1c0e00
700380
0ffc00
000000
000000
7fff80
020000
020800
060800
047c00
0fc600
380300
000000
ENDCHAR
STARTCHAR 3272
ENCODING 12914
SWIDTH 1000 0
DWIDTH 18 0
BBX 18 18 0 -2
BITMAP
000000
100000
1f7f00
311100
221100
7fb100
24e700
248000
3f9400
249400
24bf00
3fa400
208400
20ff80
208400
608400
438400
000000
ENDCHAR
STARTCHAR 3273
ENCODING 12915
SWIDTH 1000 0
DWIDTH 18 0
BBX 18 18 0 -2
BITMAP
000000
000000
3fff00
200100
200100
200100
23f100
221100
221100
221100
221100
23f100
200100
200100
200100
3fff00
000000
000000
ENDCHAR
STARTCHAR 3274
ENCODING 12916
SWIDTH 1000 0
DWIDTH 18 0
BBX 18 18 0 -2
BITMAP
000000
101000
102000
11ff00
111100
7d1100
11ff00
111100
111100
11ff00
104800
1c4a00
304a80
60cf80
008800
018880
070780
000000
ENDCHAR
STARTCHAR 3275
ENCODING 12917
SWIDTH 1000 0
DWIDTH 18 0
BBX 18 18 0 -2
BITMAP
000000
101000
101000
13ff80
101000
7dff00
114900
114900
11ff00
101000
13ff80
1c4800
30cc80
618500
068600
00f300
038180
000000
ENDCHAR
STARTCHAR 3276
ENCODING 12918
SWIDTH 1000 0
DWIDTH 18 0
BBX 18 18 0 -2
BITMAP
000000
000000
7eff00
048100
088100
10bd00
3ca500
04a500
04a500
24a500
34bd00
148100
1c8100
08ff00
1c0000
370000
61ff80
000000
ENDCHAR
STARTCHAR 3277
ENCODING 12919
SWIDTH 1000 0
DWIDTH 18 0
BBX 18 18 0 -2
BITMAP
000000
082000
082000
082000
09fe00
2c2200
2a2200
2a2200
682200
4bff80
085000
085000
085800
08c800
088c00
098600
0b0380
000000
ENDCHAR
STARTCHAR 3278
ENCODING 12920
SWIDTH 1000 0
DWIDTH 18 0
BBX 18 18 0 -2
BITMAP
000000
080000
0bfe00
088200
08c600
2c6c00
2a3800
2a6c00
68c600
4b9380
081000
09ff00
081000
081000
081000
0bff80
080000
000000
ENDCHAR
STARTCHAR 3279
ENCODING 12921
SWIDTH 1000 0
DWIDTH 18 0
BBX 18 18 0 -2
BITMAP
000000
088000
088000
09ff00
090000
2a0000
2cfe00
2a9200
689200
489200
0fff80
092200
092200
092200
09ff80
080400
081c00
000000
ENDCHAR
STARTCHAR 327a
ENCODING 12922
SWIDTH 1000 0
DWIDTH 18 0
BBX 18 18 0 -2
BITMAP
000000
100000
13ff80
120000
121000
521100
5a5300
565200
52d600
129400
121000
123800
122800
126c00
144600
10c300
118180
000000
ENDCHAR
STARTCHAR 327b
ENCODING 12923
SWIDTH 1000 0
DWIDTH 18 0
BBX 18 18 0 -2
BITMAP
000000
101000
101000
13ff80
101000
59ff00
554900
554900
51ff00
101000
13ff80
104800
10cc80
118500
168600
10f300
138180
000000
ENDCHAR
STARTCHAR 327c
ENCODING 12924
SWIDTH 1000 0
DWIDTH 18 0
BBX 18 18 0 -2
BITMAP
000000
002600
002300
002100
7fff80
002000
092000
093100
091300
3fd600
091c00
090800
191c00
113480
316680
60c380
038100
000000
ENDCHAR
STARTCHAR 327d
ENCODING 12925
SWIDTH 1000 0
DWIDTH 18 0
BBX 18 18 0 -2
BITMAP
000000
100000
10fe00
108200
108200
7c8200
10fe00
100000
100000
1dff00
702100
102100
106100
104100
10c300
118200
330e00
000000
ENDCHAR
STARTCHAR 327e
ENCODING 12926
SWIDTH 1000 0
DWIDTH 18 0
BBX 18 18 0 -2
BITMAP
000000
002000
002000
7f2000
013f80
012200
016200
3f5200
20d600
201400
201c00
200800
211c00
311400
1f3600
006300
00c180
000000
ENDCHAR
STARTCHAR 3321
ENCODING 13089
SWIDTH 1000 0
DWIDTH 18 0
BBX 18 18 0 -2
BITMAP
000000
040200
083200
3f9a00
248a00
248200
3fb200
249a00
248a00
3f8380
123e00
128200
12a200
13e200
320280
230180
61ff00
000000
ENDCHAR
STARTCHAR 3322
ENCODING 13090
SWIDTH 1000 0
DWIDTH 18 0
BBX 18 18 0 -2
BITMAP
000000
008000
008000
3dff00
250000
260000
24fe00
249200
3c9200
249200
27ff80
252200
252200
3d2200
01ff80
000400
001c00
000000
ENDCHAR
STARTCHAR 3323
ENCODING 13091
SWIDTH 1000 0
DWIDTH 18 0
BBX 18 18 0 -2
BITMAP
000000
080a00
080900
080800
7eff80
080800
08a800
1ca900
1aa900
19fb00
28aa00
28ae00
48a400
08ae80
091a80
083380
08e100
000000
ENDCHAR
STARTCHAR 3324
ENCODING 13092
SWIDTH 1000 0
DWIDTH 18 0
BBX 18 18 0 -2
BITMAP
000000
008000
308000
19ff00
090000
030000
60fe00
309200
109200
009200
0bff80
092200
192200
112200
31ff80
200400
601c00
000000
ENDCHAR
STARTCHAR 3325
ENCODING 13093
SWIDTH 1000 0
DWIDTH 18 0
BBX 18 18 0 -2
BITMAP
000000
000000
1fff00
100000
104000
104100
124300
124600
164400
144000
10e000
30a000
21b000
211800
630c00
060600
1c0380
000000
ENDCHAR
STARTCHAR 3326
ENCODING 13094
SWIDTH 1000 0
DWIDTH 18 0
BBX 18 18 0 -2
BITMAP
000000
000000
1ffe00
108200
108200
1ffe00
108200
108200
1ffe00
021000
061800
1c0e00
740b80
040800
040800
0c0800
180800
000000
ENDCHAR
STARTCHAR 3327
ENCODING 13095
SWIDTH 1000 0
DWIDTH 18 0
BBX 18 18 0 -2
BITMAP
000000
102000
102300
1f3e00
102000
102080
102180
1f3f00
704000
008000
0ffc00
080400
080400
0ffc00
080400
080400
0ffc00
000000
ENDCHAR
STARTCHAR 3328
ENCODING 13096
SWIDTH 1000 0
DWIDTH 18 0
BBX 18 18 0 -2
BITMAP
000000
081000
183800
302c00
626600
36c300
0d8180
187e00
320000
7e0000
0aff00
082000
2a2000
2a6200
6a4200
485f00
08f100
000000
ENDCHAR
STARTCHAR 3329
ENCODING 13097
SWIDTH 1000 0
DWIDTH 18 0
BBX 18 18 0 -2
BITMAP
000000
040800
040800
7fff80
040800
048800
01c000
036000
063800
1c0e00
740b80
040800
040800
0c0800
080800
180800
300800
000000
ENDCHAR
STARTCHAR 332a
ENCODING 13098
SWIDTH 1000 0
DWIDTH 18 0
BBX 18 18 0 -2
BITMAP
000000
1e3f00
220900
7f9900
24b300
3f9400
249f00
3fa400
20ff80
638400
408400
3fff00
208100
3fff00
008200
03ff00
7e0180
000000
ENDCHAR
STARTCHAR 332b
ENCODING 13099
SWIDTH 1000 0
DWIDTH 18 0
BBX 18 18 0 -2
BITMAP
000000
000000
3f3f00
212100
3f3f00
212100
3f3f00
200100
27f900
212100
212100
2ffd00
212100
212100
232100
262100
200700
000000
ENDCHAR
STARTCHAR 332c
ENCODING 13100
SWIDTH 1000 0
DWIDTH 18 0
BBX 18 18 0 -2
BITMAP
000000
008800
3e8980
22ef00
268800
248800
2c8880
28e780
258800
221000
22ff00
228100
228100
2cff00
208100
208100
20ff00
000000
ENDCHAR
STARTCHAR 332d
ENCODING 13101
SWIDTH 1000 0
DWIDTH 18 0
BBX 18 18 0 -2
BITMAP
000000
000000
0ffc00
080400
080400
0ffc00
080400
080400
080400
0ffc00
080400
080400
080400
0ffc00
040800
0c0c00
380700
000000
ENDCHAR
STARTCHAR 332e
ENCODING 13102
SWIDTH 1000 0
DWIDTH 18 0
BBX 18 18 0 -2
BITMAP
000000
040000
249e00
249200
3f9200
001200
7fd200
001200
3f9200
209200
209200
3f9200
111200
111200
0bd280
1e3280
706180
000000
ENDCHAR
STARTCHAR 332f
ENCODING 13103
SWIDTH 1000 0
DWIDTH 18 0
BBX 18 18 0 -2
BITMAP
000000
040800
040800
040800
7fc800
083f80
180880
310880
1b0880
060880
0c8880
198880
631880
061180
0d1100
18b100
606700
000000
ENDCHAR
STARTCHAR 3330
ENCODING 13104
SWIDTH 1000 0
DWIDTH 18 0
BBX 18 18 0 -2
BITMAP
000000
081000
081000
0f9000
089000
189000
109800
309c00
699600
051300
031180
021000
061000
0c1000
181000
301000
601000
000000
ENDCHAR
STARTCHAR 3331
ENCODING 13105
SWIDTH 1000 0
DWIDTH 18 0
BBX 18 18 0 -2
BITMAP
000000
001000
001000
7c1000
47ff80
442000
446400
44cc00
458900
44db00
443200
446600
7ccc00
039800
003600
00e300
078180
000000
ENDCHAR
STARTCHAR 3332
ENCODING 13106
SWIDTH 1000 0
DWIDTH 18 0
BBX 18 18 0 -2
BITMAP
000000
008000
008000
3fff00
200100
208100
1ffe00
008000
1ffe00
008000
7fff80
000000
0ffc00
080400
080400
080400
0ffc00
000000
ENDCHAR
STARTCHAR 3333
ENCODING 13107
SWIDTH 1000 0
DWIDTH 18 0
BBX 18 18 0 -2
BITMAP
000000
104100
104100
1fff00
000000
3fff80
200000
204000
27fe00
204000
2fff00
200000
204000
67fe00
404000
5fff80
000000
000000
ENDCHAR
STARTCHAR 3334
ENCODING 13108
SWIDTH 1000 0
DWIDTH 18 0
BBX 18 18 0 -2
BITMAP
000000
100000
13df00
124a00
124a00
53ca00
5a4a00
564a00
53df80
120200
120200
124600
124600
126a00
13aa80
161280
102180
000000
ENDCHAR
STARTCHAR 3335
ENCODING 13109
SWIDTH 1000 0
DWIDTH 18 0
BBX 18 18 0 -2
BITMAP
000000
100000
13df00
124a00
124a00
7fca00
124a00
124a00
3bdf80
360200
320200
524600
124600
126a00
13aa80
161280
102180
000000
ENDCHAR
STARTCHAR 3336
ENCODING 13110
SWIDTH 1000 0
DWIDTH 18 0
BBX 18 18 0 -2
BITMAP
000000
000000
33ff80
1a0000
0a0800
027f00
620800
320800
12ff80
020000
020800
127f00
160800
340800
2c0800
60ff80
000000
000000
ENDCHAR
STARTCHAR 3337
ENCODING 13111
SWIDTH 1000 0
DWIDTH 18 0
BBX 18 18 0 -2
BITMAP
000000
007e00
7f4200
084200
087e00
184200
104200
1e7e00
320000
33ff80
520200
13ff80
124200
122200
1e2200
000200
000e00
000000
ENDCHAR
STARTCHAR 3338
ENCODING 13112
SWIDTH 1000 0
DWIDTH 18 0
BBX 18 18 0 -2
BITMAP
000000
040800
040800
7fff80
040800
008000
1ffe00
008000
7fff80
040400
080200
3ffd00
000000
1ffe00
122200
122200
7fff80
000000
ENDCHAR
STARTCHAR 3339
ENCODING 13113
SWIDTH 1000 0
DWIDTH 18 0
BBX 18 18 0 -2
BITMAP
000000
088000
188f00
17f000
308000
608000
07f000
080f80
188200
308200
77f200
108200
108200
108200
10f200
178200
100e00
000000
ENDCHAR
STARTCHAR 333a
ENCODING 13114
SWIDTH 1000 0
DWIDTH 18 0
BBX 18 18 0 -2
BITMAP
000000
000800
3e0800
000800
7f7f80
001000
3e3000
006200
003600
3e0c00
001900
003300
3e6600
220c00
221a00
223300
3e6180
000000
ENDCHAR
STARTCHAR 333b
ENCODING 13115
SWIDTH 1000 0
DWIDTH 18 0
BBX 18 18 0 -2
BITMAP
000000
080800
1c4900
164900
337f00
200000
7eff80
080000
087f00
7f4100
084100
4a7f00
6a2200
283600
0e1400
38ff80
600000
000000
ENDCHAR
STARTCHAR 333c
ENCODING 13116
SWIDTH 1000 0
DWIDTH 18 0
BBX 18 18 0 -2
BITMAP
000000
000800
3f0800
210800
2f7f80
290800
291800
7fb200
409600
3f0c00
211900
3f3300
216600
3f0c00
211a00
213300
236180
000000
ENDCHAR
STARTCHAR 333d
ENCODING 13117
SWIDTH 1000 0
DWIDTH 18 0
BBX 18 18 0 -2
BITMAP
000000
000000
31ff00
191100
091100
01ff00
611100
311100
111100
01ff00
081000
181000
11ff00
301000
201000
63ff80
000000
000000
ENDCHAR
STARTCHAR 333e
ENCODING 13118
SWIDTH 1000 0
DWIDTH 18 0
BBX 18 18 0 -2
BITMAP
000000
041e00
7fd200
042380
7fde00
249200
3f8c00
203200
4fe180
008000
7fff80
048800
1ffe00
680580
0ffc00
080400
0ffc00
000000
ENDCHAR
STARTCHAR 333f
ENCODING 13119
SWIDTH 1000 0
DWIDTH 18 0
BBX 18 18 0 -2
BITMAP
000000
080800
080800
087f00
7f0800
490800
490800
49ff80
490000
7f0800
080800
0a7f00
0a0800
0f0800
390800
60ff80
000000
000000
ENDCHAR
STARTCHAR 3340
ENCODING 13120
SWIDTH 1000 0
DWIDTH 18 0
BBX 18 18 0 -2
BITMAP
000000
100000
11ff00
100000
100000
7cfe00
108200
108200
10fe00
108200
108200
1c8200
30fe00
600000
000000
03ff80
000000
000000
ENDCHAR
STARTCHAR 3341
ENCODING 13121
SWIDTH 1000 0
DWIDTH 18 0
BBX 18 18 0 -2
BITMAP
000000
081000
081000
081000
7fff80
081000
081000
19ff00
1d1100
1b1100
291100
291100
491100
091700
081000
081000
081000
000000
ENDCHAR
STARTCHAR 3342
ENCODING 13122
SWIDTH 1000 0
DWIDTH 18 0
BBX 18 18 0 -2
BITMAP
000000
100000
10ff80
108000
7c8000
54ff80
549000
549000
549f00
7c9100
109100
149100
1d9100
353100
632300
066200
00ce00
000000
ENDCHAR
STARTCHAR 3343
ENCODING 13123
SWIDTH 1000 0
DWIDTH 18 0
BBX 18 18 0 -2
BITMAP
000000
082000
1c2000
162000
337f00
204100
7ec100
082100
082100
7f6900
084900
4a7d00
6ac500
280100
0e0300
380200
600e00
000000
ENDCHAR
STARTCHAR 3344
ENCODING 13124
SWIDTH 1000 0
DWIDTH 18 0
BBX 18 18 0 -2
BITMAP
000000
040100
3fc900
044900
7fe900
044900
3fc900
040900
3fc900
040900
7fe900
244900
3fc100
244100
3fc100
000100
7fe700
000000
ENDCHAR
STARTCHAR 3345
ENCODING 13125
SWIDTH 1000 0
DWIDTH 18 0
BBX 18 18 0 -2
BITMAP
000000
010400
010400
77df00
510400
510400
510400
5fff80
528a00
528a00
5adb00
7aaa80
0aaa80
128a00
049200
049200
09a600
000000
ENDCHAR
STARTCHAR 3346
ENCODING 13126
SWIDTH 1000 0
DWIDTH 18 0
BBX 18 18 0 -2
BITMAP
000000
020000
020000
07f800
0c0800
1e1800
733000
01e000
033000
0e1c00
780780
0ffc00
080400
080400
080400
080400
0ffc00
000000
ENDCHAR
STARTCHAR 3347
ENCODING 13127
SWIDTH 1000 0
DWIDTH 18 0
BBX 18 18 0 -2
BITMAP
000000
004000
004000
3fff80
210000
2fef00
200900
27c900
244a00
27ca00
200900
2fc900
208900
61e900
4f0b00
410800
070800
000000
ENDCHAR
STARTCHAR 3348
ENCODING 13128
SWIDTH 1000 0
DWIDTH 18 0
BBX 18 18 0 -2
BITMAP
000000
101000
101000
101000
11ff80
7d0000
111000
111000
111000
1d3000
712200
112200
112300
116100
134100
124f80
36f880
000000
ENDCHAR
STARTCHAR 3349
ENCODING 13129
SWIDTH 1000 0
DWIDTH 18 0
BBX 18 18 0 -2
BITMAP
000000
112100
11b300
109200
13ff80
7e0080
12fe80
108200
10fe00
1c8200
70fe00
108200
10fe00
104800
104880
10c980
338700
000000
ENDCHAR
STARTCHAR 334a
ENCODING 13130
SWIDTH 1000 0
DWIDTH 18 0
BBX 18 18 0 -2
BITMAP
000000
082000
082000
087e00
7e4200
08e600
09ac00
1c1800
1a3c00
186600
29c380
287e00
484200
084200
084200
084200
087e00
000000
ENDCHAR
STARTCHAR 334b
ENCODING 13131
SWIDTH 1000 0
DWIDTH 18 0
BBX 18 18 0 -2
BITMAP
000000
081000
081000
081000
7fff80
082000
086000
18c400
1c6c00
1a1800
283200
286600
49cc00
081800
083600
086300
09c180
000000
ENDCHAR
STARTCHAR 334c
ENCODING 13132
SWIDTH 1000 0
DWIDTH 18 0
BBX 18 18 0 -2
BITMAP
000000
080000
081e00
7f9200
081200
081200
3f2380
000000
7fbf00
409100
5e9300
121200
121600
128c00
331e00
223300
606180
000000
ENDCHAR
STARTCHAR 334d
ENCODING 13133
SWIDTH 1000 0
DWIDTH 18 0
BBX 18 18 0 -2
BITMAP
000000
044400
47ff80
284400
108800
11ff80
2b1000
4dff00
091000
19ff00
291000
49ff80
080000
0bff00
084600
183800
73c780
000000
ENDCHAR
STARTCHAR 334e
ENCODING 13134
SWIDTH 1000 0
DWIDTH 18 0
BBX 18 18 0 -2
BITMAP
000000
001000
001000
7eff80
089080
08b280
182400
107f00
1ec800
334800
327f00
524800
124800
127f00
124800
1e4800
007f80
000000
ENDCHAR
STARTCHAR 334f
ENCODING 13135
SWIDTH 1000 0
DWIDTH 18 0
BBX 18 18 0 -2
BITMAP
000000
022200
0dff80
782200
084800
08ff80
7f8800
08ff00
1c8800
1aff00
1a8800
28ff80
280000
49ff00
084200
083c00
09c380
000000
ENDCHAR
STARTCHAR 3350
ENCODING 13136
SWIDTH 1000 0
DWIDTH 18 0
BBX 18 18 0 -2
BITMAP
000000
110200
198600
088400
3fff00
200100
2ffd00
080400
0ffc00
080400
0ffc00
080400
0ffc00
021000
061080
1c1980
700f00
000000
ENDCHAR
STARTCHAR 3351
ENCODING 13137
SWIDTH 1000 0
DWIDTH 18 0
BBX 18 18 0 -2
BITMAP
000000
020000
07f800
0c1000
182000
6ffe00
084200
084200
0ffe00
084200
084200
0ffe00
080200
180200
100200
300200
600e00
000000
ENDCHAR
STARTCHAR 3352
ENCODING 13138
SWIDTH 1000 0
DWIDTH 18 0
BBX 18 18 0 -2
BITMAP
000000
040800
040800
3f7f00
040800
040800
040800
7fff80
0a1400
2b1500
2ab500
6a5580
4a1480
0a1400
1a3400
122400
366c00
000000
ENDCHAR
STARTCHAR 3353
ENCODING 13139
SWIDTH 1000 0
DWIDTH 18 0
BBX 18 18 0 -2
BITMAP
000000
080800
080800
7f0800
08ff80
3e2200
2a6300
2ac180
3e2200
2a3600
2a1400
3e1c00
080800
7f1c00
083600
086300
08c180
000000
ENDCHAR
STARTCHAR 3354
ENCODING 13140
SWIDTH 1000 0
DWIDTH 18 0
BBX 18 18 0 -2
BITMAP
000000
040000
041f00
7fd100
001300
3f9200
209600
3f9400
001200
7f9100
031100
0c1100
07d100
7c1100
041600
041000
1c1000
000000
ENDCHAR
STARTCHAR 3355
ENCODING 13141
SWIDTH 1000 0
DWIDTH 18 0
BBX 18 18 0 -2
BITMAP
000000
000000
3f3f00
212100
3f3f00
212100
3f3f00
210100
23f100
262100
21c100
233100
2c0d00
23f100
221100
23f100
200700
000000
ENDCHAR
STARTCHAR 3356
ENCODING 13142
SWIDTH 1000 0
DWIDTH 18 0
BBX 18 18 0 -2
BITMAP
000000
000000
3dff00
240000
24fe00
248200
28fe00
280000
25ff00
252900
254900
258700
250100
2d7d00
211100
211100
211300
000000
ENDCHAR
STARTCHAR 3357
ENCODING 13143
SWIDTH 1000 0
DWIDTH 18 0
BBX 18 18 0 -2
BITMAP
000000
041000
041000
7fff80
041000
041000
07f000
008000
1ffc00
108400
108400
1ffc00
008000
7fff80
008000
008000
008000
000000
ENDCHAR
STARTCHAR 3358
ENCODING 13144
SWIDTH 1000 0
DWIDTH 18 0
BBX 18 18 0 -2
BITMAP
000000
110200
198600
088400
3fff00
200100
200100
0ffc00
001800
006000
008000
7fff80
008000
008000
008000
008000
038000
000000
ENDCHAR
STARTCHAR 3359
ENCODING 13145
SWIDTH 1000 0
DWIDTH 18 0
BBX 18 18 0 -2
BITMAP
000000
000c00
007800
0fc000
080000
0fff00
080800
080800
080800
7fff80
008000
008000
108200
108200
108200
1ffe00
000000
000000
ENDCHAR
STARTCHAR 335a
ENCODING 13146
SWIDTH 1000 0
DWIDTH 18 0
BBX 18 18 0 -2
BITMAP
000000
004000
308300
1bf600
021000
021000
03f000
021000
1a1600
33f300
008000
7fff80
02a000
06b000
1c9c00
708780
008000
000000
ENDCHAR
STARTCHAR 335b
ENCODING 13147
SWIDTH 1000 0
DWIDTH 18 0
BBX 18 18 0 -2
BITMAP
000000
080000
08ff80
7f0800
417f00
514100
1e4100
227f00
544100
084100
147f00
634100
3e4100
227f00
222200
3e6300
00c180
000000
ENDCHAR
STARTCHAR 335c
ENCODING 13148
SWIDTH 1000 0
DWIDTH 18 0
BBX 18 18 0 -2
BITMAP
000000
000000
777f80
550800
553f00
772100
002100
3e3f00
002100
7f2100
083f00
102100
3e2100
023f00
021200
063300
1c6180
000000
ENDCHAR
STARTCHAR 335d
ENCODING 13149
SWIDTH 1000 0
DWIDTH 18 0
BBX 18 18 0 -2
BITMAP
000000
104200
104200
11f200
104200
7c4200
13fa00
100300
104280
1c4280
71f200
104200
104200
104200
107a00
13c200
300200
000000
ENDCHAR
STARTCHAR 335e
ENCODING 13150
SWIDTH 1000 0
DWIDTH 18 0
BBX 18 18 0 -2
BITMAP
000000
081000
081000
1fbf80
242800
424400
028400
008000
3fff00
000000
080400
0c0c00
040800
041800
001000
7fff80
000000
000000
ENDCHAR
STARTCHAR 335f
ENCODING 13151
SWIDTH 1000 0
DWIDTH 18 0
BBX 18 18 0 -2
BITMAP
000000
100000
13e000
129f00
7e8900
13eb00
122e00
1be400
368e00
329b00
33e180
501000
11ff00
101000
101000
13ff80
100000
000000
ENDCHAR
STARTCHAR 3360
ENCODING 13152
SWIDTH 1000 0
DWIDTH 18 0
BBX 18 18 0 -2
BITMAP
000000
100000
13ff80
100000
7cfe00
109200
10fe00
309200
3bff80
340000
50fe00
509200
10fe00
109200
10fe00
100000
13ff80
000000
ENDCHAR
STARTCHAR 3361
ENCODING 13153
SWIDTH 1000 0
DWIDTH 18 0
BBX 18 18 0 -2
BITMAP
000000
080000
09ff00
090100
7f0100
09ff00
090000
1d0e00
1b7800
191000
29ff00
291000
49ff80
091000
091080
0a1980
080f00
000000
ENDCHAR
STARTCHAR 3362
ENCODING 13154
SWIDTH 1000 0
DWIDTH 18 0
BBX 18 18 0 -2
BITMAP
000000
101400
1e7400
33c480
245480
7e5580
2bf500
2a5500
3e4400
2ae400
2b5400
3e4e00
004a00
004a00
554b00
555900
405180
000000
ENDCHAR
STARTCHAR 3363
ENCODING 13155
SWIDTH 1000 0
DWIDTH 18 0
BBX 18 18 0 -2
BITMAP
000000
006000
31cf00
190100
090100
01ef00
610100
310100
11ff00
008000
09ff80
0b0080
1e0480
115280
315180
220100
600700
000000
ENDCHAR
STARTCHAR 3364
ENCODING 13156
SWIDTH 1000 0
DWIDTH 18 0
BBX 18 18 0 -2
BITMAP
000000
040100
040900
7fc900
404900
444900
3f8900
040900
3f8900
040900
7fc900
000900
3f8100
208100
208100
208100
3f8700
000000
ENDCHAR
STARTCHAR 3365
ENCODING 13157
SWIDTH 1000 0
DWIDTH 18 0
BBX 18 18 0 -2
BITMAP
000000
01fe00
010200
790200
49fe00
490200
490200
49fe00
488000
48ff80
498080
7b1880
07f080
010080
010980
00f900
000700
000000
ENDCHAR
STARTCHAR 3366
ENCODING 13158
SWIDTH 1000 0
DWIDTH 18 0
BBX 18 18 0 -2
BITMAP
000000
081000
083800
082800
0c6c00
2ac600
298300
2b0180
68fe00
480000
080000
08fe00
088200
088200
088200
088200
08fe00
000000
ENDCHAR
STARTCHAR 3367
ENCODING 13159
SWIDTH 1000 0
DWIDTH 18 0
BBX 18 18 0 -2
BITMAP
000000
080300
080e00
08f800
080800
7e0800
080800
08ff80
080800
0e0800
780800
087f00
084100
084100
084100
084100
387f00
000000
ENDCHAR
STARTCHAR 3368
ENCODING 13160
SWIDTH 1000 0
DWIDTH 18 0
BBX 18 18 0 -2
BITMAP
000000
000300
301e00
19f000
081000
001000
601000
33ff80
101000
001000
081000
09ff00
190100
110100
310100
210100
61ff00
000000
ENDCHAR
STARTCHAR 3369
ENCODING 13161
SWIDTH 1000 0
DWIDTH 18 0
BBX 18 18 0 -2
BITMAP
000000
31fe00
190200
090200
01fe00
010200
610200
31fe00
108000
00ff80
098080
0b1880
1ff080
110080
310980
20f900
600700
000000
ENDCHAR
STARTCHAR 336a
ENCODING 13162
SWIDTH 1000 0
DWIDTH 18 0
BBX 18 18 0 -2
BITMAP
000000
30fe00
188200
089e00
009200
009200
63ff80
320080
120080
00fe00
088200
08fe00
188200
10fe00
308200
208200
608e00
000000
ENDCHAR
STARTCHAR 336b
ENCODING 13163
SWIDTH 1000 0
DWIDTH 18 0
BBX 18 18 0 -2
BITMAP
000000
021000
021000
7fff80
021000
0ffc00
080400
0ffc00
080400
0ffc00
040000
0fff00
180100
6fc100
081300
07f200
000e00
000000
ENDCHAR
STARTCHAR 336c
ENCODING 13164
SWIDTH 1000 0
DWIDTH 18 0
BBX 18 18 0 -2
BITMAP
000000
10fe00
108200
108200
7cfe00
048200
0c8200
08fe00
1a4000
347f80
58c080
159880
12f080
108080
108980
107900
100700
000000
ENDCHAR
STARTCHAR 336d
ENCODING 13165
SWIDTH 1000 0
DWIDTH 18 0
BBX 18 18 0 -2
BITMAP
000000
080800
080800
7fff80
088080
3e8880
2a7f00
2a0800
3e7f00
2a0800
2aff80
3e0000
087f00
7f4100
084100
084100
087f00
000000
ENDCHAR
STARTCHAR 336e
ENCODING 13166
SWIDTH 1000 0
DWIDTH 18 0
BBX 18 18 0 -2
BITMAP
000000
000000
0ffc00
080400
080400
080400
0ffc00
080400
080400
080400
0ffc00
080400
080400
080400
080400
7fff80
000000
000000
ENDCHAR
STARTCHAR 336f
ENCODING 13167
SWIDTH 1000 0
DWIDTH 18 0
BBX 18 18 0 -2
BITMAP
000000
100000
1ef000
32af00
24a500
7ef500
2a9700
2af200
3ea700
2aad00
2af180
3e0800
007f00
550800
550800
40ff80
000000
000000
ENDCHAR
STARTCHAR 3370
ENCODING 13168
SWIDTH 1000 0
DWIDTH 18 0
BBX 18 18 0 -2
BITMAP
000000
001000
001000
7c1000
441000
441000
441000
45ff80
441000
441000
441000
441000
7c1000
001000
001000
001000
001000
000000
ENDCHAR
STARTCHAR 3371
ENCODING 13169
SWIDTH 1000 0
DWIDTH 18 0
BBX 18 18 0 -2
BITMAP
000000
084400
084400
09ff80
7e4400
084400
082800
1c6800
1a4980
18cb00
29ce00
2b4800
484800
084800
084880
084980
084700
000000
ENDCHAR
STARTCHAR 3372
ENCODING 13170
SWIDTH 1000 0
DWIDTH 18 0
BBX 18 18 0 -2
BITMAP
000000
104400
104400
13ff80
7c4400
11ff00
109200
309200
3bff80
349200
509200
51ff00
101000
13ff80
101000
101000
101000
000000
ENDCHAR
STARTCHAR 3373
ENCODING 13171
SWIDTH 1000 0
DWIDTH 18 0
BBX 18 18 0 -2
BITMAP
000000
222000
222000
7f2000
227f00
224100
3ef900
080900
7f0900
497900
494300
7f4200
084e00
7f4000
084080
086180
083f00
000000
ENDCHAR
STARTCHAR 3374
ENCODING 13172
SWIDTH 1000 0
DWIDTH 18 0
BBX 18 18 0 -2
BITMAP
000000
081000
089000
089000
7e9000
09ff00
0d1000
1a1000
181000
1bff80
285400
285400
48d600
089200
099300
0b1180
081000
000000
ENDCHAR
STARTCHAR 3375
ENCODING 13173
SWIDTH 1000 0
DWIDTH 18 0
BBX 18 18 0 -2
BITMAP
000000
044000
0c8700
3bf100
221100
221100
23f100
221100
221100
3bf700
000000
022000
022000
062000
0c2080
183180
701f00
000000
ENDCHAR
STARTCHAR 3376
ENCODING 13174
SWIDTH 1000 0
DWIDTH 18 0
BBX 18 18 0 -2
BITMAP
000000
008000
3fff00
248900
7bef80
008000
7fff80
108200
1ffe00
108200
3fff00
208100
3fff00
208100
3fff00
008080
007f80
000000
ENDCHAR
STARTCHAR 3377
ENCODING 13175
SWIDTH 1000 0
DWIDTH 18 0
BBX 18 18 0 -2
BITMAP
000000
021000
021000
7fff80
021200
301100
1bff80
081000
61ff00
311100
11ff00
011100
09ff00
191100
111100
311100
611300
000000
ENDCHAR
STARTCHAR 3378
ENCODING 13176
SWIDTH 1000 0
DWIDTH 18 0
BBX 18 18 0 -2
BITMAP
000000
012000
033000
0e1c00
3b3700
01e000
033000
0e1c00
7bf780
008000
008000
3fff00
088400
0c8c00
048800
7fff80
000000
000000
ENDCHAR
STARTCHAR 3379
ENCODING 13177
SWIDTH 1000 0
DWIDTH 18 0
BBX 18 18 0 -2
BITMAP
000000
084200
1c2400
17ff80
322800
20ff00
7e2900
082900
09ff80
7e2900
082900
4aff00
6a2c00
286a00
0eab00
792980
002800
000000
ENDCHAR
STARTCHAR 337a
ENCODING 13178
SWIDTH 1000 0
DWIDTH 18 0
BBX 18 18 0 -2
BITMAP
000000
001000
009000
789f00
489000
489000
4bff80
490100
495500
491100
497d00
491100
793900
015500
011100
010100
01ff00
000000
ENDCHAR
STARTCHAR 337b
ENCODING 13179
SWIDTH 1000 0
DWIDTH 18 0
BBX 18 18 0 -2
BITMAP
000000
000800
7f1000
497f00
494100
497f00
7f4100
497f00
494000
497f80
7f4000
087f80
080080
08aa80
09aa80
090180
080300
000000
ENDCHAR
STARTCHAR 337c
ENCODING 13180
SWIDTH 1000 0
DWIDTH 18 0
BBX 18 18 0 -2
BITMAP
000000
080000
09ff80
080800
7e1800
081000
08ff00
1c8100
1a8100
1a8100
288100
28ff00
488100
088100
088100
088100
08ff00
000000
ENDCHAR
STARTCHAR 337d
ENCODING 13181
SWIDTH 1000 0
DWIDTH 18 0
BBX 18 18 0 -2
BITMAP
000000
021000
021000
7fff80
021000
1ffc00
001800
022000
014000
7fff80
014100
034200
064000
0c4000
184000
704000
01c000
000000
ENDCHAR
STARTCHAR 337e
ENCODING 13182
SWIDTH 1000 0
DWIDTH 18 0
BBX 18 18 0 -2
BITMAP
000000
040800
040800
7fff80
040800
008000
3fff00
200100
2ffd00
000000
0ffc00
080400
0ffc00
080400
0ffc00
000000
7fff80
000000
ENDCHAR
STARTCHAR 3421
ENCODING 13345
SWIDTH 1000 0
DWIDTH 18 0
BBX 18 18 0 -2
BITMAP
000000
000000
788f00
0aa100
0aa100
0aa100
788f00
47f800
408800
79cf00
09c100
0aa100
0aa100
0c9100
188300
108200
700e00
000000
ENDCHAR
STARTCHAR 3422
ENCODING 13346
SWIDTH 1000 0
DWIDTH 18 0
BBX 18 18 0 -2
BITMAP
000000
008100
008900
008900
008900
318900
190900
0d0900
070900
020900
070900
058900
0c8100
08c100
184100
300100
600700
000000
ENDCHAR
STARTCHAR 3423
ENCODING 13347
SWIDTH 1000 0
DWIDTH 18 0
BBX 18 18 0 -2
BITMAP
000000
021000
021000
7fff80
021000
021000
008100
309100
199100
0d1100
071100
021100
071100
0d8100
18c100
304100
600700
000000
ENDCHAR
STARTCHAR 3424
ENCODING 13348
SWIDTH 1000 0
DWIDTH 18 0
BBX 18 18 0 -2
BITMAP
000000
000000
7fff80
020000
020000
020000
07f000
041000
041000
051000
059000
0c9000
081000
081000
09d080
1f1980
700f00
000000
ENDCHAR
STARTCHAR 3425
ENCODING 13349
SWIDTH 1000 0
DWIDTH 18 0
BBX 18 18 0 -2
BITMAP
000000
082000
082000
7f2000
087f80
3ec000
238000
227f00
3e0600
220c00
221800
3e3000
082000
7f6000
084080
086180
083f00
000000
ENDCHAR
STARTCHAR 3426
ENCODING 13350
SWIDTH 1000 0
DWIDTH 18 0
BBX 18 18 0 -2
BITMAP
000000
040000
05ff00
0d0100
090100
190100
11ff00
300000
509200
109200
109200
109200
109200
109200
119280
111280
130180
000000
ENDCHAR
STARTCHAR 3427
ENCODING 13351
SWIDTH 1000 0
DWIDTH 18 0
BBX 18 18 0 -2
BITMAP
000000
000000
3fff00
200100
200100
3f0200
000200
007f80
7f8200
122200
123200
121200
120200
120200
320e80
230180
61ff00
000000
ENDCHAR
STARTCHAR 3428
ENCODING 13352
SWIDTH 1000 0
DWIDTH 18 0
BBX 18 18 0 -2
BITMAP
000000
008000
008000
3fff00
200100
221100
1ffe00
021000
1ffe00
021000
7fff80
040800
1dee00
703380
078000
00f000
001800
000000
ENDCHAR
STARTCHAR 3429
ENCODING 13353
SWIDTH 1000 0
DWIDTH 18 0
BBX 18 18 0 -2
BITMAP
000000
000100
3f9100
041100
041100
041100
041100
7fd100
041100
041100
041100
041100
040100
040100
040100
040100
040700
000000
ENDCHAR
STARTCHAR 342a
ENCODING 13354
SWIDTH 1000 0
DWIDTH 18 0
BBX 18 18 0 -2
BITMAP
000000
110800
110800
7fc800
110800
1f3f80
110880
1f0880
110880
7fc880
2a0880
2a1880
2b9080
301180
203100
3fa100
006700
000000
ENDCHAR
STARTCHAR 342b
ENCODING 13355
SWIDTH 1000 0
DWIDTH 18 0
BBX 18 18 0 -2
BITMAP
000000
100800
100800
3fc800
240800
443f80
3fc880
090880
120880
3fc880
521880
1f9080
121080
1fb180
122100
1fe100
004700
000000
ENDCHAR
STARTCHAR 342c
ENCODING 13356
SWIDTH 1000 0
DWIDTH 18 0
BBX 18 18 0 -2
BITMAP
000000
088400
0c8c00
048800
1ffe00
012000
021000
7fff80
040800
0ffc00
181600
701380
07f000
040000
040200
060600
03fc00
000000
ENDCHAR
STARTCHAR 342d
ENCODING 13357
SWIDTH 1000 0
DWIDTH 18 0
BBX 18 18 0 -2
BITMAP
000000
008000
00fc00
798400
490800
4bff00
492900
492900
492900
494f00
498100
491100
7bff80
002800
006c00
00c600
038380
000000
ENDCHAR
STARTCHAR 342e
ENCODING 13358
SWIDTH 1000 0
DWIDTH 18 0
BBX 18 18 0 -2
BITMAP
000000
108200
108200
13ff80
108200
7cfe00
108200
10fe00
108200
108200
13ff80
112400
1d2400
714780
018000
010000
01ff80
000000
ENDCHAR
STARTCHAR 342f
ENCODING 13359
SWIDTH 1000 0
DWIDTH 18 0
BBX 18 18 0 -2
BITMAP
000000
010000
010000
3fff00
020800
041000
0ff000
009e00
3f0300
080800
7fff80
111100
232300
3a3a00
0e0e00
1b1b00
717180
000000
ENDCHAR
STARTCHAR 3430
ENCODING 13360
SWIDTH 1000 0
DWIDTH 18 0
BBX 18 18 0 -2
BITMAP
000000
008000
008000
3fff00
200100
200100
0ffc00
000000
000000
7fff80
021000
021000
061000
041000
0c1080
181980
700f00
000000
ENDCHAR
STARTCHAR 3431
ENCODING 13361
SWIDTH 1000 0
DWIDTH 18 0
BBX 18 18 0 -2
BITMAP
000000
008000
008000
7fff80
400080
400080
0ffc00
080400
080400
0ffc00
080000
080000
0ffe00
080200
080200
080200
0ffe00
000000
ENDCHAR
STARTCHAR 3432
ENCODING 13362
SWIDTH 1000 0
DWIDTH 18 0
BBX 18 18 0 -2
BITMAP
000000
008000
008000
7fff80
421080
5ffe80
021000
0ffc00
080400
0ffc00
080400
0ffc00
080400
0ffc00
021080
0e1180
780f00
000000
ENDCHAR
STARTCHAR 3433
ENCODING 13363
SWIDTH 1000 0
DWIDTH 18 0
BBX 18 18 0 -2
BITMAP
000000
000000
3ffe00
008000
008000
008000
008000
008000
7fff80
008000
008000
008000
008000
008000
008000
008000
008000
000000
ENDCHAR
STARTCHAR 3434
ENCODING 13364
SWIDTH 1000 0
DWIDTH 18 0
BBX 18 18 0 -2
BITMAP
000000
080800
081c00
7f1400
083600
3e6300
22c180
223e00
3e0800
220800
220800
3eff80
080800
7f0800
080800
080800
080800
000000
ENDCHAR
STARTCHAR 3435
ENCODING 13365
SWIDTH 1000 0
DWIDTH 18 0
BBX 18 18 0 -2
BITMAP
000000
008000
1ffe00
108200
108200
1ffe00
008000
1ffe00
108200
108200
1ffe00
008000
002000
123300
121580
330c80
61f800
000000
ENDCHAR
STARTCHAR 3436
ENCODING 13366
SWIDTH 1000 0
DWIDTH 18 0
BBX 18 18 0 -2
BITMAP
000000
002400
002200
3fff80
202000
2fb200
201600
2f9c00
288800
2f9c80
606680
400380
00c000
126300
122580
330c80
61f800
000000
ENDCHAR
STARTCHAR 3437
ENCODING 13367
SWIDTH 1000 0
DWIDTH 18 0
BBX 18 18 0 -2
BITMAP
000000
100000
11ff00
111100
13ff80
591100
55ff00
500000
51ff00
110100
11ff00
110100
11ff00
110100
11ff00
108200
130180
000000
ENDCHAR
STARTCHAR 3438
ENCODING 13368
SWIDTH 1000 0
DWIDTH 18 0
BBX 18 18 0 -2
BITMAP
000000
100a00
100900
13ff80
120800
52fd00
5a0500
56f700
529200
12f680
120b80
140100
102000
12b300
129180
168480
147c00
000000
ENDCHAR
STARTCHAR 3439
ENCODING 13369
SWIDTH 1000 0
DWIDTH 18 0
BBX 18 18 0 -2
BITMAP
000000
108000
10fc00
118400
7d0800
13ff00
112900
112900
112900
1d4f00
718100
111100
13ff80
102800
106c00
10c600
338380
000000
ENDCHAR
STARTCHAR 343a
ENCODING 13370
SWIDTH 1000 0
DWIDTH 18 0
BBX 18 18 0 -2
BITMAP
000000
001000
3f9000
041000
043f80
7fe200
112200
117200
1f1600
111400
111c00
1f0800
111c00
111400
1f3600
712300
016180
000000
ENDCHAR
STARTCHAR 343b
ENCODING 13371
SWIDTH 1000 0
DWIDTH 18 0
BBX 18 18 0 -2
BITMAP
000000
084200
084200
084200
7e4200
09ff80
084200
1c4200
1a4200
1a4200
287e00
284200
484200
084200
084200
084200
087e00
000000
ENDCHAR
STARTCHAR 343c
ENCODING 13372
SWIDTH 1000 0
DWIDTH 18 0
BBX 18 18 0 -2
BITMAP
000000
080000
09ff00
080000
7e0000
08fe00
088200
1c8200
1afe00
1a8200
288200
288200
48fe00
080000
080000
0bff80
080000
000000
ENDCHAR
STARTCHAR 343d
ENCODING 13373
SWIDTH 1000 0
DWIDTH 18 0
BBX 18 18 0 -2
BITMAP
000000
081000
081000
09ff80
7f0080
090080
087e00
1c4200
1a4200
1a7e00
284000
284000
487f00
084100
084100
084100
087f00
000000
ENDCHAR
STARTCHAR 343e
ENCODING 13374
SWIDTH 1000 0
DWIDTH 18 0
BBX 18 18 0 -2
BITMAP
000000
081000
081000
7f9000
083f80
082080
3f2980
006900
3f0800
000800
7f9c00
081400
2a1400
293600
492200
086300
18c180
000000
ENDCHAR
STARTCHAR 343f
ENCODING 13375
SWIDTH 1000 0
DWIDTH 18 0
BBX 18 18 0 -2
BITMAP
000000
101000
101000
3f9000
681f80
083080
7fa980
126900
140800
3f8800
641c00
3f1400
241400
3f3600
242200
3fe300
004180
000000
ENDCHAR
STARTCHAR 3440
ENCODING 13376
SWIDTH 1000 0
DWIDTH 18 0
BBX 18 18 0 -2
BITMAP
000000
000000
31ff00
181000
081000
001000
601000
301000
13ff80
001000
081000
181000
101000
301000
201000
601000
001000
000000
ENDCHAR
STARTCHAR 3441
ENCODING 13377
SWIDTH 1000 0
DWIDTH 18 0
BBX 18 18 0 -2
BITMAP
000000
004400
33ff80
184400
080000
01ff00
611100
311100
11ff00
001000
09ff00
081000
1bff80
102800
306c00
20c600
638380
000000
ENDCHAR
STARTCHAR 3442
ENCODING 13378
SWIDTH 1000 0
DWIDTH 18 0
BBX 18 18 0 -2
BITMAP
000000
000000
33ef80
1a2880
0bef80
022880
63ef80
320080
127c80
024480
0a4480
0a7c80
1a4480
124480
327c80
220080
620380
000000
ENDCHAR
STARTCHAR 3443
ENCODING 13379
SWIDTH 1000 0
DWIDTH 18 0
BBX 18 18 0 -2
BITMAP
000000
008000
308000
19ff00
092000
07ff80
604400
308800
11ff00
031000
09ff00
091000
191000
11ff00
311000
211000
61ff80
000000
ENDCHAR
STARTCHAR 3444
ENCODING 13380
SWIDTH 1000 0
DWIDTH 18 0
BBX 18 18 0 -2
BITMAP
000000
000000
01ff00
7d4900
114900
11ff00
100000
13ff80
7c0000
11ff00
110100
11ff00
103080
1c5900
709600
031180
001000
000000
ENDCHAR
STARTCHAR 3445
ENCODING 13381
SWIDTH 1000 0
DWIDTH 18 0
BBX 18 18 0 -2
BITMAP
000000
040800
040800
040800
040800
7fff80
040800
040800
040800
040800
07f800
040800
040800
040800
040800
040800
07f800
000000
ENDCHAR
STARTCHAR 3446
ENCODING 13382
SWIDTH 1000 0
DWIDTH 18 0
BBX 18 18 0 -2
BITMAP
000000
001000
3f9000
241000
3f3f80
212000
216000
3f1f00
240000
3f8000
000000
1ffe00
122200
122200
122200
7fff80
000000
000000
ENDCHAR
STARTCHAR 3447
ENCODING 13383
SWIDTH 1000 0
DWIDTH 18 0
BBX 18 18 0 -2
BITMAP
000000
000c00
00f800
1f8000
008000
3fff00
010000
7fff80
020000
07fe00
0c0200
17fe00
640200
07fe00
040200
040200
07fe00
000000
ENDCHAR
STARTCHAR 3448
ENCODING 13384
SWIDTH 1000 0
DWIDTH 18 0
BBX 18 18 0 -2
BITMAP
000000
081000
081000
1fbf80
244800
420400
000000
1ffe00
008000
008000
008000
7fff80
008000
008000
008000
008000
008000
000000
ENDCHAR
STARTCHAR 3449
ENCODING 13385
SWIDTH 1000 0
DWIDTH 18 0
BBX 18 18 0 -2
BITMAP
000000
081000
081000
1fbf80
244800
420400
008000
3fff00
200100
27f900
040800
07f800
040000
07fc00
040400
040400
07fc00
000000
ENDCHAR
ENDFONT
